<?xml version="1.0" encoding="UTF-8"?>
<svg xmlns="http://www.w3.org/2000/svg" xmlns:xlink="http://www.w3.org/1999/xlink" viewBox="0 0 1920 1080">
  <defs>
    <style>
      .cls-1 {
        fill: #e4f4fe;
      }

      .cls-1, .cls-2, .cls-3, .cls-4, .cls-5, .cls-6, .cls-7, .cls-8, .cls-9, .cls-10, .cls-11, .cls-12, .cls-13 {
        stroke-miterlimit: 10;
      }

      .cls-1, .cls-2, .cls-4, .cls-5, .cls-6, .cls-7, .cls-8, .cls-10, .cls-11, .cls-13 {
        stroke: #001300;
      }

      .cls-2 {
        fill: #315d28;
      }

      .cls-3 {
        fill: #3aab46;
      }

      .cls-3, .cls-9, .cls-12 {
        stroke: #000;
      }

      .cls-4 {
        fill: #237532;
      }

      .cls-5 {
        fill: #2c5d29;
      }

      .cls-6 {
        fill: #0b5c2b;
      }

      .cls-7 {
        fill: #5eb130;
      }

      .cls-8 {
        fill: url(#Ikke-navngivet_forløb_8);
      }

      .cls-9 {
        fill: #00a272;
      }

      .cls-10 {
        fill: #20a238;
      }

      .cls-11 {
        fill: #4eae33;
      }

      .cls-12 {
        fill: #7acce9;
      }

      .cls-13 {
        fill: #e7e7e7;
      }
    </style>
    <linearGradient id="Ikke-navngivet_forløb_8" data-name="Ikke-navngivet forløb 8" x1="981" y1="413.5" x2="981" y2="-36.5" gradientUnits="userSpaceOnUse">
      <stop offset=".2" stop-color="#cce0f4"/>
      <stop offset=".24" stop-color="#c2dcf2"/>
      <stop offset=".32" stop-color="#a9d2ee"/>
      <stop offset=".41" stop-color="#7fc2e7"/>
      <stop offset=".52" stop-color="#46abdd"/>
      <stop offset=".59" stop-color="#1e9cd7"/>
      <stop offset=".83" stop-color="#0075be"/>
      <stop offset=".95" stop-color="#005b97"/>
    </linearGradient>
  </defs>
  <g id="Background">
    <image width="2268" height="4032" transform="translate(-154.5 1130.94) rotate(-90) scale(.5 .53)" xlink:href="../../../../../Downloads/frog_background.jpg"/>
  </g>
  <g id="Baggrunds_tegning" data-name="Baggrunds tegning">
    <path class="cls-9" d="m885.88,335.46c-7.27.34-14.56.69-21.88,1.04-14.25.69-27.43,1.32-39.7,2.01,2.2-5.76,4.42-10.99,6.55-15.66-3.02,2.54-7.34,6.62-11.73,12.68-.83,1.15-1.6,2.28-2.32,3.41-5.94.36-11.67.73-17.19,1.14.09-2.14.22-4.17.37-6.09-.96,1.57-2.13,3.67-3.25,6.3-53.14,4.04-87.63,11.17-121.63,33.09-33.59,21.65-54.49,48.24-106.1,67.12-44.88,16.42-81.3,15.41-99,16-37.67,1.25-99.42,13.3-261,138C74.37,698.4-12.11,765.14-51.42,814.53c-33.01,3.98-54.65-1.96-77.58-22.03-138.96-121.63-43.43-515.53,96-554,6.76-1.86,13.41-3,20-3.52,53.27-4.24,102.25,31.7,170.45,47.52,25.96,6.03,54.72,9.14,87.55,6,13.85-1.32,25.95-3.39,36.98-6,60.73-14.37,88.91-45.14,196.02-58,26.71-3.21,92.19-10.67,162,1,12.66,2.12,25.65,4.89,38.8,8.27,2.13.55,4.26,1.11,6.4,1.69,1.07.29,2.14.58,3.21.88,1.07.29,2.15.59,3.22.9,3.22.91,6.44,1.86,9.67,2.84,1.08.32,2.15.65,3.23.99,11.32,3.51,22.68,7.42,33.98,11.71,1.29.48,2.57.97,3.86,1.48,4.01,1.55,8.02,3.14,12.02,4.79,1.31.54,2.63,1.09,3.94,1.64,1.32.55,2.63,1.11,3.94,1.67,10.5,4.49,20.87,9.28,31.05,14.34,1.26.62,2.51,1.25,3.76,1.88,1.03.52,2.05,1.04,3.07,1.57.97.49,1.94.99,2.9,1.5.55.28,1.1.56,1.64.85.07.04.13.07.2.11,1.09.57,2.17,1.14,3.25,1.72,6.59,3.51,13.07,7.13,19.42,10.86,1.41.82,2.81,1.65,4.21,2.49,1.61.96,3.2,1.93,4.79,2.9,1.42.87,2.83,1.75,4.23,2.63,1.44.9,2.86,1.8,4.28,2.71,1.44.93,2.88,1.86,4.3,2.79,1.1.72,2.2,1.45,3.29,2.18.31.21.62.42.93.63,1.38.92,2.75,1.85,4.11,2.79,1.57,1.08,3.13,2.16,4.67,3.25,2.13,1.5,4.23,3.02,6.3,4.54.48.35.96.7,1.43,1.05,1.25.92,2.48,1.85,3.71,2.78,4.13,3.13,8.16,6.31,12.07,9.53Z"/>
    <path class="cls-3" d="m1976,712.5c-8.62,8.2-18.12,13.86-28.77,17.42-73.19-93.21-203.92-179.7-329.23-195.42-73.46-9.22-170.7,2.66-283-61-59.06-33.48-48.4-45.97-106-80-110.06-65.03-223.7-63.58-343.12-58.04-3.91-3.22-7.94-6.4-12.07-9.53,23-14.9,51.61-29.69,83.99-43.43,34.94-14.82,74.28-28.4,115.69-39.55,110.36-29.73,235.46-42.12,331.51-14.45,23.1,6.66,82.19,26.48,168,39.81,7.15,1.12,14.48,2.18,22,3.19,3.1.42,6.1.81,9,1.17,66.09,8.27,80.85,3.19,122,10.83,36.82,6.84,147.06,33.72,216.69,130,5.36,7.41,10.48,15.24,15.31,23.5,45.91,78.53,79.09,217.35,18,275.5Z"/>
    <path class="cls-12" d="m816.8,338.94c-4.25,6.59-6.89,12.97-9.9,20.21-.81,1.94-2.95,7.19-5.48,15.02-.26-1.7-.5-3.44-.71-5.21-1.31-10.87-1.47-20.63-1.1-28.88,5.52-.41,11.25-.78,17.19-1.14Z"/>
    <path class="cls-12" d="m2006,866.5s14.89,112.9-74,238c-64.6,90.92-237.69,206.07-967,204-137.89-.39-870.83-6.76-995-217-75.43-127.72-46-225-46-225,5.41-17.89,10.79-34.64,24.58-51.97,39.31-49.39,125.79-116.13,260.42-220.03,161.58-124.7,223.33-136.75,261-138,17.7-.59,54.12.42,99-16,51.61-18.88,72.51-45.47,106.1-67.12,34-21.92,68.49-29.05,121.63-33.09-.69,1.61-1.36,3.41-1.97,5.41-2.06,6.81-2.29,12.53-2.56,19.18-.08,1.94-.29,8.09.41,16.89.51,6.35.99,12.32,1.86,16.74-1.84,7.61-2.58,13.5-.87,16.01-1.12,2.95-1.48,5.01-.7,5.59,1.39,1.02,5.42-3.37,9.1-1.61,1.72.82,1.76,2.22,2.59,2.32,3.36.42,5.38-23.29,14.31-38.25,11.92-19.99,26.34-30.3,32.22-34.09-8.7,1.14-14.95,5.14-18.25,7.64-5.53,4.19-8.99,8.88-15.8,18.03-.83,1.11-2.68,3.63-5.19,7.36.84-4.2,1.82-8.55,2.95-13.03,2.82-11.16,6.11-21.18,9.47-29.97,12.27-.69,25.45-1.32,39.7-2.01,7.32-.35,14.61-.7,21.88-1.04,119.42-5.54,233.06-6.99,343.12,58.04,57.6,34.03,46.94,46.52,106,80,112.3,63.66,209.54,51.78,283,61,125.31,15.72,256.04,102.21,329.23,195.42,19.97,25.44,50.19,71.54,58.77,136.58Z"/>
    <path class="cls-7" d="m851.12,348.48c-5.88,3.79-20.3,14.1-32.22,34.09-8.93,14.96-10.95,38.67-14.31,38.25-.83-.1-.87-1.5-2.59-2.32-3.68-1.76-7.71,2.63-9.1,1.61-.78-.58-.42-2.64.7-5.59-1.71-2.51-.97-8.4.87-16.01,1.23-5.15,2.96-11.08,4.77-17.29.74-2.54,1.48-4.89,2.18-7.05,2.53-7.83,4.67-13.08,5.48-15.02,3.01-7.24,5.65-13.62,9.9-20.21.72-1.13,1.49-2.26,2.32-3.41,4.39-6.06,8.71-10.14,11.73-12.68-2.13,4.67-4.35,9.9-6.55,15.66-3.36,8.79-6.65,18.81-9.47,29.97-1.13,4.48-2.11,8.83-2.95,13.03,2.51-3.73,4.36-6.25,5.19-7.36,6.81-9.15,10.27-13.84,15.8-18.03,3.3-2.5,9.55-6.5,18.25-7.64Z"/>
    <path class="cls-10" d="m801.42,374.17c-.7,2.16-1.44,4.51-2.18,7.05-1.81,6.21-3.54,12.14-4.77,17.29-.87-4.42-1.35-10.39-1.86-16.74-.7-8.8-.49-14.95-.41-16.89.27-6.65.5-12.37,2.56-19.18.61-2,1.28-3.8,1.97-5.41,1.12-2.63,2.29-4.73,3.25-6.3-.15,1.92-.28,3.95-.37,6.09-.37,8.25-.21,18.01,1.1,28.88.21,1.77.45,3.51.71,5.21Z"/>
    <path class="cls-10" d="m783.82,336.69c-9.07,8.34-12.18,16.3-13.37,21.86-2.53,11.81.57,26.75-1.41,27.1-.15.02-.27-.03-.41-.14.65,1.46.87,2.49.51,2.87-.75.78-3.53-1.84-5.6-.41-.97.67-.88,1.6-1.37,1.72-1.99.52-5.09-15.02-11.65-24.28-8.76-12.37-18.24-18.15-22.08-20.23,5.32.13,9.39,2.32,11.58,3.74,3.66,2.37,6.11,5.23,10.93,10.79.59.67,1.9,2.21,3.71,4.5-.84-2.72-1.77-5.53-2.81-8.41-2.58-7.18-5.36-13.57-8.08-19.15-1.78-3.65-3.53-6.95-5.18-9.89,2.02,1.46,4.94,3.85,8.06,7.54.59.7,1.14,1.39,1.67,2.09,3.08,4.05,5.17,8.08,7.56,12.66.48.92,1.56,3.01,2.97,6.1.09-4.82.36-8.12.47-9.41.44-5.19.83-9.75,2.1-14.75.08-.33.39-1.52.73-2.61,1.06-3.38,3.47-9.16,9.65-15.78-4.02,6.84-5.49,12.84-6.11,16.73-.91,5.69-.59,10.91-.1,20.92.15,3.08.36,6.04.63,8.88.79-2.85,1.4-4.79,1.68-5.66,3.91-11.97,4.98-13.58,5.91-14.43,1.19-1.08,4.07-3.14,10.03-2.38Z"/>
    <path class="cls-7" d="m672.44,394.62c-16.53,10.8-23.19,22.09-26.24,30.17-6.48,17.14-4.34,39.95-7.67,40.12-.25.01-.44-.1-.65-.28.77,2.29.94,3.87.27,4.37-1.39,1.02-5.42-3.37-9.1-1.61-1.72.82-1.76,2.22-2.59,2.32-3.36.42-5.38-23.29-14.31-38.25-11.92-19.99-26.34-30.3-32.22-34.09,8.7,1.14,14.95,5.14,18.25,7.64,5.53,4.19,8.99,8.88,15.8,18.03.83,1.11,2.68,3.63,5.19,7.36-.84-4.2-1.82-8.55-2.95-13.03-2.82-11.16-6.11-21.18-9.47-29.97-2.2-5.76-4.42-10.99-6.55-15.66,3.02,2.54,7.34,6.62,11.73,12.68.83,1.15,1.6,2.28,2.32,3.41,4.25,6.59,6.89,12.97,9.9,20.21.61,1.45,1.96,4.76,3.66,9.62,1.1-7.16,2.19-12.03,2.62-13.93,1.75-7.65,3.28-14.38,6.36-21.59.2-.47.94-2.2,1.71-3.75,2.4-4.85,7.5-13.02,18.94-21.77-7.94,9.47-11.54,18.14-13.33,23.83-2.61,8.31-3.12,16.14-4.29,31.14-.36,4.61-.6,9.06-.72,13.34,1.85-4.1,3.25-6.89,3.88-8.13,8.77-17.13,10.85-19.33,12.54-20.43,2.16-1.4,7.3-3.94,16.92-1.75Z"/>
    <path class="cls-11" d="m505.8,440.84c-16.53,10.8-23.19,22.09-26.24,30.17-6.48,17.14-4.34,39.95-7.67,40.12-.25.01-.44-.1-.65-.28.77,2.29.94,3.87.27,4.37-1.39,1.02-5.42-3.37-9.1-1.61-1.72.82-1.76,2.22-2.59,2.32-3.36.42-5.38-23.29-14.31-38.25-11.92-19.99-26.34-30.3-32.22-34.09,8.7,1.14,14.95,5.14,18.25,7.64,5.53,4.19,8.99,8.88,15.8,18.03.83,1.11,2.68,3.63,5.19,7.36-.84-4.2-1.82-8.55-2.95-13.03-2.82-11.16-6.11-21.18-9.47-29.97-2.2-5.76-4.42-10.99-6.55-15.66,3.02,2.54,7.34,6.62,11.73,12.68.83,1.15,1.6,2.28,2.32,3.41,4.25,6.59,6.89,12.97,9.9,20.21.61,1.45,1.96,4.76,3.66,9.62,1.1-7.16,2.19-12.03,2.62-13.93,1.75-7.65,3.28-14.38,6.36-21.59.2-.47.94-2.2,1.71-3.75,2.4-4.85,7.5-13.02,18.94-21.77-7.94,9.47-11.54,18.14-13.33,23.83-2.61,8.31-3.12,16.14-4.29,31.14-.36,4.61-.6,9.06-.72,13.34,1.85-4.1,3.25-6.89,3.88-8.13,8.77-17.13,10.85-19.33,12.54-20.43,2.16-1.4,7.3-3.94,16.92-1.75Z"/>
    <path class="cls-11" d="m362.8,497.84c-16.53,10.8-23.19,22.09-26.24,30.17-6.48,17.14-4.34,39.95-7.67,40.12-.25.01-.44-.1-.65-.28.77,2.29.94,3.87.27,4.37-1.39,1.02-5.42-3.37-9.1-1.61-1.72.82-1.76,2.22-2.59,2.32-3.36.42-5.38-23.29-14.31-38.25-11.92-19.99-26.34-30.3-32.22-34.09,8.7,1.14,14.95,5.14,18.25,7.64,5.53,4.19,8.99,8.88,15.8,18.03.83,1.11,2.68,3.63,5.19,7.36-.84-4.2-1.82-8.55-2.95-13.03-2.82-11.16-6.11-21.18-9.47-29.97-2.2-5.76-4.42-10.99-6.55-15.66,3.02,2.54,7.34,6.62,11.73,12.68.83,1.15,1.6,2.28,2.32,3.41,4.25,6.59,6.89,12.97,9.9,20.21.61,1.45,1.96,4.76,3.66,9.62,1.1-7.16,2.19-12.03,2.62-13.93,1.75-7.65,3.28-14.38,6.36-21.59.2-.47.94-2.2,1.71-3.75,2.4-4.85,7.5-13.02,18.94-21.77-7.94,9.47-11.54,18.14-13.33,23.83-2.61,8.31-3.12,16.14-4.29,31.14-.36,4.61-.6,9.06-.72,13.34,1.85-4.1,3.25-6.89,3.88-8.13,8.77-17.13,10.85-19.33,12.54-20.43,2.16-1.4,7.3-3.94,16.92-1.75Z"/>
    <path class="cls-11" d="m316.8,540.84c-16.53,10.8-23.19,22.09-26.24,30.17-6.48,17.14-4.34,39.95-7.67,40.12-.25.01-.44-.1-.65-.28.77,2.29.94,3.87.27,4.37-1.39,1.02-5.42-3.37-9.1-1.61-1.72.82-1.76,2.22-2.59,2.32-3.36.42-5.38-23.29-14.31-38.25-11.92-19.99-26.34-30.3-32.22-34.09,8.7,1.14,14.95,5.14,18.25,7.64,5.53,4.19,8.99,8.88,15.8,18.03.83,1.11,2.68,3.63,5.19,7.36-.84-4.2-1.82-8.55-2.95-13.03-2.82-11.16-6.11-21.18-9.47-29.97-2.2-5.76-4.42-10.99-6.55-15.66,3.02,2.54,7.34,6.62,11.73,12.68.83,1.15,1.6,2.28,2.32,3.41,4.25,6.59,6.89,12.97,9.9,20.21.61,1.45,1.96,4.76,3.66,9.62,1.1-7.16,2.19-12.03,2.62-13.93,1.75-7.65,3.28-14.38,6.36-21.59.2-.47.94-2.2,1.71-3.75,2.4-4.85,7.5-13.02,18.94-21.77-7.94,9.47-11.54,18.14-13.33,23.83-2.61,8.31-3.12,16.14-4.29,31.14-.36,4.61-.6,9.06-.72,13.34,1.85-4.1,3.25-6.89,3.88-8.13,8.77-17.13,10.85-19.33,12.54-20.43,2.16-1.4,7.3-3.94,16.92-1.75Z"/>
    <path class="cls-4" d="m620.59,403.05c-15.84,11.79-21.8,23.46-24.35,31.71-5.42,17.5-1.9,40.14-5.21,40.51-.25.03-.45-.07-.67-.24.91,2.24,1.17,3.81.54,4.35-1.33,1.1-5.62-3.03-9.18-1.05-1.67.92-1.62,2.32-2.44,2.47-3.33.62-6.79-22.92-16.62-37.31-13.12-19.23-28.14-28.64-34.24-32.06,8.75.61,15.24,4.22,18.68,6.51,5.78,3.84,9.51,8.32,16.87,17.03.9,1.06,2.9,3.46,5.63,7.03-1.09-4.14-2.34-8.42-3.74-12.83-3.5-10.97-7.39-20.77-11.28-29.34-2.55-5.62-5.08-10.7-7.49-15.23,3.17,2.35,7.73,6.16,12.48,11.94.9,1.1,1.74,2.18,2.52,3.26,4.64,6.32,7.67,12.53,11.11,19.57.7,1.41,2.25,4.63,4.24,9.38.66-7.21,1.45-12.14,1.77-14.06,1.28-7.74,2.4-14.55,5.03-21.94.17-.48.8-2.25,1.48-3.85,2.1-4.99,6.69-13.45,17.58-22.88-7.35,9.94-10.41,18.81-11.85,24.6-2.1,8.45-2.13,16.3-2.38,31.34-.08,4.62-.05,9.08.09,13.36,1.6-4.21,2.82-7.08,3.38-8.35,7.71-17.63,9.65-19.96,11.27-21.16,2.07-1.53,7.05-4.38,16.78-2.78Z"/>
    <path class="cls-11" d="m1282.69,433.39c-16.53,10.8-23.19,22.09-26.24,30.17-6.48,17.14-4.34,39.95-7.67,40.12-.25.01-.44-.1-.65-.28.77,2.29.94,3.87.27,4.37-1.39,1.02-5.42-3.37-9.1-1.61-1.72.82-1.76,2.22-2.59,2.32-3.36.42-5.38-23.29-14.31-38.25-11.92-19.99-26.34-30.3-32.22-34.09,8.7,1.14,14.95,5.14,18.25,7.64,5.53,4.19,8.99,8.88,15.8,18.03.83,1.11,2.68,3.63,5.19,7.36-.84-4.2-1.82-8.55-2.95-13.03-2.82-11.16-6.11-21.18-9.47-29.97-2.2-5.76-4.42-10.99-6.55-15.66,3.02,2.54,7.34,6.62,11.73,12.68.83,1.15,1.6,2.28,2.32,3.41,4.25,6.59,6.89,12.97,9.9,20.21.61,1.45,1.96,4.76,3.66,9.62,1.1-7.16,2.19-12.03,2.62-13.93,1.75-7.65,3.28-14.38,6.36-21.59.2-.47.94-2.2,1.71-3.75,2.4-4.85,7.5-13.02,18.94-21.77-7.94,9.47-11.54,18.14-13.33,23.83-2.61,8.31-3.12,16.14-4.29,31.14-.36,4.61-.6,9.06-.72,13.34,1.85-4.1,3.25-6.89,3.88-8.13,8.77-17.13,10.85-19.33,12.54-20.43,2.16-1.4,7.3-3.94,16.92-1.75Z"/>
    <path class="cls-11" d="m1375.69,490.39c-16.53,10.8-23.19,22.09-26.24,30.17-6.48,17.14-4.34,39.95-7.67,40.12-.25.01-.44-.1-.65-.28.77,2.29.94,3.87.27,4.37-1.39,1.02-5.42-3.37-9.1-1.61-1.72.82-1.76,2.22-2.59,2.32-3.36.42-5.38-23.29-14.31-38.25-11.92-19.99-26.34-30.3-32.22-34.09,8.7,1.14,14.95,5.14,18.25,7.64,5.53,4.19,8.99,8.88,15.8,18.03.83,1.11,2.68,3.63,5.19,7.36-.84-4.2-1.82-8.55-2.95-13.03-2.82-11.16-6.11-21.18-9.47-29.97-2.2-5.76-4.42-10.99-6.55-15.66,3.02,2.54,7.34,6.62,11.73,12.68.83,1.15,1.6,2.28,2.32,3.41,4.25,6.59,6.89,12.97,9.9,20.21.61,1.45,1.96,4.76,3.66,9.62,1.1-7.16,2.19-12.03,2.62-13.93,1.75-7.65,3.28-14.38,6.36-21.59.2-.47.94-2.2,1.71-3.75,2.4-4.85,7.5-13.02,18.94-21.77-7.94,9.47-11.54,18.14-13.33,23.83-2.61,8.31-3.12,16.14-4.29,31.14-.36,4.61-.6,9.06-.72,13.34,1.85-4.1,3.25-6.89,3.88-8.13,8.77-17.13,10.85-19.33,12.54-20.43,2.16-1.4,7.3-3.94,16.92-1.75Z"/>
    <path class="cls-11" d="m1487.69,499.39c-16.53,10.8-23.19,22.09-26.24,30.17-6.48,17.14-4.34,39.95-7.67,40.12-.25.01-.44-.1-.65-.28.77,2.29.94,3.87.27,4.37-1.39,1.02-5.42-3.37-9.1-1.61-1.72.82-1.76,2.22-2.59,2.32-3.36.42-5.38-23.29-14.31-38.25-11.92-19.99-26.34-30.3-32.22-34.09,8.7,1.14,14.95,5.14,18.25,7.64,5.53,4.19,8.99,8.88,15.8,18.03.83,1.11,2.68,3.63,5.19,7.36-.84-4.2-1.82-8.55-2.95-13.03-2.82-11.16-6.11-21.18-9.47-29.97-2.2-5.76-4.42-10.99-6.55-15.66,3.02,2.54,7.34,6.62,11.73,12.68.83,1.15,1.6,2.28,2.32,3.41,4.25,6.59,6.89,12.97,9.9,20.21.61,1.45,1.96,4.76,3.66,9.62,1.1-7.16,2.19-12.03,2.62-13.93,1.75-7.65,3.28-14.38,6.36-21.59.2-.47.94-2.2,1.71-3.75,2.4-4.85,7.5-13.02,18.94-21.77-7.94,9.47-11.54,18.14-13.33,23.83-2.61,8.31-3.12,16.14-4.29,31.14-.36,4.61-.6,9.06-.72,13.34,1.85-4.1,3.25-6.89,3.88-8.13,8.77-17.13,10.85-19.33,12.54-20.43,2.16-1.4,7.3-3.94,16.92-1.75Z"/>
    <path class="cls-11" d="m1587.69,568.39c-16.53,10.8-23.19,22.09-26.24,30.17-6.48,17.14-4.34,39.95-7.67,40.12-.25.01-.44-.1-.65-.28.77,2.29.94,3.87.27,4.37-1.39,1.02-5.42-3.37-9.1-1.61-1.72.82-1.76,2.22-2.59,2.32-3.36.42-5.38-23.29-14.31-38.25-11.92-19.99-26.34-30.3-32.22-34.09,8.7,1.14,14.95,5.14,18.25,7.64,5.53,4.19,8.99,8.88,15.8,18.03.83,1.11,2.68,3.63,5.19,7.36-.84-4.2-1.82-8.55-2.95-13.03-2.82-11.16-6.11-21.18-9.47-29.97-2.2-5.76-4.42-10.99-6.55-15.66,3.02,2.54,7.34,6.62,11.73,12.68.83,1.15,1.6,2.28,2.32,3.41,4.25,6.59,6.89,12.97,9.9,20.21.61,1.45,1.96,4.76,3.66,9.62,1.1-7.16,2.19-12.03,2.62-13.93,1.75-7.65,3.28-14.38,6.36-21.59.2-.47.94-2.2,1.71-3.75,2.4-4.85,7.5-13.02,18.94-21.77-7.94,9.47-11.54,18.14-13.33,23.83-2.61,8.31-3.12,16.14-4.29,31.14-.36,4.61-.6,9.06-.72,13.34,1.85-4.1,3.25-6.89,3.88-8.13,8.77-17.13,10.85-19.33,12.54-20.43,2.16-1.4,7.3-3.94,16.92-1.75Z"/>
    <path class="cls-5" d="m1541.69,529.39c-16.53,10.8-23.19,22.09-26.24,30.17-6.48,17.14-4.34,39.95-7.67,40.12-.25.01-.44-.1-.65-.28.77,2.29.94,3.87.27,4.37-1.39,1.02-5.42-3.37-9.1-1.61-1.72.82-1.76,2.22-2.59,2.32-3.36.42-5.38-23.29-14.31-38.25-11.92-19.99-26.34-30.3-32.22-34.09,8.7,1.14,14.95,5.14,18.25,7.64,5.53,4.19,8.99,8.88,15.8,18.03.83,1.11,2.68,3.63,5.19,7.36-.84-4.2-1.82-8.55-2.95-13.03-2.82-11.16-6.11-21.18-9.47-29.97-2.2-5.76-4.42-10.99-6.55-15.66,3.02,2.54,7.34,6.62,11.73,12.68.83,1.15,1.6,2.28,2.32,3.41,4.25,6.59,6.89,12.97,9.9,20.21.61,1.45,1.96,4.76,3.66,9.62,1.1-7.16,2.19-12.03,2.62-13.93,1.75-7.65,3.28-14.38,6.36-21.59.2-.47.94-2.2,1.71-3.75,2.4-4.85,7.5-13.02,18.94-21.77-7.94,9.47-11.54,18.14-13.33,23.83-2.61,8.31-3.12,16.14-4.29,31.14-.36,4.61-.6,9.06-.72,13.34,1.85-4.1,3.25-6.89,3.88-8.13,8.77-17.13,10.85-19.33,12.54-20.43,2.16-1.4,7.3-3.94,16.92-1.75Z"/>
    <path class="cls-7" d="m1023.5,346.75c-8.63,5.79-12.11,11.84-13.71,16.17-3.38,9.19-2.27,21.41-4.01,21.5-.13,0-.23-.05-.34-.15.4,1.23.49,2.07.14,2.34-.73.55-2.83-1.81-4.75-.86-.9.44-.92,1.19-1.35,1.24-1.76.23-2.81-12.48-7.47-20.5-6.23-10.71-13.76-16.24-16.83-18.27,4.54.61,7.81,2.75,9.53,4.09,2.89,2.25,4.7,4.76,8.25,9.66.43.59,1.4,1.95,2.71,3.94-.44-2.25-.95-4.58-1.54-6.98-1.47-5.98-3.19-11.35-4.95-16.06-1.15-3.09-2.31-5.89-3.42-8.39,1.58,1.36,3.83,3.55,6.13,6.8.43.62.84,1.22,1.21,1.83,2.22,3.53,3.6,6.95,5.17,10.83.32.78,1.02,2.55,1.91,5.16.57-3.84,1.14-6.45,1.37-7.47.91-4.1,1.71-7.71,3.32-11.57.1-.25.49-1.18.89-2.01,1.25-2.6,3.92-6.98,9.89-11.67-4.15,5.08-6.03,9.72-6.96,12.77-1.36,4.45-1.63,8.65-2.24,16.69-.19,2.47-.31,4.86-.38,7.15.97-2.2,1.7-3.69,2.03-4.36,4.58-9.18,5.67-10.36,6.55-10.95,1.13-.75,3.81-2.11,8.84-.94Z"/>
    <path class="cls-5" d="m1309.5,478.8c-9.71,7.51-13.62,15.35-15.41,20.97-3.81,11.91-2.55,27.77-4.5,27.89-.15,0-.26-.07-.38-.19.45,1.59.55,2.69.16,3.04-.82.71-3.18-2.34-5.34-1.12-1.01.57-1.03,1.54-1.52,1.61-1.97.29-3.16-16.19-8.4-26.59-7-13.9-15.47-21.06-18.92-23.7,5.11.79,8.78,3.57,10.72,5.31,3.25,2.91,5.28,6.17,9.28,12.53.49.77,1.57,2.52,3.05,5.12-.49-2.92-1.07-5.94-1.73-9.06-1.66-7.76-3.59-14.72-5.56-20.83-1.29-4-2.6-7.64-3.85-10.89,1.77,1.77,4.31,4.6,6.89,8.81.49.8.94,1.58,1.36,2.37,2.5,4.58,4.05,9.02,5.81,14.05.36,1.01,1.15,3.31,2.15,6.69.65-4.98,1.29-8.36,1.54-9.68,1.03-5.32,1.93-10,3.73-15.01.12-.33.55-1.53,1-2.61,1.41-3.37,4.4-9.05,11.12-15.13-4.66,6.58-6.78,12.61-7.83,16.56-1.53,5.78-1.83,11.22-2.52,21.65-.21,3.2-.35,6.3-.42,9.27,1.09-2.85,1.91-4.79,2.28-5.65,5.15-11.91,6.37-13.44,7.36-14.2,1.27-.97,4.29-2.74,9.94-1.22Z"/>
    <path class="cls-2" d="m459.5,495.8c-8.81,7.51-12.36,15.35-13.99,20.97-3.45,11.91-2.31,27.77-4.09,27.89-.13,0-.23-.07-.35-.19.41,1.59.5,2.69.14,3.04-.74.71-2.89-2.34-4.85-1.12-.92.57-.94,1.54-1.38,1.61-1.79.29-2.87-16.19-7.63-26.59-6.36-13.9-14.04-21.06-17.18-23.7,4.64.79,7.97,3.57,9.73,5.31,2.95,2.91,4.79,6.17,8.42,12.53.44.77,1.43,2.52,2.77,5.12-.45-2.92-.97-5.94-1.57-9.06-1.5-7.76-3.26-14.72-5.05-20.83-1.17-4-2.36-7.64-3.49-10.89,1.61,1.77,3.91,4.6,6.25,8.81.44.8.85,1.58,1.24,2.37,2.27,4.58,3.67,9.02,5.28,14.05.33,1.01,1.05,3.31,1.95,6.69.59-4.98,1.17-8.36,1.4-9.68.93-5.32,1.75-10,3.39-15.01.11-.33.5-1.53.91-2.61,1.28-3.37,4-9.05,10.1-15.13-4.23,6.58-6.15,12.61-7.11,16.56-1.39,5.78-1.66,11.22-2.29,21.65-.19,3.2-.32,6.3-.38,9.27.99-2.85,1.73-4.79,2.07-5.65,4.68-11.91,5.78-13.44,6.69-14.2,1.15-.97,3.89-2.74,9.02-1.22Z"/>
    <path class="cls-4" d="m438.6,924.2c50.08-4.55,100.17-9.1,150.25-13.65,4.7,15.75,8.36,38.49-3.49,58.03-9.34,15.4-21.39,17.39-43.07,35.19-30.18,24.77-29.7,39.67-48.53,56.22-8.31,7.3-32.02,25.16-107.01,25.15-16.69,0-224-.03-245.68-82.65-8.33-31.76,12.35-69.64,18.61-81.1,12.19-22.33,26.87-36.02,42.07-50.19,27.08-25.25,46.4-43.27,76.39-49.34,16.76-3.39,24.94-.64,57.53-6.64,16.74-3.08,27.61-6.2,33.55-7.7,39.69-10.01,110.2-10.86,166.35,24.25,9.8,6.13,24.06,16.41,38.47,32.84-45.15,19.87-90.3,39.73-135.45,59.6Z"/>
    <path class="cls-7" d="m765,360.5c-16.53,10.8-23.19,22.09-26.24,30.17-6.48,17.14-4.34,39.95-7.67,40.12-.25.01-.44-.1-.65-.28.77,2.29.94,3.87.27,4.37-1.39,1.02-5.42-3.37-9.1-1.61-1.72.82-1.76,2.22-2.59,2.32-3.36.42-5.38-23.29-14.31-38.25-11.92-19.99-26.34-30.3-32.22-34.09,8.7,1.14,14.95,5.14,18.25,7.64,5.53,4.19,8.99,8.88,15.8,18.03.83,1.11,2.68,3.63,5.19,7.36-.84-4.2-1.82-8.55-2.95-13.03-2.82-11.16-6.11-21.18-9.47-29.97-2.2-5.76-4.42-10.99-6.55-15.66,3.02,2.54,7.34,6.62,11.73,12.68.83,1.15,1.6,2.28,2.32,3.41,4.25,6.59,6.89,12.97,9.9,20.21.61,1.45,1.96,4.76,3.66,9.62,1.1-7.16,2.19-12.03,2.62-13.93,1.75-7.65,3.28-14.38,6.36-21.59.2-.47.94-2.2,1.71-3.75,2.4-4.85,7.5-13.02,18.94-21.77-7.94,9.47-11.54,18.14-13.33,23.83-2.61,8.31-3.12,16.14-4.29,31.14-.36,4.61-.6,9.06-.72,13.34,1.85-4.1,3.25-6.89,3.88-8.13,8.77-17.13,10.85-19.33,12.54-20.43,2.16-1.4,7.3-3.94,16.92-1.75Z"/>
    <path class="cls-6" d="m1073.49,242.95c-41.41,11.15-80.75,24.73-115.69,39.55-32.38,13.74-60.99,28.53-83.99,43.43-1.23-.93-2.46-1.86-3.71-2.78-.47-.35-.95-.7-1.43-1.05-2.07-1.52-4.17-3.04-6.3-4.54-1.54-1.09-3.1-2.17-4.67-3.25-1.36-.94-2.73-1.87-4.11-2.79-.31-.21-.62-.42-.93-.63-1.09-.73-2.19-1.46-3.29-2.18-1.42-.93-2.86-1.86-4.3-2.79-1.42-.91-2.84-1.81-4.28-2.71-1.4-.88-2.81-1.76-4.23-2.63-1.59-.97-3.18-1.94-4.79-2.9-1.4-.84-2.8-1.67-4.21-2.49-6.35-3.73-12.83-7.35-19.42-10.86-1.08-.58-2.16-1.15-3.25-1.72-.07-.04-.13-.07-.2-.11-.54-.29-1.09-.57-1.64-.85-.96-.51-1.93-1.01-2.9-1.5-1.02-.53-2.04-1.05-3.07-1.57-1.25-.63-2.5-1.26-3.76-1.88-10.18-5.06-20.55-9.85-31.05-14.34-1.31-.57-2.63-1.13-3.94-1.67-1.31-.56-2.62-1.1-3.94-1.64-4-1.65-8.01-3.24-12.02-4.79-1.29-.51-2.57-1-3.86-1.48-11.3-4.29-22.66-8.2-33.98-11.71-1.08-.34-2.15-.67-3.23-.99-3.23-.98-6.45-1.93-9.67-2.84-1.07-.31-2.15-.61-3.22-.9-1.07-.3-2.14-.6-3.21-.88-2.14-.58-4.27-1.14-6.4-1.69,40.51-32.64,111.45-54.27,192.2-54.27,88.1,0,164.53,25.75,202.49,63.45Z"/>
    <path class="cls-8" d="m1975-36.5v450h-32.31c-69.63-96.28-179.87-123.16-216.69-130-41.15-7.64-55.91-2.56-122-10.83-2.9-.36-5.9-.75-9-1.17-7.52-1.01-14.85-2.07-22-3.19-85.81-13.33-144.9-33.15-168-39.81-96.05-27.67-221.15-15.28-331.51,14.45-37.96-37.7-114.39-63.45-202.49-63.45-80.75,0-151.69,21.63-192.2,54.27-13.15-3.38-26.14-6.15-38.8-8.27-69.81-11.67-135.29-4.21-162-1-107.11,12.86-135.29,43.63-196.02,58-11.03,2.61-23.13,4.68-36.98,6-32.83,3.14-61.59.03-87.55-6-68.2-15.82-117.18-51.76-170.45-47.52V-13.5h1586v-23h402Z"/>
    <path class="cls-1" d="m766.1,113.01c-.61,9.66-21.06,16.23-45.67,14.68-12.17-.77-23.08-3.38-30.93-7-10.52,9.3-34.99,15.81-63.5,15.81-17.57,0-33.59-2.47-45.77-6.55-8.85,3.51-19.4,5.55-30.73,5.55-22.9,0-42.62-8.32-51.49-20.29-22.53-3.97-39.01-16.66-39.01-31.71,0-18.23,24.18-33,54-33,9.35,0,18.14,1.45,25.81,4,10.03-9.62,27.64-16,47.69-16s38.69,6.76,48.56,16.85c6.46-3.09,13.95-4.85,21.94-4.85,15.75,0,29.57,6.87,37.34,17.19,3.05-.78,6.29-1.19,9.66-1.19,17.67,0,32,11.42,32,25.5,0,.79-.04,1.56-.14,2.33,18,3.36,30.74,10.83,30.24,18.68Z"/>
    <path class="cls-13" d="m1329,108c0,11.32-22.39,20.5-50,20.5-12.56,0-24.05-1.91-32.84-5.04-10.36,7.44-25.8,12.16-43.05,12.16-11.33,0-21.88-2.04-30.73-5.55-12.18,4.08-28.2,6.55-45.77,6.55-28.51,0-52.98-6.51-63.5-15.81-7.85,3.62-18.76,6.23-30.93,7-24.61,1.55-45.06-5.02-45.67-14.68-.5-7.85,12.24-15.32,30.24-18.68-.1-.77-.14-1.54-.14-2.33,0-14.08,14.33-25.5,32-25.5,3.37,0,6.61.41,9.66,1.19,7.77-10.32,21.59-17.19,37.34-17.19,7.99,0,15.48,1.76,21.94,4.85,9.87-10.09,27.92-16.85,48.56-16.85s37.66,6.38,47.69,16c7.67-2.55,16.46-4,25.81-4,29.82,0,54,14.77,54,33,0,1.6-.19,3.17-.55,4.71,20.77,2.48,35.94,10.35,35.94,19.67Z"/>
    <path class="cls-4" d="m258.71,580.01c-13.94,10.38-19.18,20.67-21.42,27.93-4.77,15.42-1.67,35.36-4.58,35.69-.22.02-.39-.06-.59-.21.8,1.97,1.03,3.35.47,3.83-1.17.97-4.94-2.67-8.08-.93-1.47.81-1.43,2.05-2.15,2.18-2.93.55-5.98-20.19-14.62-32.86-11.54-16.94-24.76-25.23-30.13-28.24,7.7.54,13.41,3.72,16.44,5.74,5.08,3.39,8.37,7.33,14.85,15,.79.93,2.55,3.05,4.95,6.19-.96-3.65-2.06-7.42-3.29-11.3-3.08-9.66-6.5-18.29-9.93-25.84-2.24-4.95-4.47-9.43-6.59-13.42,2.79,2.07,6.8,5.43,10.98,10.52.79.97,1.53,1.92,2.22,2.87,4.09,5.57,6.75,11.03,9.78,17.24.61,1.24,1.98,4.08,3.73,8.26.58-6.35,1.28-10.69,1.55-12.39,1.13-6.82,2.11-12.82,4.43-19.32.15-.42.71-1.98,1.3-3.39,1.85-4.39,5.89-11.85,15.46-20.16-6.46,8.75-9.16,16.57-10.43,21.67-1.85,7.45-1.87,14.36-2.09,27.61-.07,4.07-.04,8,.08,11.77,1.4-3.7,2.48-6.23,2.97-7.36,6.78-15.53,8.49-17.58,9.92-18.64,1.82-1.35,6.2-3.86,14.77-2.45Z"/>
    <path class="cls-4" d="m1653.99,538.53c-15.84,11.79-21.8,23.46-24.35,31.71-5.42,17.5-1.9,40.14-5.21,40.51-.25.03-.45-.07-.67-.24.91,2.24,1.17,3.81.54,4.35-1.33,1.1-5.62-3.03-9.18-1.05-1.67.92-1.62,2.32-2.44,2.47-3.33.62-6.79-22.92-16.62-37.31-13.12-19.23-28.14-28.64-34.24-32.06,8.75.61,15.24,4.22,18.68,6.51,5.78,3.84,9.51,8.32,16.87,17.03.9,1.06,2.9,3.46,5.63,7.03-1.09-4.14-2.34-8.42-3.74-12.83-3.5-10.97-7.39-20.77-11.28-29.34-2.55-5.62-5.08-10.7-7.49-15.23,3.17,2.35,7.73,6.16,12.48,11.94.9,1.1,1.74,2.18,2.52,3.26,4.64,6.32,7.67,12.53,11.11,19.57.7,1.41,2.25,4.63,4.24,9.38.66-7.21,1.45-12.14,1.77-14.06,1.28-7.74,2.4-14.55,5.03-21.94.17-.48.8-2.25,1.48-3.85,2.1-4.99,6.69-13.45,17.58-22.88-7.35,9.94-10.41,18.81-11.85,24.6-2.1,8.45-2.13,16.3-2.38,31.34-.08,4.62-.05,9.08.09,13.36,1.6-4.21,2.82-7.08,3.38-8.35,7.71-17.63,9.65-19.96,11.27-21.16,2.07-1.53,7.05-4.38,16.78-2.78Z"/>
    <path class="cls-11" d="m1713.13,586.31c-16.53,10.8-23.19,22.09-26.24,30.17-6.48,17.14-4.34,39.95-7.67,40.12-.25.01-.44-.1-.65-.28.77,2.29.94,3.87.27,4.37-1.39,1.02-5.42-3.37-9.1-1.61-1.72.82-1.76,2.22-2.59,2.32-3.36.42-5.38-23.29-14.31-38.25-11.92-19.99-26.34-30.3-32.22-34.09,8.7,1.14,14.95,5.14,18.25,7.64,5.53,4.19,8.99,8.88,15.8,18.03.83,1.11,2.68,3.63,5.19,7.36-.84-4.2-1.82-8.55-2.95-13.03-2.82-11.16-6.11-21.18-9.47-29.97-2.2-5.76-4.42-10.99-6.55-15.66,3.02,2.54,7.34,6.62,11.73,12.68.83,1.15,1.6,2.28,2.32,3.41,4.25,6.59,6.89,12.97,9.9,20.21.61,1.45,1.96,4.76,3.66,9.62,1.1-7.16,2.19-12.03,2.62-13.93,1.75-7.65,3.28-14.38,6.36-21.59.2-.47.94-2.2,1.71-3.75,2.4-4.85,7.5-13.02,18.94-21.77-7.94,9.47-11.54,18.14-13.33,23.83-2.61,8.31-3.12,16.14-4.29,31.14-.36,4.61-.6,9.06-.72,13.34,1.85-4.1,3.25-6.89,3.88-8.13,8.77-17.13,10.85-19.33,12.54-20.43,2.16-1.4,7.3-3.94,16.92-1.75Z"/>
    <path class="cls-11" d="m177.13,643.31c-16.53,10.8-23.19,22.09-26.24,30.17-6.48,17.14-4.34,39.95-7.67,40.12-.25.01-.44-.1-.65-.28.77,2.29.94,3.87.27,4.37-1.39,1.02-5.42-3.37-9.1-1.61-1.72.82-1.76,2.22-2.59,2.32-3.36.42-5.38-23.29-14.31-38.25-11.92-19.99-26.34-30.3-32.22-34.09,8.7,1.14,14.95,5.14,18.25,7.64,5.53,4.19,8.99,8.88,15.8,18.03.83,1.11,2.68,3.63,5.19,7.36-.84-4.2-1.82-8.55-2.95-13.03-2.82-11.16-6.11-21.18-9.47-29.97-2.2-5.76-4.42-10.99-6.55-15.66,3.02,2.54,7.34,6.62,11.73,12.68.83,1.15,1.6,2.28,2.32,3.41,4.25,6.59,6.89,12.97,9.9,20.21.61,1.45,1.96,4.76,3.66,9.62,1.1-7.16,2.19-12.03,2.62-13.93,1.75-7.65,3.28-14.38,6.36-21.59.2-.47.94-2.2,1.71-3.75,2.4-4.85,7.5-13.02,18.94-21.77-7.94,9.47-11.54,18.14-13.33,23.83-2.61,8.31-3.12,16.14-4.29,31.14-.36,4.61-.6,9.06-.72,13.34,1.85-4.1,3.25-6.89,3.88-8.13,8.77-17.13,10.85-19.33,12.54-20.43,2.16-1.4,7.3-3.94,16.92-1.75Z"/>
    <path class="cls-2" d="m130.45,694.21c-8.81,7.51-12.36,15.35-13.99,20.97-3.45,11.91-2.31,27.77-4.09,27.89-.13,0-.23-.07-.35-.19.41,1.59.5,2.69.14,3.04-.74.71-2.89-2.34-4.85-1.12-.92.57-.94,1.54-1.38,1.61-1.79.29-2.87-16.19-7.63-26.59-6.36-13.9-14.04-21.06-17.18-23.7,4.64.79,7.97,3.57,9.73,5.31,2.95,2.91,4.79,6.17,8.42,12.53.44.77,1.43,2.52,2.77,5.12-.45-2.92-.97-5.94-1.57-9.06-1.5-7.76-3.26-14.72-5.05-20.83-1.17-4-2.36-7.64-3.49-10.89,1.61,1.77,3.91,4.6,6.25,8.81.44.8.85,1.58,1.24,2.37,2.27,4.58,3.67,9.02,5.28,14.05.33,1.01,1.05,3.31,1.95,6.69.59-4.98,1.17-8.36,1.4-9.68.93-5.32,1.75-10,3.39-15.01.11-.33.5-1.53.91-2.61,1.28-3.37,4-9.05,10.1-15.13-4.23,6.58-6.15,12.61-7.11,16.56-1.39,5.78-1.66,11.22-2.29,21.65-.19,3.2-.32,6.3-.38,9.27.99-2.85,1.73-4.79,2.07-5.65,4.68-11.91,5.78-13.44,6.69-14.2,1.15-.97,3.89-2.74,9.02-1.22Z"/>
    <path class="cls-2" d="m1745.45,585.21c-8.81,7.51-12.36,15.35-13.99,20.97-3.45,11.91-2.31,27.77-4.09,27.89-.13,0-.23-.07-.35-.19.41,1.59.5,2.69.14,3.04-.74.71-2.89-2.34-4.85-1.12-.92.57-.94,1.54-1.38,1.61-1.79.29-2.87-16.19-7.63-26.59-6.36-13.9-14.04-21.06-17.18-23.7,4.64.79,7.97,3.57,9.73,5.31,2.95,2.91,4.79,6.17,8.42,12.53.44.77,1.43,2.52,2.77,5.12-.45-2.92-.97-5.94-1.57-9.06-1.5-7.76-3.26-14.72-5.05-20.83-1.17-4-2.36-7.64-3.49-10.89,1.61,1.77,3.91,4.6,6.25,8.81.44.8.85,1.58,1.24,2.37,2.27,4.58,3.67,9.02,5.28,14.05.33,1.01,1.05,3.31,1.95,6.69.59-4.98,1.17-8.36,1.4-9.68.93-5.32,1.75-10,3.39-15.01.11-.33.5-1.53.91-2.61,1.28-3.37,4-9.05,10.1-15.13-4.23,6.58-6.15,12.61-7.11,16.56-1.39,5.78-1.66,11.22-2.29,21.65-.19,3.2-.32,6.3-.38,9.27.99-2.85,1.73-4.79,2.07-5.65,4.68-11.91,5.78-13.44,6.69-14.2,1.15-.97,3.89-2.74,9.02-1.22Z"/>
    <path class="cls-2" d="m1135.45,364.21c-8.81,7.51-12.36,15.35-13.99,20.97-3.45,11.91-2.31,27.77-4.09,27.89-.13,0-.23-.07-.35-.19.41,1.59.5,2.69.14,3.04-.74.71-2.89-2.34-4.85-1.12-.92.57-.94,1.54-1.38,1.61-1.79.29-2.87-16.19-7.63-26.59-6.36-13.9-14.04-21.06-17.18-23.7,4.64.79,7.97,3.57,9.73,5.31,2.95,2.91,4.79,6.17,8.42,12.53.44.77,1.43,2.52,2.77,5.12-.45-2.92-.97-5.94-1.57-9.06-1.5-7.76-3.26-14.72-5.05-20.83-1.17-4-2.36-7.64-3.49-10.89,1.61,1.77,3.91,4.6,6.25,8.81.44.8.85,1.58,1.24,2.37,2.27,4.58,3.67,9.02,5.28,14.05.33,1.01,1.05,3.31,1.95,6.69.59-4.98,1.17-8.36,1.4-9.68.93-5.32,1.75-10,3.39-15.01.11-.33.5-1.53.91-2.61,1.28-3.37,4-9.05,10.1-15.13-4.23,6.58-6.15,12.61-7.11,16.56-1.39,5.78-1.66,11.22-2.29,21.65-.19,3.2-.32,6.3-.38,9.27.99-2.85,1.73-4.79,2.07-5.65,4.68-11.91,5.78-13.44,6.69-14.2,1.15-.97,3.89-2.74,9.02-1.22Z"/>
    <path class="cls-11" d="m1204.4,385.66c-18.3,7.41-27.02,17.2-31.57,24.54-9.66,15.57-11.96,38.36-15.26,37.89-.25-.04-.41-.18-.58-.4.31,2.4.18,3.98-.58,4.34-1.56.73-4.67-4.35-8.62-3.34-1.85.47-2.16,1.84-2.99,1.78-3.38-.24-.79-23.89-6.66-40.29-7.84-21.91-20-34.81-25.04-39.66,8.32,2.8,13.68,7.93,16.43,11.02,4.62,5.18,7.11,10.45,12.03,20.74.6,1.25,1.93,4.08,3.67,8.22-.01-4.28-.14-8.74-.38-13.35-.61-11.49-1.91-21.96-3.51-31.23-1.05-6.08-2.22-11.64-3.41-16.63,2.47,3.07,5.93,7.91,9.06,14.7.59,1.29,1.13,2.55,1.62,3.79,2.9,7.29,4.26,14.06,5.82,21.74.32,1.54,1.01,5.05,1.74,10.15,2.46-6.81,4.47-11.38,5.26-13.16,3.19-7.17,5.99-13.48,10.41-19.96.29-.42,1.35-1.98,2.4-3.35,3.29-4.3,9.87-11.33,22.78-17.71-9.62,7.76-14.82,15.57-17.68,20.81-4.16,7.65-6.17,15.23-10.22,29.73-1.24,4.45-2.34,8.77-3.28,12.95,2.61-3.67,4.52-6.13,5.38-7.23,11.91-15.12,14.37-16.87,16.25-17.63,2.39-.96,7.92-2.46,16.94,1.55Z"/>
    <path class="cls-11" d="m1108.69,347.39c-16.53,10.8-23.19,22.09-26.24,30.17-6.48,17.14-4.34,39.95-7.67,40.12-.25.01-.44-.1-.65-.28.77,2.29.94,3.87.27,4.37-1.39,1.02-5.42-3.37-9.1-1.61-1.72.82-1.76,2.22-2.59,2.32-3.36.42-5.38-23.29-14.31-38.25-11.92-19.99-26.34-30.3-32.22-34.09,8.7,1.14,14.95,5.14,18.25,7.64,5.53,4.19,8.99,8.88,15.8,18.03.83,1.11,2.68,3.63,5.19,7.36-.84-4.2-1.82-8.55-2.95-13.03-2.82-11.16-6.11-21.18-9.47-29.97-2.2-5.76-4.42-10.99-6.55-15.66,3.02,2.54,7.34,6.62,11.73,12.68.83,1.15,1.6,2.28,2.32,3.41,4.25,6.59,6.89,12.97,9.9,20.21.61,1.45,1.96,4.76,3.66,9.62,1.1-7.16,2.19-12.03,2.62-13.93,1.75-7.65,3.28-14.38,6.36-21.59.2-.47.94-2.2,1.71-3.75,2.4-4.85,7.5-13.02,18.94-21.77-7.94,9.47-11.54,18.14-13.33,23.83-2.61,8.31-3.12,16.14-4.29,31.14-.36,4.61-.6,9.06-.72,13.34,1.85-4.1,3.25-6.89,3.88-8.13,8.77-17.13,10.85-19.33,12.54-20.43,2.16-1.4,7.3-3.94,16.92-1.75Z"/>
    <path class="cls-11" d="m1813.13,663.31c-16.53,10.8-23.19,22.09-26.24,30.17-6.48,17.14-4.34,39.95-7.67,40.12-.25.01-.44-.1-.65-.28.77,2.29.94,3.87.27,4.37-1.39,1.02-5.42-3.37-9.1-1.61-1.72.82-1.76,2.22-2.59,2.32-3.36.42-5.38-23.29-14.31-38.25-11.92-19.99-26.34-30.3-32.22-34.09,8.7,1.14,14.95,5.14,18.25,7.64,5.53,4.19,8.99,8.88,15.8,18.03.83,1.11,2.68,3.63,5.19,7.36-.84-4.2-1.82-8.55-2.95-13.03-2.82-11.16-6.11-21.18-9.47-29.97-2.2-5.76-4.42-10.99-6.55-15.66,3.02,2.54,7.34,6.62,11.73,12.68.83,1.15,1.6,2.28,2.32,3.41,4.25,6.59,6.89,12.97,9.9,20.21.61,1.45,1.96,4.76,3.66,9.62,1.1-7.16,2.19-12.03,2.62-13.93,1.75-7.65,3.28-14.38,6.36-21.59.2-.47.94-2.2,1.71-3.75,2.4-4.85,7.5-13.02,18.94-21.77-7.94,9.47-11.54,18.14-13.33,23.83-2.61,8.31-3.12,16.14-4.29,31.14-.36,4.61-.6,9.06-.72,13.34,1.85-4.1,3.25-6.89,3.88-8.13,8.77-17.13,10.85-19.33,12.54-20.43,2.16-1.4,7.3-3.94,16.92-1.75Z"/>
    <path class="cls-11" d="m969.13,1017.31c-16.53,10.8-23.19,22.09-26.24,30.17-6.48,17.14-4.34,39.95-7.67,40.12-.25.01-.44-.1-.65-.28.77,2.29.94,3.87.27,4.37-1.39,1.02-5.42-3.37-9.1-1.61-1.72.82-1.76,2.22-2.59,2.32-3.36.42-5.38-23.29-14.31-38.25-11.92-19.99-26.34-30.3-32.22-34.09,8.7,1.14,14.95,5.14,18.25,7.64,5.53,4.19,8.99,8.88,15.8,18.03.83,1.11,2.68,3.63,5.19,7.36-.84-4.2-1.82-8.55-2.95-13.03-2.82-11.16-6.11-21.18-9.47-29.97-2.2-5.76-4.42-10.99-6.55-15.66,3.02,2.54,7.34,6.62,11.73,12.68.83,1.15,1.6,2.28,2.32,3.41,4.25,6.59,6.89,12.97,9.9,20.21.61,1.45,1.96,4.76,3.66,9.62,1.1-7.16,2.19-12.03,2.62-13.93,1.75-7.65,3.28-14.38,6.36-21.59.2-.47.94-2.2,1.71-3.75,2.4-4.85,7.5-13.02,18.94-21.77-7.94,9.47-11.54,18.14-13.33,23.83-2.61,8.31-3.12,16.14-4.29,31.14-.36,4.61-.6,9.06-.72,13.34,1.85-4.1,3.25-6.89,3.88-8.13,8.77-17.13,10.85-19.33,12.54-20.43,2.16-1.4,7.3-3.94,16.92-1.75Z"/>
    <path class="cls-5" d="m620.38,1040.38c-9.71,7.51-13.62,15.35-15.41,20.97-3.81,11.91-2.55,27.77-4.5,27.89-.15,0-.26-.07-.38-.19.45,1.59.55,2.69.16,3.04-.82.71-3.18-2.34-5.34-1.12-1.01.57-1.03,1.54-1.52,1.61-1.97.29-3.16-16.19-8.4-26.59-7-13.9-15.47-21.06-18.92-23.7,5.11.79,8.78,3.57,10.72,5.31,3.25,2.91,5.28,6.17,9.28,12.53.49.77,1.57,2.52,3.05,5.12-.49-2.92-1.07-5.94-1.73-9.06-1.66-7.76-3.59-14.72-5.56-20.83-1.29-4-2.6-7.64-3.85-10.89,1.77,1.77,4.31,4.6,6.89,8.81.49.8.94,1.58,1.36,2.37,2.5,4.58,4.05,9.02,5.81,14.05.36,1.01,1.15,3.31,2.15,6.69.65-4.98,1.29-8.36,1.54-9.68,1.03-5.32,1.93-10,3.73-15.01.12-.33.55-1.53,1-2.61,1.41-3.37,4.4-9.05,11.12-15.13-4.66,6.58-6.78,12.61-7.83,16.56-1.53,5.78-1.83,11.22-2.52,21.65-.21,3.2-.35,6.3-.42,9.27,1.09-2.85,1.91-4.79,2.28-5.65,5.15-11.91,6.37-13.44,7.36-14.2,1.27-.97,4.29-2.74,9.94-1.22Z"/>
    <path class="cls-11" d="m598.13,1017.31c-16.53,10.8-23.19,22.09-26.24,30.17-6.48,17.14-4.34,39.95-7.67,40.12-.25.01-.44-.1-.65-.28.77,2.29.94,3.87.27,4.37-1.39,1.02-5.42-3.37-9.1-1.61-1.72.82-1.76,2.22-2.59,2.32-3.36.42-5.38-23.29-14.31-38.25-11.92-19.99-26.34-30.3-32.22-34.09,8.7,1.14,14.95,5.14,18.25,7.64,5.53,4.19,8.99,8.88,15.8,18.03.83,1.11,2.68,3.63,5.19,7.36-.84-4.2-1.82-8.55-2.95-13.03-2.82-11.16-6.11-21.18-9.47-29.97-2.2-5.76-4.42-10.99-6.55-15.66,3.02,2.54,7.34,6.62,11.73,12.68.83,1.15,1.6,2.28,2.32,3.41,4.25,6.59,6.89,12.97,9.9,20.21.61,1.45,1.96,4.76,3.66,9.62,1.1-7.16,2.19-12.03,2.62-13.93,1.75-7.65,3.28-14.38,6.36-21.59.2-.47.94-2.2,1.71-3.75,2.4-4.85,7.5-13.02,18.94-21.77-7.94,9.47-11.54,18.14-13.33,23.83-2.61,8.31-3.12,16.14-4.29,31.14-.36,4.61-.6,9.06-.72,13.34,1.85-4.1,3.25-6.89,3.88-8.13,8.77-17.13,10.85-19.33,12.54-20.43,2.16-1.4,7.3-3.94,16.92-1.75Z"/>
    <path class="cls-5" d="m792.38,1040.38c-9.71,7.51-13.62,15.35-15.41,20.97-3.81,11.91-2.55,27.77-4.5,27.89-.15,0-.26-.07-.38-.19.45,1.59.55,2.69.16,3.04-.82.71-3.18-2.34-5.34-1.12-1.01.57-1.03,1.54-1.52,1.61-1.97.29-3.16-16.19-8.4-26.59-7-13.9-15.47-21.06-18.92-23.7,5.11.79,8.78,3.57,10.72,5.31,3.25,2.91,5.28,6.17,9.28,12.53.49.77,1.57,2.52,3.05,5.12-.49-2.92-1.07-5.94-1.73-9.06-1.66-7.76-3.59-14.72-5.56-20.83-1.29-4-2.6-7.64-3.85-10.89,1.77,1.77,4.31,4.6,6.89,8.81.49.8.94,1.58,1.36,2.37,2.5,4.58,4.05,9.02,5.81,14.05.36,1.01,1.15,3.31,2.15,6.69.65-4.98,1.29-8.36,1.54-9.68,1.03-5.32,1.93-10,3.73-15.01.12-.33.55-1.53,1-2.61,1.41-3.37,4.4-9.05,11.12-15.13-4.66,6.58-6.78,12.61-7.83,16.56-1.53,5.78-1.83,11.22-2.52,21.65-.21,3.2-.35,6.3-.42,9.27,1.09-2.85,1.91-4.79,2.28-5.65,5.15-11.91,6.37-13.44,7.36-14.2,1.27-.97,4.29-2.74,9.94-1.22Z"/>
    <path class="cls-5" d="m1162.38,1040.38c-9.71,7.51-13.62,15.35-15.41,20.97-3.81,11.91-2.55,27.77-4.5,27.89-.15,0-.26-.07-.38-.19.45,1.59.55,2.69.16,3.04-.82.71-3.18-2.34-5.34-1.12-1.01.57-1.03,1.54-1.52,1.61-1.97.29-3.16-16.19-8.4-26.59-7-13.9-15.47-21.06-18.92-23.7,5.11.79,8.78,3.57,10.72,5.31,3.25,2.91,5.28,6.17,9.28,12.53.49.77,1.57,2.52,3.05,5.12-.49-2.92-1.07-5.94-1.73-9.06-1.66-7.76-3.59-14.72-5.56-20.83-1.29-4-2.6-7.64-3.85-10.89,1.77,1.77,4.31,4.6,6.89,8.81.49.8.94,1.58,1.36,2.37,2.5,4.58,4.05,9.02,5.81,14.05.36,1.01,1.15,3.31,2.15,6.69.65-4.98,1.29-8.36,1.54-9.68,1.03-5.32,1.93-10,3.73-15.01.12-.33.55-1.53,1-2.61,1.41-3.37,4.4-9.05,11.12-15.13-4.66,6.58-6.78,12.61-7.83,16.56-1.53,5.78-1.83,11.22-2.52,21.65-.21,3.2-.35,6.3-.42,9.27,1.09-2.85,1.91-4.79,2.28-5.65,5.15-11.91,6.37-13.44,7.36-14.2,1.27-.97,4.29-2.74,9.94-1.22Z"/>
    <path class="cls-5" d="m1309.38,1040.38c-9.71,7.51-13.62,15.35-15.41,20.97-3.81,11.91-2.55,27.77-4.5,27.89-.15,0-.26-.07-.38-.19.45,1.59.55,2.69.16,3.04-.82.71-3.18-2.34-5.34-1.12-1.01.57-1.03,1.54-1.52,1.61-1.97.29-3.16-16.19-8.4-26.59-7-13.9-15.47-21.06-18.92-23.7,5.11.79,8.78,3.57,10.72,5.31,3.25,2.91,5.28,6.17,9.28,12.53.49.77,1.57,2.52,3.05,5.12-.49-2.92-1.07-5.94-1.73-9.06-1.66-7.76-3.59-14.72-5.56-20.83-1.29-4-2.6-7.64-3.85-10.89,1.77,1.77,4.31,4.6,6.89,8.81.49.8.94,1.58,1.36,2.37,2.5,4.58,4.05,9.02,5.81,14.05.36,1.01,1.15,3.31,2.15,6.69.65-4.98,1.29-8.36,1.54-9.68,1.03-5.32,1.93-10,3.73-15.01.12-.33.55-1.53,1-2.61,1.41-3.37,4.4-9.05,11.12-15.13-4.66,6.58-6.78,12.61-7.83,16.56-1.53,5.78-1.83,11.22-2.52,21.65-.21,3.2-.35,6.3-.42,9.27,1.09-2.85,1.91-4.79,2.28-5.65,5.15-11.91,6.37-13.44,7.36-14.2,1.27-.97,4.29-2.74,9.94-1.22Z"/>
    <path class="cls-5" d="m1602.38,1033.38c-9.71,7.51-13.62,15.35-15.41,20.97-3.81,11.91-2.55,27.77-4.5,27.89-.15,0-.26-.07-.38-.19.45,1.59.55,2.69.16,3.04-.82.71-3.18-2.34-5.34-1.12-1.01.57-1.03,1.54-1.52,1.61-1.97.29-3.16-16.19-8.4-26.59-7-13.9-15.47-21.06-18.92-23.7,5.11.79,8.78,3.57,10.72,5.31,3.25,2.91,5.28,6.17,9.28,12.53.49.77,1.57,2.52,3.05,5.12-.49-2.92-1.07-5.94-1.73-9.06-1.66-7.76-3.59-14.72-5.56-20.83-1.29-4-2.6-7.64-3.85-10.89,1.77,1.77,4.31,4.6,6.89,8.81.49.8.94,1.58,1.36,2.37,2.5,4.58,4.05,9.02,5.81,14.05.36,1.01,1.15,3.31,2.15,6.69.65-4.98,1.29-8.36,1.54-9.68,1.03-5.32,1.93-10,3.73-15.01.12-.33.55-1.53,1-2.61,1.41-3.37,4.4-9.05,11.12-15.13-4.66,6.58-6.78,12.61-7.83,16.56-1.53,5.78-1.83,11.22-2.52,21.65-.21,3.2-.35,6.3-.42,9.27,1.09-2.85,1.91-4.79,2.28-5.65,5.15-11.91,6.37-13.44,7.36-14.2,1.27-.97,4.29-2.74,9.94-1.22Z"/>
    <path class="cls-11" d="m1575.13,1017.31c-16.53,10.8-23.19,22.09-26.24,30.17-6.48,17.14-4.34,39.95-7.67,40.12-.25.01-.44-.1-.65-.28.77,2.29.94,3.87.27,4.37-1.39,1.02-5.42-3.37-9.1-1.61-1.72.82-1.76,2.22-2.59,2.32-3.36.42-5.38-23.29-14.31-38.25-11.92-19.99-26.34-30.3-32.22-34.09,8.7,1.14,14.95,5.14,18.25,7.64,5.53,4.19,8.99,8.88,15.8,18.03.83,1.11,2.68,3.63,5.19,7.36-.84-4.2-1.82-8.55-2.95-13.03-2.82-11.16-6.11-21.18-9.47-29.97-2.2-5.76-4.42-10.99-6.55-15.66,3.02,2.54,7.34,6.62,11.73,12.68.83,1.15,1.6,2.28,2.32,3.41,4.25,6.59,6.89,12.97,9.9,20.21.61,1.45,1.96,4.76,3.66,9.62,1.1-7.16,2.19-12.03,2.62-13.93,1.75-7.65,3.28-14.38,6.36-21.59.2-.47.94-2.2,1.71-3.75,2.4-4.85,7.5-13.02,18.94-21.77-7.94,9.47-11.54,18.14-13.33,23.83-2.61,8.31-3.12,16.14-4.29,31.14-.36,4.61-.6,9.06-.72,13.34,1.85-4.1,3.25-6.89,3.88-8.13,8.77-17.13,10.85-19.33,12.54-20.43,2.16-1.4,7.3-3.94,16.92-1.75Z"/>
    <path class="cls-11" d="m1291.5,1005.2c-22.31,14.27-31.3,29.18-35.42,39.86-8.75,22.64-5.86,52.78-10.35,53-.34.01-.59-.13-.88-.37,1.04,3.03,1.27,5.11.36,5.77-1.88,1.35-7.32-4.45-12.28-2.13-2.32,1.08-2.38,2.93-3.5,3.06-4.54.55-7.26-30.77-19.32-50.53-16.09-26.41-35.56-40.03-43.49-45.04,11.74,1.51,20.18,6.79,24.64,10.09,7.47,5.54,12.14,11.73,21.33,23.82,1.12,1.47,3.62,4.8,7.01,9.72-1.13-5.55-2.46-11.3-3.98-17.21-3.81-14.74-8.25-27.98-12.78-39.59-2.97-7.61-5.97-14.52-8.84-20.69,4.08,3.36,9.91,8.75,15.83,16.75,1.12,1.52,2.16,3.01,3.13,4.5,5.74,8.71,9.3,17.13,13.36,26.7.82,1.92,2.65,6.29,4.94,12.71,1.48-9.46,2.96-15.89,3.54-18.4,2.36-10.11,4.43-19,8.59-28.52.27-.62,1.27-2.91,2.31-4.95,3.24-6.41,10.12-17.2,25.57-28.76-10.72,12.51-15.58,23.96-17.99,31.48-3.52,10.98-4.21,21.32-5.79,41.14-.49,6.09-.81,11.97-.97,17.62,2.5-5.42,4.39-9.1,5.24-10.74,11.84-22.63,14.65-25.54,16.93-26.99,2.92-1.85,9.85-5.21,22.84-2.31Z"/>
    <path class="cls-11" d="m776.5,1009.8c-18.56,11.88-26.04,24.3-29.47,33.19-7.28,18.85-4.87,43.95-8.61,44.13-.28.01-.49-.11-.73-.31.86,2.52,1.06,4.26.3,4.81-1.56,1.12-6.09-3.71-10.22-1.77-1.93.9-1.98,2.44-2.91,2.55-3.77.46-6.04-25.62-16.07-42.08-13.39-21.99-29.58-33.33-36.18-37.5,9.77,1.25,16.79,5.65,20.49,8.4,6.21,4.61,10.09,9.77,17.74,19.83.93,1.22,3.01,3.99,5.83,8.1-.94-4.62-2.04-9.41-3.31-14.33-3.17-12.28-6.86-23.3-10.63-32.97-2.47-6.34-4.96-12.09-7.36-17.23,3.39,2.79,8.24,7.28,13.17,13.95.93,1.27,1.8,2.51,2.61,3.75,4.77,7.25,7.74,14.27,11.12,22.23.69,1.6,2.2,5.24,4.11,10.58,1.24-7.88,2.46-13.23,2.94-15.32,1.97-8.42,3.68-15.82,7.14-23.75.22-.52,1.06-2.42,1.92-4.13,2.69-5.34,8.42-14.32,21.27-23.95-8.92,10.42-12.96,19.95-14.97,26.21-2.93,9.14-3.5,17.75-4.82,34.26-.4,5.07-.67,9.97-.81,14.67,2.08-4.51,3.65-7.58,4.36-8.94,9.85-18.84,12.18-21.26,14.08-22.47,2.43-1.54,8.2-4.33,19-1.93Z"/>
    <path class="cls-4" d="m836.61,573.6c20.62,2.46,41.25,4.92,61.87,7.38.4,7.58-.28,18.24-6.91,26.05-5.23,6.15-10.27,5.97-20.7,12.1-14.52,8.53-15.74,15.34-24.9,21.16-4.04,2.57-15.29,8.54-45.52,1.75-6.73-1.51-90.3-20.26-91.21-59.76-.35-15.18,11.59-30.52,15.2-35.17,7.03-9.04,14.25-13.94,21.72-19,13.31-9.02,22.81-15.46,35.48-15.51,7.08-.03,10.11,1.96,23.82,2.18,7.04.11,11.72-.32,14.26-.47,16.95-.96,45.46,5.03,64.76,26.06,3.37,3.67,8.14,9.63,12.39,18.4-20.09,4.94-40.17,9.89-60.26,14.83Z"/>
    <path class="cls-4" d="m1225.46,729.85c-19.31,3.71-38.63,7.43-57.94,11.14.15,7.28,1.55,17.43,8.36,24.46,5.37,5.54,10.13,5.03,20.41,10.2,3.77,1.9,6.67,3.74,9.05,5.52,8.53,6.38,14.32,11.54,15.97,13.07,12.37,11.47,41.04,9.92,57.68,6.25,7.19-1.59,27.83-6.42,45.47-24.53,7.91-8.11,24.08-24.62,21.96-46.22-1.53-15.63-11.71-26.88-16.83-32.63-7.28-8.19-14.45-12.39-21.86-16.74-13.21-7.75-22.64-13.29-34.62-12.5-6.69.44-9.42,2.54-22.36,3.66-6.64.57-11.1.46-13.5.49-16.08.2-42.6,7.81-59.36,29.19-2.92,3.73-7.02,9.75-10.41,18.42,19.33,3.4,38.65,6.81,57.98,10.21Z"/>
  </g>
</svg>