<?xml version="1.0" encoding="UTF-8"?>
<svg id="Bi_med_farve" data-name="Bi med farve" xmlns="http://www.w3.org/2000/svg" viewBox="0 0 271 222.5">
  <defs>
    <style>
      .cls-1, .cls-2, .cls-3, .cls-4, .cls-5, .cls-6, .cls-7, .cls-8, .cls-9 {
        stroke-miterlimit: 10;
      }

      .cls-1, .cls-2, .cls-7 {
        stroke: #231f20;
      }

      .cls-1, .cls-3, .cls-8 {
        fill: none;
      }

      .cls-2, .cls-5 {
        fill: #f5ff17;
      }

      .cls-3, .cls-4, .cls-9 {
        stroke: #000;
      }

      .cls-5, .cls-6, .cls-8 {
        stroke: #001300;
      }

      .cls-6 {
        fill: #fff;
      }

      .cls-7 {
        fill: #a9fffc;
      }

      .cls-9 {
        fill: #ff9c5c;
      }

      .cls-10 {
        fill: #001300;
        stroke-width: 0px;
      }
    </style>
  </defs>
  <path class="cls-5" d="m107.66,145.9c-6.64,5.65-13.42,6.64-24.42,8.22-6.37.92-16.36,2.27-29,0-.27-.05-.6-.12-.92-.16-10.29-1.87-43.72-8.61-49.46-32.7-2.06-8.64-.38-18.81,4.58-26.29,4.98-7.49,12.49-11.16,21.36-12.8-.26,1.77-.24,3.6.02,5.41,1.01,6.93,6.18,15.61,14.5,15.61s14.5-7.05,14.5-15.61c-3.11-2.17-6.26-4.32-9.37-6.49,4.58.13,9.27.43,13.95.74,10.93.71,21.95,1.51,32.01,6.28-1.01.64-2,1.3-3.01,1.94-5.08,2.19-10.18,4.39-15.27,6.57.03.62.69,11.04,7.74,14.82,7.5,3.99,16.41-2.53,20.46-8.43,1.31-1.92,2.21-3.93,2.81-5.92,2.05,1.97,4.96,4.93,7.37,8.89,2.26,3.68,4.08,8.23,4.37,13.64.78,14.9-10.69,24.99-12.21,26.29Z"/>
  <path class="cls-3" d="m71.19,178.26c-3,1.69-7.7,4.9-12.21,10.74-4.89,6.33-7.35,12.9-8.55,16.87"/>
  <path class="cls-3" d="m135.9,199.29c-1.63,1.12-4.19,3.26-6.64,7.15-2.66,4.22-3.99,8.6-4.65,11.24"/>
  <path class="cls-3" d="m67.21,85.92c.66-3.53,2-13.12-2.29-23.82-3.74-9.33-9.8-14.59-12.58-16.73"/>
  <path class="cls-3" d="m78.66,88.39c1.56-4.6,4.01-13.75,2.6-25.21-1.12-9.14-4.24-16-6.42-19.97"/>
  <path class="cls-3" d="m193.67,116.44c-.11.05-.15.08-.17.08,0,0,.06-.03.17-.08Z"/>
  <path class="cls-3" d="m196.14,115.48c-1.19.49-2.03.79-2.41.94.43-.2,1.37-.66,2.24-1.05.06.02.11.05.17.12Z"/>
  <ellipse class="cls-4" cx="45.84" cy="205.87" rx="2.46" ry="5.35" transform="translate(-164.07 226.33) rotate(-83.01)"/>
  <ellipse class="cls-4" cx="100.86" cy="214.88" rx="2.51" ry="4.11" transform="translate(-134.91 187.32) rotate(-58.19)"/>
  <ellipse class="cls-4" cx="122.06" cy="218.52" rx="4.04" ry="2.56"/>
  <ellipse class="cls-4" cx="163.88" cy="219.82" rx="4.54" ry="2.55" transform="translate(-43.8 40.8) rotate(-12.53)"/>
  <ellipse class="cls-4" cx="53.04" cy="47.97" rx="2.59" ry="4.39" transform="translate(-10.6 80.59) rotate(-69.26)"/>
  <ellipse class="cls-4" cx="73.82" cy="44.23" rx="2.42" ry="4.78" transform="translate(-12.2 41.72) rotate(-29.25)"/>
  <path class="cls-9" d="m58.82,87.57c0,8.56-6.55,15.61-14.5,15.61s-13.49-8.68-14.5-15.61c-.26-1.81-.27-3.63-.02-5.41.67-5.21,3.4-10.1,7.65-13.49,3.56,3.83,7.13,7.67,10.69,11.5.44.3.87.61,1.31.9,3.11,2.17,6.26,4.32,9.37,6.49Z"/>
  <path class="cls-9" d="m108.14,97.08c-.6,1.99-1.5,3.99-2.81,5.92-4.05,5.9-12.96,12.42-20.46,8.43-7.05-3.78-7.71-14.2-7.74-14.82,5.08-2.19,10.18-4.39,15.27-6.57,1.01-.64,2-1.3,3.01-1.94,4.09-2.65,8.18-5.27,12.26-7.92.29.84,2.95,8.74.47,16.91Z"/>
  <path class="cls-7" d="m245.05,75.24c-2.66,7.61-7.13,11.9-13.74,18.07-12.79,11.96-27.16,18.81-33.9,21.66.21-.16.32-.26.32-.3-.05-.07-.87.28-1.76.69-.76.35-1.6.76-2.08.99.43-.16,1.21-.44,2.24-.87.09.03.17.08.26.16-4.47,2.91-19.49,11.73-33.98,20.16-.09-.07-.17-.15-.26-.21l-18.01-10.15c1.77-3.76,3.51-7.28,5.22-10.55,1.36-2.63,2.69-5.09,3.97-7.39.85-1.56,1.69-3.02,2.49-4.42,1.25-2.15,2.43-4.11,3.5-5.87,2.85-4.67,5.63-8.92,8.32-12.77,2.47-3.09,4.29-5.18,5.65-7.67.09-.16.18-.35.27-.53,8.08-10.6,14.61-17.22,18.39-20.83,8.5-8.15,13.22-11.01,17.1-12.85.35-.18.99-.48,1.82-.85,3.85-1.74,18.58-8.17,27.71-2.37,9.51,6.03,10.64,23.94,6.47,35.9Z"/>
  <path class="cls-1" d="m197.73,114.68s-.11.13-.32.3c-.23.16-.56.39-1.01.67-.09-.08-.17-.13-.26-.16-1.19.49-2.03.79-2.41.94.43-.2,1.37-.66,2.24-1.05.89-.41,1.71-.76,1.76-.69Z"/>
  <path class="cls-2" d="m271,117.96c-2.03,3.48-5.4,8.51-10.69,13.14-1.49,1.31-2.78,2.28-4.02,3.09-6.91,4.49-11.72,6.43-15.82,8.41-11.07,5.35-18.07,14-21.37,18.07-3.61,4.46-6.08,8.61-7.63,11.5-3.85,4.62-10.33,11.28-19.84,16.43-7.95,4.31-14.46,5.61-27.48,8.22-12.16,2.43-19.31,3.95-29,3.29-7.92-.54-14.55-2.56-27.48-6.57-20.12-6.24-30.18-9.37-36.64-14.79-2.43-2.04-14.76-12.39-17.71-24.81.32.05.64.12.92.16,12.64,2.27,22.64.92,29,0,11.01-1.58,17.78-2.56,24.42-8.22,1.53-1.3,12.99-11.39,12.21-26.29-.29-5.41-2.11-9.96-4.37-13.64,3.68-.77,7.31-1.4,10.87-1.87,2.99-.41,5.92-.72,8.76-.92,3.65-.26,11.3-.81,20.68-.1-.79,1.4-1.63,2.86-2.49,4.42-1.28,2.3-2.61,4.76-3.97,7.39-1.71,3.27-3.45,6.79-5.22,10.55l18.01,10.15c.09.07.17.15.26.21,14.49-8.43,29.51-17.25,33.98-20.16,4.35,2.84,8.47,6.33,12.15,10.53,13.2-.46,19.8,3.12,33.45,1.64,12.72-1.36,22.68-6.14,29-9.86Z"/>
  <path class="cls-7" d="m170.25,50.6c1.31,7.98,1.46,17.22,1.53,21.36.04,2.71.03,4.97,0,6.57-1.7,2.39-3.11,4.41-4.14,5.91-1.85,2.7-4.82,7-8.32,12.77-1.07,1.76-2.24,3.71-3.5,5.87-5.43-1.02-12.59-1.56-20.68.1-2.19.45-4.23,1.01-6.11,1.64-5.87-8.93-13.84-23.34-18.32-42.72-3.65-15.78-9.93-42.7,3.05-54.22,8-7.1,20.16-6.02,27.48-3.29,11.36,4.25,16.85,14.54,21.37,23,.96,1.8,5.63,10.74,7.63,23Z"/>
  <path class="cls-6" d="m25.23,121.25c8.01,3.27,18.33,6.62,30.6,8.6,13.12,2.11,24.59,2.02,33.52,1.26-5.58,1.22-9.17,3.08-11.47,4.63-1.09.74-3.93,2.54-8.04,4.48-.65.31-1.38.59-2.3.88-5.99,1.86-11.58,1.02-14.09.62-1.99-.32-6.6-1.1-11.41-3.93-1.13-.67-1.84-1.18-2.31-1.55-3.12-2.49-4.55-5.4-5.35-6.77-1.37-2.36-3.93-5.44-9.16-8.22Z"/>
  <path class="cls-3" d="m19.89,113.86c-.43.02-1.7.17-2.9,1.49-1.15,1.27-1.55,2.87-1.68,3.44"/>
  <path class="cls-3" d="m100.42,132.02c-.26-.72-.75-1.86-1.64-2.95-.96-1.18-1.97-1.77-2.57-2.06"/>
  <path class="cls-10" d="m137.43,200.94c-5.6-1.1-11.19-2.19-16.79-3.29,3.84-10.87,8.31-27.26,9.16-47.65.8-19.2-1.9-35.1-4.58-46.01,4.58-.55,9.16-1.1,13.74-1.64,3.13,11.68,6.41,28.66,6.11,49.29-.31,20.75-4.13,37.7-7.63,49.29Z"/>
  <path class="cls-10" d="m97.74,191.08c-4.58-1.71-9.16-3.41-13.74-5.12,1.54-1.49,4.19-4.35,6.52-8.7.41-.77,1.49-2.85,2.57-6.03,2.4-7.06,3.04-14.27,3.12-19.58,3.56-1.64,7.12-3.29,10.69-4.93,1.16,3.18,4.36,13.09,1.46,25.18-2.52,10.46-8.22,16.79-10.62,19.18Z"/>
  <path class="cls-10" d="m178.65,194.37c-5.6,1.1-11.19,2.19-16.79,3.29,2.53-7.13,5.48-17.86,6.11-31.22.61-13.11-1.25-23.91-3.05-31.22,4.07-2.74,8.14-5.48,12.21-8.22,2.66,7.58,5.9,19.53,6.11,34.5.19,14.01-2.34,25.39-4.58,32.86Z"/>
  <path class="cls-10" d="m215.28,166.43c-1.27,2.31-3.21,5.29-6.11,8.22-2.17,2.2-4.31,3.79-6.11,4.93,1.28-6.69,2.35-16.07,1.31-27.14-1.51-16.07-6.76-28.23-10.47-35.29,1.28-1.35,2.34-1.63,3.05-1.64,3.68-.07,4.94,6.64,10.69,9.86,2.3,1.29,4.55,1.59,6.11,1.64,1.81,4.07,4.53,11.58,4.58,21.36.04,7.88-1.67,14.16-3.05,18.07Z"/>
  <path class="cls-10" d="m238.18,143.43c-2.54,1.64-5.09,3.29-7.63,4.93.59-1.47,1.31-3.72,1.53-6.57.03-.37.12-1.69,0-3.29-.3-4.15-1.82-7.62-3.05-9.86h7.63c.8,1.28,2.44,4.27,2.56,8.42.09,2.8-.55,5.03-1.04,6.36Z"/>
  <path class="cls-3" d="m31.34,124.54c3.36,3.15,10.6,9.06,21.37,11.5,13.88,3.15,25.01-1.4,29-3.29"/>
  <path class="cls-3" d="m61.87,137.68c-.02-.52-.03-1.07,0-1.64.08-1.94.46-3.61.88-4.95"/>
  <path class="cls-3" d="m47.55,134.81c-.1-.82-.17-1.96,0-3.29.18-1.4.55-2.52.88-3.3"/>
  <path class="cls-3" d="m53.77,142.25c-.14-.49-.26-1-.33-1.53-.24-1.79.1-3.25.59-4.4"/>
  <ellipse class="cls-6" cx="43.55" cy="94.96" rx="1.53" ry="1.64"/>
  <ellipse class="cls-8" cx="47.26" cy="87.66" rx=".76" ry=".82"/>
  <ellipse class="cls-8" cx="36.68" cy="87.57" rx=".76" ry=".82"/>
  <ellipse class="cls-8" cx="88.58" cy="97.43" rx=".76" ry=".82"/>
  <ellipse class="cls-8" cx="94.69" cy="100.71" rx=".76" ry=".82"/>
  <ellipse class="cls-6" cx="87.82" cy="106.46" rx="1.53" ry="1.64"/>
  <path class="cls-3" d="m142.01,102.35c-1.44-3.73-4.38-9.71-10.49-16.1-6.63-6.92-14-11.2-18.51-13.48"/>
  <path class="cls-3" d="m131.32,85.92c-.88-6.6-2.91-17.07-8.03-27.74-5.56-11.57-12.25-18.15-16.39-21.55"/>
  <path class="cls-3" d="m119.11,51.42c1.75-4,4.09-10.92,4.4-20.84.34-10.75-1.86-20.15-3.45-25.65"/>
  <path class="cls-3" d="m123.96,22.84c2.45,4.6,7.35,12.03,17.27,20.31,10.76,8.98,22.57,14.91,29.78,18.13"/>
  <path class="cls-3" d="m138.96,95.78c1.94-5.15,4.44-13.93,4.26-25.87-.2-12.94-3.48-23.74-5.78-29.99"/>
  <path class="cls-3" d="m152.7,51.42c.77,5.5,2.16,14.1,4.43,22.31,2.46,8.9,4.84,13.32,6.26,15.48"/>
  <path class="cls-3" d="m158.8,97.43c-.75-2.09-2.28-5.43-5.49-8.97-3.49-3.85-7.39-6.21-9.77-7.46"/>
  <path class="cls-3" d="m157.03,133.35c1.92-3.41,4.62-9.31,5.75-17.67,1.23-9.07.05-16.94-.92-21.54"/>
  <path class="cls-3" d="m163.38,113.86c4.06-5.06,10.13-13.43,14.52-23.66,4.76-11.09,5.4-19.34,5.33-23.99"/>
  <path class="cls-3" d="m178.65,89.21c5.21-5.39,13.17-14.16,19.76-24.17,7.14-10.85,9.45-18.27,10.3-22.34"/>
  <path class="cls-3" d="m191.89,74.19c6.96-2.66,17.8-7.38,27.88-14.67,10.92-7.9,16.01-15.25,18.42-19.6"/>
  <path class="cls-3" d="m175.59,128.64c.96-2.7,2.17-7.38,1.92-14.04-.27-7.22-2.15-13.51-3.45-17.18"/>
  <path class="cls-3" d="m177.12,113.86c4.83-5.09,12.19-13.39,18.22-22.94,6.53-10.35,8.55-17.49,9.26-21.43"/>
  <path class="cls-3" d="m190.86,118.79c2.09-3.23,5.12-8.67,6.85-15.71,1.87-7.63,1.36-13.69.78-17.15"/>
  <path class="cls-3" d="m198.49,102.35c4.71-2.55,15.87-9.44,23.66-23.82,6.16-11.37,7.35-22.14,7.6-27.76"/>
  <path class="cls-3" d="m225.44,98.26c1.04-4.3,2.48-11.12,2.98-18.06.54-7.52-.28-11.79-.92-14"/>
  <path class="cls-3" d="m166.43,217.37c-.59-3.9-1.93-10.08-5.2-16.41-3.55-6.86-7.77-10.79-10.39-12.83"/>
  <path class="cls-3" d="m99.27,214.08c.87-1.36,8.75-14.1,3.82-27.11-1.68-4.44-4.33-7.5-6.38-9.4"/>
</svg>