<?xml version="1.0" encoding="UTF-8"?>
<svg id="Forgrund" xmlns="http://www.w3.org/2000/svg" viewBox="0 0 1920 1080">
  <defs>
    <style>
      .cls-1 {
        fill: #82bb27;
      }

      .cls-1, .cls-2, .cls-3, .cls-4, .cls-5 {
        stroke-width: 0px;
      }

      .cls-2 {
        fill: #6ab42d;
      }

      .cls-3 {
        fill: #6cb865;
      }

      .cls-4 {
        fill: #624925;
      }

      .cls-5 {
        fill: #82be63;
      }
    </style>
  </defs>
  <path class="cls-4" d="m1713.92,1192.37c40.71-116.85,79.69-267.14,93.48-443.99,12.59-161.38.92-302.78-17.66-416.49,184.15,12.51,234.71,42.88,242.62,70.74,7.36,25.93-22.13,49.93-40.42,145.97-2.76,14.51-4.54,23.82-5.69,36.27-7.89,85.26,31.58,120.47,36.66,183.3,5.63,69.63-39.69,65.45-49.16,152.58-11.15,102.61,48.2,140.56,24.4,190.33-17.91,37.45-80.77,77.14-284.24,81.28Z"/>
  <circle class="cls-1" cx="1651.5" cy="53" r="87"/>
  <circle class="cls-5" cx="1713.5" cy="176" r="109"/>
  <path class="cls-4" d="m200.59,1145.9c-40.71-116.85-79.69-267.14-93.48-443.99-12.59-161.38-.92-302.78,17.66-416.49-184.15,12.51-234.71,42.88-242.62,70.74-7.36,25.93,22.13,49.93,40.42,145.97,2.76,14.51,4.54,23.82,5.69,36.27,7.89,85.26-31.58,120.47-36.66,183.3-5.63,69.63,39.69,65.45,49.16,152.58,11.15,102.61-48.2,140.56-24.4,190.33,17.91,37.45,80.77,77.14,284.24,81.28Z"/>
  <ellipse class="cls-2" cx="1844.5" cy="40" rx="131" ry="122"/>
  <ellipse class="cls-5" cx="1853.5" cy="271.5" rx="161" ry="145.5"/>
  <circle class="cls-1" cx="178.5" cy="243" r="87"/>
  <circle class="cls-3" cx="200.5" cy="134" r="109"/>
  <ellipse class="cls-2" cx="22.5" cy="12" rx="131" ry="122"/>
  <ellipse class="cls-5" cx="13.5" cy="243.5" rx="161" ry="145.5"/>
  <ellipse class="cls-2" cx="209.5" cy="12" rx="131" ry="122"/>
</svg>