<?xml version="1.0" encoding="UTF-8"?>
<svg id="Blå_frø_animation" data-name="Blå frø animation" xmlns="http://www.w3.org/2000/svg" xmlns:xlink="http://www.w3.org/1999/xlink" viewBox="0 0 451 554">
  <defs>
    <style>
      .cls-1 {
        fill: #dfff8b;
      }

      .cls-1, .cls-2, .cls-3, .cls-4, .cls-5 {
        stroke-width: 0px;
      }

      .cls-6 {
        fill: none;
      }

      .cls-6, .cls-7, .cls-8, .cls-9, .cls-10 {
        stroke: #000;
      }

      .cls-6, .cls-7, .cls-8, .cls-9, .cls-10, .cls-11 {
        stroke-miterlimit: 10;
      }

      .cls-7 {
        fill: url(#Ikke-navngivet_forløb_5);
      }

      .cls-2 {
        fill: #d02900;
      }

      .cls-8 {
        fill: #ff8bed;
      }

      .cls-3 {
        fill: #231f20;
      }

      .cls-9 {
        fill: url(#Himmel);
      }

      .cls-4 {
        fill: #28316f;
      }

      .cls-10 {
        fill: #d8ff5c;
      }

      .cls-11 {
        fill: #1d1d1b;
        stroke: #06a23f;
      }

      .cls-5 {
        fill: #001300;
      }
    </style>
    <linearGradient id="Ikke-navngivet_forløb_5" data-name="Ikke-navngivet forløb 5" x1="382.18" y1="537.33" x2="382.18" y2="103.44" gradientUnits="userSpaceOnUse">
      <stop offset="0" stop-color="#cce0f4"/>
      <stop offset=".05" stop-color="#c2dcf2"/>
      <stop offset=".14" stop-color="#a9d2ee"/>
      <stop offset=".24" stop-color="#7fc2e7"/>
      <stop offset=".37" stop-color="#46abdd"/>
      <stop offset=".45" stop-color="#1e9cd7"/>
      <stop offset=".87" stop-color="#0075be"/>
      <stop offset="1" stop-color="#005b97"/>
    </linearGradient>
    <linearGradient id="Himmel" x1="212.33" y1="612.08" x2="212.33" y2="58.54" gradientUnits="userSpaceOnUse">
      <stop offset="0" stop-color="#cce0f4"/>
      <stop offset=".06" stop-color="#c2dcf2"/>
      <stop offset=".17" stop-color="#a9d2ee"/>
      <stop offset=".31" stop-color="#7fc2e7"/>
      <stop offset=".46" stop-color="#46abdd"/>
      <stop offset=".57" stop-color="#1e9cd7"/>
      <stop offset=".87" stop-color="#0075be"/>
      <stop offset=".99" stop-color="#005b97"/>
    </linearGradient>
  </defs>
  <path class="cls-6" d="m267.54,57.19c-5.4-1.89-12.95-4.03-22.17-5.2"/>
  <path class="cls-6" d="m230.63,51.16c.21-.01.42-.01.64-.01,5.03-.02,9.72.3,14.07.84"/>
  <line class="cls-6" x1="364.07" y1="139.75" x2="353.16" y2="122.47"/>
  <path class="cls-6" d="m39.5,159.93c-.18.47-.38.93-.56,1.41"/>
  <path class="cls-6" d="m41.08,156.29c-.54,1.16-1.06,2.37-1.57,3.63"/>
  <path class="cls-7" d="m435.77,493.74c-4.45-3.15-7.24-3.13-15.68-8.89-2.95-2.01-5.19-3.75-6.9-5.15,1.07-1.8,1.86-3.37,2.27-4.2,2.19-4.4,3.01-8.04,3.16-8.69,3.84-16.73,25.13-66,30.29-92.06,9.75-49.35-16.08-109.88-45.4-114.47-7.96-1.24-14.17,1.94-24.18,7.09-15.54,7.97-29.75,21.33-38.59,36.18,3.61,18.87,6.9,48.32,1.06,83.56-5.92,35.69-18.8,62.92-28.44,79.78l4.89,14.85c23.62-10.52,39.87-26.16,50.28-43.36.95,10.22,3.65,20.78,11.22,32.27.56.83,2.95,4.42,6.26,8.24-4.54,3.97-9.62,10.59-13.96,18.64-8.01,14.83-10.48,28.92-5.51,31.48,4.97,2.54,15.49-7.42,23.5-22.26,1.71-3.17,3.16-6.29,4.34-9.27.31,3.23.81,6.68,1.5,10.22,3.4,17.28,10.2,30.52,15.19,29.59,4.98-.92,6.27-15.68,2.87-32.95-1.38-6.99-3.31-13.32-5.45-18.32.11-.12.24-.24.35-.37,2.12,5.9,6.17,13.58,12.04,20.35,11.35,13.08,23.89,20.94,28,17.56,3.99-3.29-1.14-21.34-13.12-29.81Z"/>
  <path class="cls-9" d="m322.68,244.03c8.08,11.24,14.58,32.68,18.07,59.52,3.61,18.87,6.9,48.32,1.06,83.56-5.92,35.69-18.8,62.92-28.44,79.78l4.89,14.85c-.08.03-.17.08-.25.11.48,1.11.95,2.24,1.4,3.39,1.4,3.45,2.7,6.94,3.8,9.89,2.15,5.79,12.78,34.34,7.66,36.91-4.04,2.01-18.28-11.86-23.78-28.96-.25-.77-.48-1.54-.68-2.32.16,2.58.24,5.26.24,8.03,0,19.4-4.11,35.13-9.18,35.13-4.8,0-9.32-20.44-9.73-38.39-1.22,1.92-1.28,8.44-8.73,18.15-6.21,8.1-8.3,13.33-10.86,12.88-2.18-.37-3.12-4.4-3.57-6.29-1.41-6.04-.18-10.88,4.9-25.88,1.7-5.02,2.86-8.3,3.81-10.62-14.96,1.87-31.71,2.21-50.39.66-20.99-1.74-41.06-4.82-59.42-9.2,1.35,1.49,2.5,3.07,3.62,5.62,3,6.74,2.99,12.68,2.96,19.18-.01,8.1-.03,20.98-4.56,22.33-5.84,1.74-18.64-15.86-23.98-34.34-.71-2.44-1.28-4.9-1.72-7.32.19,3.37.3,6.89.3,10.52,0,23.58-4.38,42.7-9.77,42.7s-9.51-18.05-9.75-40.7c-5.6,19.75-14.82,34.32-20.83,32.77-6.04-1.56-10.56-24.11-1.08-39.84,3.32-5.51,6.45-7.01,12.09-16.62,2.43-4.14,4.07-7.64,5.25-10.39-16.69-7.89-30.1-17.44-39.03-28.58-2.27,5.84-4.32,12.37-6.06,19.82-1.12,4.8-1.91,9.12-2.5,12.97,2.5,6.55,4.74,15.37,6.22,25.17,3.17,21.13,1.55,38.84-3.62,39.57-5.15.74-11.88-15.68-15.06-36.71-.38,2.22-.79,4.49-1.25,6.79-5.28,26.21-14.64,46.51-20.89,45.31-5.36-1.02-6.7-17.44-3.67-38.57-13.56,12.35-25.41,19.15-29.06,15.97-4.76-4.14,6.19-23.65,24.46-43.58,4.62-5.04,9.26-9.62,13.69-13.58-13.7-22.88-27.49-59.86-27.49-98.95,0-67.55,22.81-122.31,50.94-122.31,14.12,0,31.53,18.62,42.89,43.7.31-.91,1.21-3.44,9.7-27.5.33-.93,8-22.67,8.32-23.59-51.01-19.09-86.1-52.19-86.1-75.78,0-3.31.68-6.42,1.99-9.34h.01c.44-1.01.97-1.99,1.56-2.94,0-.23,0-.47.01-.7,0-.38.02-.76.06-1.13,1.17-13.95,17.06-24.76,38.77-28.27,3.04-1.03,6.09-2.52,9.14-5.05,1.42-1.18,2.67-2.43,3.75-3.72.07-.08.13-.14.18-.22.01-.02.03-.03.03-.06,3.13-3.79,4.94-7.8,6.01-10.88-.09-.04-.18-.09-.27-.14-19.49-9.86-32.6-28.39-32.6-49.62C66.15,25.6,95.2,0,131.05,0s63.18,24.11,64.84,54.41c.05.92.07,1.84.07,2.78,7.72-2.68,19.7-5.88,34.62-6.03h.06c5.03.07,9.94.36,14.7.83h.03c8.23.84,16.03,2.28,23.2,4.22,5.18-26.71,29.25-46.92,58.16-46.92,32.68,0,59.18,25.81,59.18,57.67,0,24.66-9.15,45.68-33.66,53.94-.02.01-.05.01-.07.02l.98,1.54c2.99,5.31,5.3,10.64,6.92,15.81,1.35.48,2.68.98,3.99,1.48,5.78,2.22,11.21,4.59,16.24,7.08.24-.01.48-.01.73-.01,19.99.28,42.16,18.54,41.92,38.65.43,1.1.8,2.22,1.12,3.33,6.06,21.57-33.74,40.65-101.4,55.24Z"/>
  <path class="cls-6" d="m230.57,51.16c-14.92.16-26.9,3.35-34.62,6.03,0-.93-.02-1.85-.07-2.78,10.03-2.11,21.02-3.27,32.55-3.27.72,0,1.42,0,2.13.01Z"/>
  <path class="cls-6" d="m353.16,122.47l-.98-1.54s.05-.01.07-.02c.31.52.62,1.04.91,1.57Z"/>
  <path class="cls-6" d="m99.02,106.95c-1.07,3.09-2.87,7.1-6.01,10.88,3.18-4.17,4.74-7.86,5.73-11.03.09.06.18.1.27.14Z"/>
  <line class="cls-6" x1="319.4" y1="485.25" x2="318.25" y2="481.75"/>
  <path class="cls-6" d="m303.63,333.24c-.42,21.32-1.94,44.87-5.23,70.24-3.08,23.8-7.26,45.67-11.9,65.37-2.62,5.12-5.23,10.24-7.85,15.36-2.28,4.47-4.56,8.93-6.84,13.4"/>
  <path class="cls-6" d="m397.27,361.2c-1.6,11.9-4.8,27-11.38,43.64-5.35,13.53-11.61,24.73-17.36,33.54"/>
  <path class="cls-6" d="m50.66,347.61c.57,13.47,2.61,30.87,8.4,50.41,5.13,17.32,11.81,31.59,17.91,42.55"/>
  <path class="cls-6" d="m70.96,166.16c6.73,6.35,17.82,15.01,33.59,20.46,6.04,2.08,11.69,3.33,16.67,4.06"/>
  <line class="cls-6" x1="330.17" y1="202.02" x2="382.9" y2="183.89"/>
  <path class="cls-6" d="m378.19,178.42c4.38-.23,8.26,2.39,9.36,6.11.87,2.91-.07,6.14-2.37,8.43"/>
  <path class="cls-6" d="m76.17,161.34c-1.22.62-3.61,2.05-5.21,4.82-3.25,5.62-.31,11.63,0,12.25"/>
  <path class="cls-6" d="m105.57,296.15c-4.64,18.71-8.87,44.52-7.41,75.18,1.95,40.83,13.17,73.15,22.25,93.64"/>
  <path class="cls-6" d="m144.69,318.74c-4.79,17.71-9.59,43.77-7.41,75.18,2.86,41.35,16.48,72.99,26.18,91.33"/>
  <path class="cls-6" d="m121.22,244.2c21.18,6.58,48.78,12.89,81.42,14.74,52.03,2.95,94.59-6.7,122.07-15.35"/>
  <path class="cls-6" d="m116,469.15c.19-.44.51-1.05,1.04-1.68.09-.11.52-.62,1.24-1.18.66-.51,2.85-1.74,2.13-1.32h0"/>
  <ellipse class="cls-10" cx="136.85" cy="66.94" rx="43.83" ry="42.71"/>
  <ellipse class="cls-10" cx="326.07" cy="71.17" rx="44.89" ry="43.74"/>
  <path class="cls-8" d="m76.17,131.74c0-.19,0-.28,0-.43.22-3.8,6.02-4.79,12.87-9.48,5.12-3.5,5.15-5.18,7.23-5.1,4.44.18,8.98,7.96,8.71,15.01-.29,7.49-6.14,16.83-14.41,16.83s-14.41-7.54-14.41-16.83Z"/>
  <path class="cls-8" d="m382.13,154.34c-.23,6.02-5.67,14.59-14.97,14.59-8.5,0-14.86-7.09-14.97-14.59-.11-7.61,6.45-14.57,11.89-14.59.72,0,2.66.87,6.52,2.63,7.86,3.58,9.22,4.63,10.19,6.2,1.48,2.4,1.39,4.89,1.36,5.76Z"/>
  <path class="cls-1" d="m265.9,433.38c-2.91,3.19-19.07,20.88-43.26,20.38-14.96-.31-25.64-7.43-29.2-9.87-29.33-20.08-29.83-61.34-29.98-73.7-.09-7.41-.36-29.61,9.28-50.41,0-.01.01-.01.01-.02.54-1.03,1.04-2.04,1.49-3.04.03-.04.06-.09.07-.12,5.3-11.31,6.93-20.83,7.48-26.82.43-4.73.31-8.44.25-9.82-.4-9.01-2.44-16.45-4.38-21.75-.01-.02-.01-.03-.01-.04-.28-.74-.56-1.44-.82-2.1,12.77,1.98,27.72,3.48,44.44,3.61,18.06.13,34.13-1.34,47.67-3.38,0,.01-.01.03-.02.04,1.28-.13,2.27-.17,2.91-.19-8.78,13.65-9.28,24.7-9.03,30.01.19,4.05.97,7.75,1.54,10.51,2.06,9.86,5.27,17.65,7.82,22.91.02.04.03.08.06.11,9.44,18.52,9.83,37.68,10.09,50.5.42,20.53.9,44.25-16.4,63.19Z"/>
  <path class="cls-4" d="m174.24,316.71c-.46,1-.96,2.01-1.49,3.04.47-1.02.97-2.03,1.49-3.04Z"/>
  <ellipse class="cls-11" cx="117.07" cy="77.28" rx="6.27" ry="6.11"/>
  <ellipse class="cls-11" cx="144.97" cy="92.87" rx="10.77" ry="9.48"/>
  <ellipse class="cls-11" cx="153.24" cy="61.67" rx="5.41" ry="5.27"/>
  <ellipse class="cls-11" cx="309.28" cy="69.06" rx="5.56" ry="5.42"/>
  <ellipse class="cls-11" cx="344.25" cy="84.25" rx="5.47" ry="5.33"/>
  <ellipse class="cls-11" cx="313.85" cy="98.51" rx="10.22" ry="9.95"/>
  <path class="cls-5" d="m121.22,190.68c28.53,7.55,65.16,14.61,108.09,16.58,39.18,1.8,73.39-1.1,100.85-5.25-6.82,3.14-17.46,8.51-29.43,16.79-17.47,12.07-18.4,16.93-30.87,23.08-18.29,9.02-36.2,8.39-44.24,8.01-6.39-.3-21.17-1.13-37.24-9.06-13.11-6.47-16.08-12.25-33.74-26.58-7.41-6.02-18.59-14.5-33.44-23.58Z"/>
  <path class="cls-3" d="m177.65,258.15c-.3-.69-.57-1.39-.82-2.1.26.66.54,1.36.82,2.1Z"/>
  <path class="cls-2" d="m288.87,227.83c-.02.98-.59,1.99-7.55,6.55-8,5.24-12,7.87-17.02,9.97-13.08,5.49-25.76,5.65-32.56,5.29-.64.02-1.29.03-1.95.03-1.96,0-3.84-.09-5.6-.26-6.13-.08-13.43-.83-21.34-3.03-3.57-.99-10.56-2.98-18.17-7.51-1.98-1.18-4.74-3.23-10.25-7.33-4.15-3.08-4.48-3.48-4.58-4.08-.82-4.88,14.83-14.82,30.45-14.54,14.98.27,25.41,9.86,28.82,13.3,2.25-3.39,5.36-6.25,8.66-8.17,2.01-1.17,7.74-3.94,21.44-2.2,11.4,1.45,29.78,6.24,29.64,11.97Z"/>
  <ellipse class="cls-5" cx="201.9" cy="176.63" rx="2.75" ry="7.01"/>
  <ellipse class="cls-5" cx="243.3" cy="177.94" rx="2.75" ry="7.01"/>
</svg>