<?xml version="1.0" encoding="UTF-8"?>
<svg id="startscreen" xmlns="http://www.w3.org/2000/svg" viewBox="0 0 1920 1080">
  <defs>
    <style>
      .cls-1, .cls-2, .cls-3, .cls-4, .cls-5, .cls-6, .cls-7, .cls-8, .cls-9, .cls-10, .cls-11, .cls-12, .cls-13, .cls-14, .cls-15, .cls-16, .cls-17, .cls-18 {
        stroke-miterlimit: 10;
      }

      .cls-1, .cls-2, .cls-11 {
        stroke: #231f20;
      }

      .cls-1, .cls-4, .cls-17 {
        fill: none;
      }

      .cls-2, .cls-8 {
        fill: #f5ff17;
      }

      .cls-3 {
        fill: #40b4e8;
      }

      .cls-3, .cls-5, .cls-6, .cls-8, .cls-9, .cls-10, .cls-12, .cls-13, .cls-14, .cls-16, .cls-17, .cls-18 {
        stroke: #001300;
      }

      .cls-4, .cls-7, .cls-15 {
        stroke: #000;
      }

      .cls-5 {
        fill: #ca77af;
      }

      .cls-6 {
        fill: #237532;
      }

      .cls-19, .cls-20, .cls-21 {
        stroke-width: 0px;
      }

      .cls-9 {
        fill: #2c5d29;
      }

      .cls-10 {
        fill: #fff;
      }

      .cls-11 {
        fill: #a9fffc;
      }

      .cls-12 {
        fill: #ac3d8f;
      }

      .cls-13 {
        fill: #e5348b;
      }

      .cls-14 {
        fill: #4eae33;
      }

      .cls-15 {
        fill: #eb584d;
      }

      .cls-16 {
        fill: #cb77af;
      }

      .cls-20 {
        fill: #46c1ee;
      }

      .cls-18 {
        fill: #e6398d;
      }

      .cls-21 {
        fill: #001300;
      }
    </style>
  </defs>
  <g>
    <rect class="cls-20" x="-23" y="-27" width="1964" height="1123"/>
    <path class="cls-19" d="m1940.5-26.5v1122H-22.5V-26.5h1963m1-1H-23.5v1124h1965V-27.5h0Z"/>
  </g>
  <path class="cls-14" d="m185.61,857.65c-26.46,15.39-37.13,31.48-42.01,42.99-10.37,24.42-6.95,56.93-12.28,57.17-.4.01-.7-.14-1.04-.4,1.23,3.26,1.51,5.51.43,6.23-2.23,1.45-8.68-4.8-14.57-2.29-2.75,1.17-2.82,3.16-4.15,3.31-5.38.6-8.61-33.19-22.91-54.51-19.08-28.49-42.17-43.18-51.58-48.58,13.93,1.62,23.93,7.32,29.22,10.89,8.85,5.97,14.39,12.65,25.3,25.69,1.33,1.58,4.29,5.17,8.31,10.49-1.34-5.98-2.91-12.18-4.72-18.57-4.51-15.9-9.78-30.18-15.16-42.71-3.52-8.21-7.08-15.66-10.49-22.32,4.84,3.62,11.75,9.43,18.78,18.07,1.33,1.64,2.56,3.25,3.71,4.86,6.8,9.39,11.03,18.48,15.85,28.8.98,2.07,3.14,6.78,5.86,13.71,1.76-10.2,3.51-17.14,4.19-19.85,2.8-10.9,5.25-20.49,10.18-30.77.32-.67,1.5-3.13,2.74-5.34,3.84-6.91,12.01-18.55,30.32-31.02-12.71,13.49-18.48,25.85-21.34,33.96-4.18,11.84-5,23-6.87,44.37-.58,6.57-.96,12.91-1.15,19.01,2.96-5.84,5.2-9.82,6.21-11.59,14.04-24.41,17.37-27.54,20.08-29.11,3.46-2,11.69-5.61,27.09-2.49Z"/>
  <path class="cls-6" d="m349.47,665.78c-15.84,11.79-21.8,23.46-24.35,31.71-5.42,17.5-1.9,40.14-5.21,40.51-.25.03-.45-.07-.67-.24.91,2.24,1.17,3.81.54,4.35-1.33,1.1-5.62-3.03-9.18-1.05-1.67.92-1.62,2.32-2.44,2.47-3.33.62-6.79-22.92-16.62-37.31-13.12-19.23-28.14-28.64-34.24-32.06,8.75.61,15.24,4.22,18.68,6.51,5.78,3.84,9.51,8.32,16.87,17.03.9,1.06,2.9,3.46,5.63,7.03-1.09-4.14-2.34-8.42-3.74-12.83-3.5-10.97-7.39-20.77-11.28-29.34-2.55-5.62-5.08-10.7-7.49-15.23,3.17,2.35,7.73,6.16,12.48,11.94.9,1.1,1.74,2.18,2.52,3.26,4.64,6.32,7.67,12.53,11.11,19.57.7,1.41,2.25,4.63,4.24,9.38.66-7.21,1.45-12.14,1.77-14.06,1.28-7.74,2.4-14.55,5.03-21.94.17-.48.8-2.25,1.48-3.85,2.1-4.99,6.69-13.45,17.58-22.88-7.35,9.94-10.41,18.81-11.85,24.6-2.1,8.45-2.13,16.3-2.38,31.34-.08,4.62-.05,9.08.09,13.36,1.6-4.21,2.82-7.08,3.38-8.35,7.71-17.63,9.65-19.96,11.27-21.16,2.07-1.53,7.05-4.38,16.78-2.78Z"/>
  <path class="cls-6" d="m990.47,279.78c-15.84,11.79-21.8,23.46-24.35,31.71-5.42,17.5-1.9,40.14-5.21,40.51-.25.03-.45-.07-.67-.24.91,2.24,1.17,3.81.54,4.35-1.33,1.1-5.62-3.03-9.18-1.05-1.67.92-1.62,2.32-2.44,2.47-3.33.62-6.79-22.92-16.62-37.31-13.12-19.23-28.14-28.64-34.24-32.06,8.75.61,15.24,4.22,18.68,6.51,5.78,3.84,9.51,8.32,16.87,17.03.9,1.06,2.9,3.46,5.63,7.03-1.09-4.14-2.34-8.42-3.74-12.83-3.5-10.97-7.39-20.77-11.28-29.34-2.55-5.62-5.08-10.7-7.49-15.23,3.17,2.35,7.73,6.16,12.48,11.94.9,1.1,1.74,2.18,2.52,3.26,4.64,6.32,7.67,12.53,11.11,19.57.7,1.41,2.25,4.63,4.24,9.38.66-7.21,1.45-12.14,1.77-14.06,1.28-7.74,2.4-14.55,5.03-21.94.17-.48.8-2.25,1.48-3.85,2.1-4.99,6.69-13.45,17.58-22.88-7.35,9.94-10.41,18.81-11.85,24.6-2.1,8.45-2.13,16.3-2.38,31.34-.08,4.62-.05,9.08.09,13.36,1.6-4.21,2.82-7.08,3.38-8.35,7.71-17.63,9.65-19.96,11.27-21.16,2.07-1.53,7.05-4.38,16.78-2.78Z"/>
  <path class="cls-14" d="m1719.45,594.56c-26.46,15.39-37.13,31.48-42.01,42.99-10.37,24.42-6.95,56.93-12.28,57.17-.4.01-.7-.14-1.04-.4,1.23,3.26,1.51,5.51.43,6.23-2.23,1.45-8.68-4.8-14.57-2.29-2.75,1.17-2.82,3.16-4.15,3.31-5.38.6-8.61-33.19-22.91-54.51-19.08-28.49-42.17-43.18-51.58-48.58,13.93,1.62,23.93,7.32,29.22,10.89,8.85,5.97,14.39,12.65,25.3,25.69,1.33,1.58,4.29,5.17,8.31,10.49-1.34-5.98-2.91-12.18-4.72-18.57-4.51-15.9-9.78-30.18-15.16-42.71-3.52-8.21-7.08-15.66-10.49-22.32,4.84,3.62,11.75,9.43,18.78,18.07,1.33,1.64,2.56,3.25,3.71,4.86,6.8,9.39,11.03,18.48,15.85,28.8.98,2.07,3.14,6.78,5.86,13.71,1.76-10.2,3.51-17.14,4.19-19.85,2.8-10.9,5.25-20.49,10.18-30.77.32-.67,1.5-3.13,2.74-5.34,3.84-6.91,12.01-18.55,30.32-31.02-12.71,13.49-18.48,25.85-21.34,33.96-4.18,11.84-5,23-6.87,44.37-.58,6.57-.96,12.91-1.15,19.01,2.96-5.84,5.2-9.82,6.21-11.59,14.04-24.41,17.37-27.54,20.08-29.11,3.46-2,11.69-5.61,27.09-2.49Z"/>
  <path class="cls-14" d="m1240.45,494.56c-26.46,15.39-37.13,31.48-42.01,42.99-10.37,24.42-6.95,56.93-12.28,57.17-.4.01-.7-.14-1.04-.4,1.23,3.26,1.51,5.51.43,6.23-2.23,1.45-8.68-4.8-14.57-2.29-2.75,1.17-2.82,3.16-4.15,3.31-5.38.6-8.61-33.19-22.91-54.51-19.08-28.49-42.17-43.18-51.58-48.58,13.93,1.62,23.93,7.32,29.22,10.89,8.85,5.97,14.39,12.65,25.3,25.69,1.33,1.58,4.29,5.17,8.31,10.49-1.34-5.98-2.91-12.18-4.72-18.57-4.51-15.9-9.78-30.18-15.16-42.71-3.52-8.21-7.08-15.66-10.49-22.32,4.84,3.62,11.75,9.43,18.78,18.07,1.33,1.64,2.56,3.25,3.71,4.86,6.8,9.39,11.03,18.48,15.85,28.8.98,2.07,3.14,6.78,5.86,13.71,1.76-10.2,3.51-17.14,4.19-19.85,2.8-10.9,5.25-20.49,10.18-30.77.32-.67,1.5-3.13,2.74-5.34,3.84-6.91,12.01-18.55,30.32-31.02-12.71,13.49-18.48,25.85-21.34,33.96-4.18,11.84-5,23-6.87,44.37-.58,6.57-.96,12.91-1.15,19.01,2.96-5.84,5.2-9.82,6.21-11.59,14.04-24.41,17.37-27.54,20.08-29.11,3.46-2,11.69-5.61,27.09-2.49Z"/>
  <path class="cls-14" d="m500.45,392.56c-26.46,15.39-37.13,31.48-42.01,42.99-10.37,24.42-6.95,56.93-12.28,57.17-.4.01-.7-.14-1.04-.4,1.23,3.26,1.51,5.51.43,6.23-2.23,1.45-8.68-4.8-14.57-2.29-2.75,1.17-2.82,3.16-4.15,3.31-5.38.6-8.61-33.19-22.91-54.51-19.08-28.49-42.17-43.18-51.58-48.58,13.93,1.62,23.93,7.32,29.22,10.89,8.85,5.97,14.39,12.65,25.3,25.69,1.33,1.58,4.29,5.17,8.31,10.49-1.34-5.98-2.91-12.18-4.72-18.57-4.51-15.9-9.78-30.18-15.16-42.71-3.52-8.21-7.08-15.66-10.49-22.32,4.84,3.62,11.75,9.43,18.78,18.07,1.33,1.64,2.56,3.25,3.71,4.86,6.8,9.39,11.03,18.48,15.85,28.8.98,2.07,3.14,6.78,5.86,13.71,1.76-10.2,3.51-17.14,4.19-19.85,2.8-10.9,5.25-20.49,10.18-30.77.32-.67,1.5-3.13,2.74-5.34,3.84-6.91,12.01-18.55,30.32-31.02-12.71,13.49-18.48,25.85-21.34,33.96-4.18,11.84-5,23-6.87,44.37-.58,6.57-.96,12.91-1.15,19.01,2.96-5.84,5.2-9.82,6.21-11.59,14.04-24.41,17.37-27.54,20.08-29.11,3.46-2,11.69-5.61,27.09-2.49Z"/>
  <path class="cls-9" d="m225.46,299.36c-9.71,7.51-13.62,15.35-15.41,20.97-3.81,11.91-2.55,27.77-4.5,27.89-.15,0-.26-.07-.38-.19.45,1.59.55,2.69.16,3.04-.82.71-3.18-2.34-5.34-1.12-1.01.57-1.03,1.54-1.52,1.61-1.97.29-3.16-16.19-8.4-26.59-7-13.9-15.47-21.06-18.92-23.7,5.11.79,8.78,3.57,10.72,5.31,3.25,2.91,5.28,6.17,9.28,12.53.49.77,1.57,2.52,3.05,5.12-.49-2.92-1.07-5.94-1.73-9.06-1.66-7.76-3.59-14.72-5.56-20.83-1.29-4-2.6-7.64-3.85-10.89,1.77,1.77,4.31,4.6,6.89,8.81.49.8.94,1.58,1.36,2.37,2.5,4.58,4.05,9.02,5.81,14.05.36,1.01,1.15,3.31,2.15,6.69.65-4.98,1.29-8.36,1.54-9.68,1.03-5.32,1.93-10,3.73-15.01.12-.33.55-1.53,1-2.61,1.41-3.37,4.4-9.05,11.12-15.13-4.66,6.58-6.78,12.61-7.83,16.56-1.53,5.78-1.83,11.22-2.52,21.65-.21,3.2-.35,6.3-.42,9.27,1.09-2.85,1.91-4.79,2.28-5.65,5.15-11.91,6.37-13.44,7.36-14.2,1.27-.97,4.29-2.74,9.94-1.22Z"/>
  <path class="cls-9" d="m1719.46,173.61c-21.26,15.09-29.82,30.87-33.74,42.17-8.33,23.95-5.58,55.83-9.86,56.07-.32.01-.57-.14-.84-.39.99,3.2,1.21,5.41.35,6.11-1.79,1.43-6.97-4.71-11.7-2.25-2.21,1.15-2.26,3.1-3.33,3.24-4.32.59-6.92-32.55-18.4-53.46-15.33-27.94-33.87-42.35-41.43-47.64,11.19,1.59,19.22,7.18,23.47,10.68,7.11,5.86,11.56,12.41,20.32,25.2,1.07,1.55,3.45,5.07,6.67,10.29-1.08-5.87-2.34-11.95-3.79-18.21-3.63-15.6-7.86-29.6-12.18-41.89-2.83-8.05-5.68-15.36-8.42-21.89,3.88,3.55,9.44,9.25,15.08,17.72,1.07,1.61,2.06,3.19,2.98,4.77,5.46,9.21,8.86,18.13,12.73,28.25.78,2.03,2.52,6.65,4.71,13.44,1.41-10.01,2.82-16.81,3.37-19.47,2.25-10.69,4.22-20.1,8.18-30.17.26-.66,1.21-3.07,2.2-5.24,3.09-6.78,9.64-18.2,24.35-30.43-10.21,13.24-14.84,25.35-17.14,33.3-3.36,11.61-4.01,22.56-5.52,43.52-.46,6.44-.77,12.66-.93,18.64,2.38-5.73,4.18-9.63,4.99-11.36,11.28-23.94,13.95-27.02,16.12-28.55,2.78-1.96,9.39-5.51,21.76-2.45Z"/>
  <path class="cls-14" d="m93.45,461.56c-26.46,15.39-37.13,31.48-42.01,42.99-10.37,24.42-6.95,56.93-12.28,57.17-.4.01-.7-.14-1.04-.4,1.23,3.26,1.51,5.51.43,6.23-2.23,1.45-8.68-4.8-14.57-2.29-2.75,1.17-2.82,3.16-4.15,3.31-5.38.6-8.61-33.19-22.91-54.51-19.08-28.49-42.17-43.18-51.58-48.58,13.93,1.62,23.93,7.32,29.22,10.89,8.85,5.97,14.39,12.65,25.3,25.69,1.33,1.58,4.29,5.17,8.31,10.49-1.34-5.98-2.91-12.18-4.72-18.57-4.51-15.9-9.78-30.18-15.16-42.71-3.52-8.21-7.08-15.66-10.49-22.32,4.84,3.62,11.75,9.43,18.78,18.07,1.33,1.64,2.56,3.25,3.71,4.86,6.8,9.39,11.03,18.48,15.85,28.8.98,2.07,3.14,6.78,5.86,13.71,1.76-10.2,3.51-17.14,4.19-19.85,2.8-10.9,5.25-20.49,10.18-30.77.32-.67,1.5-3.13,2.74-5.34,3.84-6.91,12.01-18.55,30.32-31.02-12.71,13.49-18.48,25.85-21.34,33.96-4.18,11.84-5,23-6.87,44.37-.58,6.57-.96,12.91-1.15,19.01,2.96-5.84,5.2-9.82,6.21-11.59,14.04-24.41,17.37-27.54,20.08-29.11,3.46-2,11.69-5.61,27.09-2.49Z"/>
  <path class="cls-9" d="m1865.8,914.22c-21.26,15.09-29.82,30.87-33.74,42.17-8.33,23.95-5.58,55.83-9.86,56.07-.32.01-.57-.14-.84-.39.99,3.2,1.21,5.41.35,6.11-1.79,1.43-6.97-4.71-11.7-2.25-2.21,1.15-2.26,3.1-3.33,3.24-4.32.59-6.92-32.55-18.4-53.46-15.33-27.94-33.87-42.35-41.43-47.64,11.19,1.59,19.22,7.18,23.47,10.68,7.11,5.86,11.56,12.41,20.32,25.2,1.07,1.55,3.45,5.07,6.67,10.29-1.08-5.87-2.34-11.95-3.79-18.21-3.63-15.6-7.86-29.6-12.18-41.89-2.83-8.05-5.68-15.36-8.42-21.89,3.88,3.55,9.44,9.25,15.08,17.72,1.07,1.61,2.06,3.19,2.98,4.77,5.46,9.21,8.86,18.13,12.73,28.25.78,2.03,2.52,6.65,4.71,13.44,1.41-10.01,2.82-16.81,3.37-19.47,2.25-10.69,4.22-20.1,8.18-30.17.26-.66,1.21-3.07,2.2-5.24,3.09-6.78,9.64-18.2,24.35-30.43-10.21,13.24-14.84,25.35-17.14,33.3-3.36,11.61-4.01,22.56-5.52,43.52-.46,6.44-.77,12.66-.93,18.64,2.38-5.73,4.18-9.63,4.99-11.36,11.28-23.94,13.95-27.02,16.12-28.55,2.78-1.96,9.39-5.51,21.76-2.45Z"/>
  <path class="cls-14" d="m1360.5,1020.8c-15.04,10.03-21.1,20.52-23.87,28.03-5.89,15.92-3.95,37.12-6.98,37.27-.23,0-.4-.09-.59-.26.7,2.13.86,3.6.25,4.06-1.26.95-4.93-3.13-8.28-1.5-1.56.76-1.6,2.06-2.36,2.16-3.06.39-4.89-21.64-13.02-35.54-10.84-18.57-23.96-28.15-29.31-31.67,7.91,1.06,13.6,4.78,16.6,7.1,5.03,3.89,8.18,8.25,14.37,16.75.75,1.03,2.44,3.37,4.72,6.84-.76-3.9-1.66-7.94-2.68-12.11-2.57-10.37-5.56-19.68-8.61-27.84-2-5.35-4.02-10.21-5.96-14.55,2.75,2.36,6.68,6.15,10.67,11.78.76,1.07,1.46,2.12,2.11,3.17,3.87,6.12,6.27,12.05,9.01,18.78.55,1.35,1.78,4.42,3.33,8.94,1-6.65,1.99-11.18,2.38-12.94,1.59-7.11,2.98-13.36,5.79-20.06.18-.44.86-2.04,1.56-3.48,2.18-4.51,6.82-12.1,17.23-20.23-7.22,8.8-10.5,16.85-12.13,22.14-2.37,7.72-2.84,14.99-3.9,28.93-.33,4.28-.55,8.42-.65,12.39,1.68-3.81,2.96-6.4,3.53-7.55,7.98-15.91,9.87-17.96,11.41-18.98,1.96-1.3,6.64-3.66,15.39-1.63Z"/>
  <path class="cls-14" d="m1926.42,352.9c-15.04,10.03-21.1,20.52-23.87,28.03-5.89,15.92-3.95,37.12-6.98,37.27-.23,0-.4-.09-.59-.26.7,2.13.86,3.6.25,4.06-1.26.95-4.93-3.13-8.28-1.5-1.56.76-1.6,2.06-2.36,2.16-3.06.39-4.89-21.64-13.02-35.54-10.84-18.57-23.96-28.15-29.31-31.67,7.91,1.06,13.6,4.78,16.6,7.1,5.03,3.89,8.18,8.25,14.37,16.75.75,1.03,2.44,3.37,4.72,6.84-.76-3.9-1.66-7.94-2.68-12.11-2.57-10.37-5.56-19.68-8.61-27.84-2-5.35-4.02-10.21-5.96-14.55,2.75,2.36,6.68,6.15,10.67,11.78.76,1.07,1.46,2.12,2.11,3.17,3.87,6.12,6.27,12.05,9.01,18.78.55,1.35,1.78,4.42,3.33,8.94,1-6.65,1.99-11.18,2.38-12.94,1.59-7.11,2.98-13.36,5.79-20.06.18-.44.86-2.04,1.56-3.48,2.18-4.51,6.82-12.1,17.23-20.23-7.22,8.8-10.5,16.85-12.13,22.14-2.37,7.72-2.84,14.99-3.9,28.93-.33,4.28-.55,8.42-.65,12.39,1.68-3.81,2.96-6.4,3.53-7.55,7.98-15.91,9.87-17.96,11.41-18.98,1.96-1.3,6.64-3.66,15.39-1.63Z"/>
  <path class="cls-9" d="m1177.46,588.36c-9.71,7.51-13.62,15.35-15.41,20.97-3.81,11.91-2.55,27.77-4.5,27.89-.15,0-.26-.07-.38-.19.45,1.59.55,2.69.16,3.04-.82.71-3.18-2.34-5.34-1.12-1.01.57-1.03,1.54-1.52,1.61-1.97.29-3.16-16.19-8.4-26.59-7-13.9-15.47-21.06-18.92-23.7,5.11.79,8.78,3.57,10.72,5.31,3.25,2.91,5.28,6.17,9.28,12.53.49.77,1.57,2.52,3.05,5.12-.49-2.92-1.07-5.94-1.73-9.06-1.66-7.76-3.59-14.72-5.56-20.83-1.29-4-2.6-7.64-3.85-10.89,1.77,1.77,4.31,4.6,6.89,8.81.49.8.94,1.58,1.36,2.37,2.5,4.58,4.05,9.02,5.81,14.05.36,1.01,1.15,3.31,2.15,6.69.65-4.98,1.29-8.36,1.54-9.68,1.03-5.32,1.93-10,3.73-15.01.12-.33.55-1.53,1-2.61,1.41-3.37,4.4-9.05,11.12-15.13-4.66,6.58-6.78,12.61-7.83,16.56-1.53,5.78-1.83,11.22-2.52,21.65-.21,3.2-.35,6.3-.42,9.27,1.09-2.85,1.91-4.79,2.28-5.65,5.15-11.91,6.37-13.44,7.36-14.2,1.27-.97,4.29-2.74,9.94-1.22Z"/>
  <path class="cls-9" d="m1884.46,409.36c-9.71,7.51-13.62,15.35-15.41,20.97-3.81,11.91-2.55,27.77-4.5,27.89-.15,0-.26-.07-.38-.19.45,1.59.55,2.69.16,3.04-.82.71-3.18-2.34-5.34-1.12-1.01.57-1.03,1.54-1.52,1.61-1.97.29-3.16-16.19-8.4-26.59-7-13.9-15.47-21.06-18.92-23.7,5.11.79,8.78,3.57,10.72,5.31,3.25,2.91,5.28,6.17,9.28,12.53.49.77,1.57,2.52,3.05,5.12-.49-2.92-1.07-5.94-1.73-9.06-1.66-7.76-3.59-14.72-5.56-20.83-1.29-4-2.6-7.64-3.85-10.89,1.77,1.77,4.31,4.6,6.89,8.81.49.8.94,1.58,1.36,2.37,2.5,4.58,4.05,9.02,5.81,14.05.36,1.01,1.15,3.31,2.15,6.69.65-4.98,1.29-8.36,1.54-9.68,1.03-5.32,1.93-10,3.73-15.01.12-.33.55-1.53,1-2.61,1.41-3.37,4.4-9.05,11.12-15.13-4.66,6.58-6.78,12.61-7.83,16.56-1.53,5.78-1.83,11.22-2.52,21.65-.21,3.2-.35,6.3-.42,9.27,1.09-2.85,1.91-4.79,2.28-5.65,5.15-11.91,6.37-13.44,7.36-14.2,1.27-.97,4.29-2.74,9.94-1.22Z"/>
  <path class="cls-14" d="m730.45,3.56c-26.46,15.39-37.13,31.48-42.01,42.99-10.37,24.42-6.95,56.93-12.28,57.17-.4.01-.7-.14-1.04-.4,1.23,3.26,1.51,5.51.43,6.23-2.23,1.45-8.68-4.8-14.57-2.29-2.75,1.17-2.82,3.16-4.15,3.31-5.38.6-8.61-33.19-22.91-54.51-19.08-28.49-42.17-43.18-51.58-48.58,13.93,1.62,23.93,7.32,29.22,10.89,8.85,5.97,14.39,12.65,25.3,25.69,1.33,1.58,4.29,5.17,8.31,10.49-1.34-5.98-2.91-12.18-4.72-18.57-4.51-15.9-9.78-30.18-15.16-42.71-3.52-8.21-7.08-15.66-10.49-22.32,4.84,3.62,11.75,9.43,18.78,18.07,1.33,1.64,2.56,3.25,3.71,4.86,6.8,9.39,11.03,18.48,15.85,28.8.98,2.07,3.14,6.78,5.86,13.71,1.76-10.2,3.51-17.14,4.19-19.85,2.8-10.9,5.25-20.49,10.18-30.77.32-.67,1.5-3.13,2.74-5.34,3.84-6.91,12.01-18.55,30.32-31.02-12.71,13.49-18.48,25.85-21.34,33.96-4.18,11.84-5,23-6.87,44.37-.58,6.57-.96,12.91-1.15,19.01,2.96-5.84,5.2-9.82,6.21-11.59,14.04-24.41,17.37-27.54,20.08-29.11,3.46-2,11.69-5.61,27.09-2.49Z"/>
  <path class="cls-9" d="m171.46,934.36c-9.71,7.51-13.62,15.35-15.41,20.97-3.81,11.91-2.55,27.77-4.5,27.89-.15,0-.26-.07-.38-.19.45,1.59.55,2.69.16,3.04-.82.71-3.18-2.34-5.34-1.12-1.01.57-1.03,1.54-1.52,1.61-1.97.29-3.16-16.19-8.4-26.59-7-13.9-15.47-21.06-18.92-23.7,5.11.79,8.78,3.57,10.72,5.31,3.25,2.91,5.28,6.17,9.28,12.53.49.77,1.57,2.52,3.05,5.12-.49-2.92-1.07-5.94-1.73-9.06-1.66-7.76-3.59-14.72-5.56-20.83-1.29-4-2.6-7.64-3.85-10.89,1.77,1.77,4.31,4.6,6.89,8.81.49.8.94,1.58,1.36,2.37,2.5,4.58,4.05,9.02,5.81,14.05.36,1.01,1.15,3.31,2.15,6.69.65-4.98,1.29-8.36,1.54-9.68,1.03-5.32,1.93-10,3.73-15.01.12-.33.55-1.53,1-2.61,1.41-3.37,4.4-9.05,11.12-15.13-4.66,6.58-6.78,12.61-7.83,16.56-1.53,5.78-1.83,11.22-2.52,21.65-.21,3.2-.35,6.3-.42,9.27,1.09-2.85,1.91-4.79,2.28-5.65,5.15-11.91,6.37-13.44,7.36-14.2,1.27-.97,4.29-2.74,9.94-1.22Z"/>
  <path class="cls-14" d="m423.45,992.56c-26.46,15.39-37.13,31.48-42.01,42.99-10.37,24.42-6.95,56.93-12.28,57.17-.4.01-.7-.14-1.04-.4,1.23,3.26,1.51,5.51.43,6.23-2.23,1.45-8.68-4.8-14.57-2.29-2.75,1.17-2.82,3.16-4.15,3.31-5.38.6-8.61-33.19-22.91-54.51-19.08-28.49-42.17-43.18-51.58-48.58,13.93,1.62,23.93,7.32,29.22,10.89,8.85,5.97,14.39,12.65,25.3,25.69,1.33,1.58,4.29,5.17,8.31,10.49-1.34-5.98-2.91-12.18-4.72-18.57-4.51-15.9-9.78-30.18-15.16-42.71-3.52-8.21-7.08-15.66-10.49-22.32,4.84,3.62,11.75,9.43,18.78,18.07,1.33,1.64,2.56,3.25,3.71,4.86,6.8,9.39,11.03,18.48,15.85,28.8.98,2.07,3.14,6.78,5.86,13.71,1.76-10.2,3.51-17.14,4.19-19.85,2.8-10.9,5.25-20.49,10.18-30.77.32-.67,1.5-3.13,2.74-5.34,3.84-6.91,12.01-18.55,30.32-31.02-12.71,13.49-18.48,25.85-21.34,33.96-4.18,11.84-5,23-6.87,44.37-.58,6.57-.96,12.91-1.15,19.01,2.96-5.84,5.2-9.82,6.21-11.59,14.04-24.41,17.37-27.54,20.08-29.11,3.46-2,11.69-5.61,27.09-2.49Z"/>
  <path class="cls-12" d="m605.74,372.83c-18.13,11.66-45.6-3.53-61.35-33.92-4.55-8.77-7.62-17.85-9.25-26.6-5.81,4.93-12.88,9.52-20.82,13.31-7.81,3.72-15.54,6.22-22.63,7.53,6.52,6.15,12.54,14.12,17.43,23.56,15.76,30.39,13.83,64.48-4.3,76.14-18.13,11.66-45.6-3.53-61.35-33.92-7.95-15.34-11.39-31.62-10.54-45.48-3.56-4.12-6.93-9.07-9.85-14.69-3.97-7.66-6.56-15.5-7.75-22.69-15.1-2.67-31.54-16.41-42.41-37.37-15.76-30.4-13.83-64.49,4.3-76.14,18.13-11.66,45.6,3.53,61.35,33.92,10.84,20.91,13.31,43.56,7.89,59.46,4.8,4.54,9.43,10.62,13.31,17.87,3.54-11.71,17.61-25.48,36.69-34.59,8.37-4,16.66-6.58,24.17-7.79-2.12-5.25-3.58-10.46-4.39-15.37-15.1-2.67-31.54-16.4-42.41-37.36-15.76-30.4-13.83-64.49,4.3-76.14,18.13-11.66,45.59,3.53,61.35,33.92,10.84,20.9,13.31,43.55,7.89,59.46,5.03,4.74,9.86,11.19,13.85,18.89.7,1.35,1.35,2.7,1.97,4.06,16.23.5,34.9,14.8,46.83,37.83,15.76,30.39,13.83,64.48-4.3,76.14Z"/>
  <ellipse class="cls-5" cx="682.74" cy="252.94" rx="74.6" ry="77.99" transform="translate(-35.91 369.77) rotate(-29.56)"/>
  <ellipse class="cls-3" cx="688.68" cy="265.39" rx="20.56" ry="20.66"/>
  <path class="cls-12" d="m835.44,223.87c-1.34-4.05-4.27-11.11-9.3-18.6-3.71-5.53-7.5-9.71-10.48-12.63-1.97-1.51-4.95-3.94-8.19-7.34-4.85-5.1-6.7-8.59-12.09-15.58-1.97-2.56-4.93-6.24-8.81-10.54,3.63.83,25.98,5.56,43.33-8.02,8.86-6.94,13.47-16.35,14.75-19.04,3.72-7.79,4.92-14.89,5.34-19.54.42-4.92.56-14.45-3.79-25.21-3.78-9.32-9.29-15.49-12.72-18.79-6.15-5.22-11.72-7.5-15.84-8.61-5.06-1.36-13.59-2.45-13.6-2.45h0c-12.49-2.69-22.44-1.02-35.38,1.16-8.26,1.39-19.6,4.04-32.5,9.5-16.06,2.57-21.44,9.28-23.47,12.89-3.45,6.13-3.78,14.92,12.68,51.55,7.36,16.39,14.38,30.13,20.12,40.74,2.93,6.35,6.21,10.63,8.72,13.4,2.45,2.7,4.94,4.83,7.24,9.01,1.71,3.11,2.56,5.98,3.01,7.92.69,8.53,3.04,22.47,11.96,36.27,13.4,20.73,40.52,39.46,53.69,31.62,11.74-6.99,9.98-33.68,5.34-47.7Zm-57.5-111.71c1.39-9.88,11.96-16.12,21.41-15.23,8.81.83,17.64,7.95,17.95,17.34.35,10.5-10.1,19.29-20.74,18.72-10.6-.57-20.09-10.36-18.62-20.83Z"/>
  <path class="cls-12" d="m1181.84,287.18c-19.39-3.14-28.14-30.46-19.55-61,2.48-8.82,6.13-16.94,10.54-23.95-6.96-.19-14.55-1.38-22.22-3.66-7.53-2.25-14.25-5.28-19.8-8.74.48,8.23-.52,17.4-3.18,26.89-8.59,30.55-31.27,52.77-50.66,49.63-19.39-3.14-28.14-30.46-19.55-61,4.34-15.42,12.26-28.71,21.53-37.7.21-5.02,1.08-10.49,2.67-16.14,2.17-7.7,5.37-14.67,9.08-20.35-8.38-11.12-10.7-30.66-4.78-51.72,8.59-30.55,31.27-52.77,50.66-49.63s28.15,30.45,19.55,61c-5.91,21.02-18.48,38.09-32.07,45.67.34,6.07-.39,13.09-2.36,20.45,9.71-5.86,27.72-6.67,46.15-1.19,8.08,2.4,15.23,5.73,20.99,9.51,1.89-4.91,4.19-9.38,6.73-13.25-8.38-11.12-10.7-30.65-4.78-51.72,8.59-30.55,31.27-52.77,50.66-49.63,19.39,3.14,28.15,30.45,19.55,61-5.9,21.01-18.48,38.08-32.07,45.67.37,6.35-.47,13.74-2.64,21.48-.38,1.35-.79,2.68-1.24,4,10.5,10.32,13.95,31.61,7.43,54.76-8.59,30.55-31.27,52.77-50.66,49.63Z"/>
  <ellipse class="cls-18" cx="880.6" cy="72.69" rx="8.15" ry="18.93" transform="translate(40.79 347.39) rotate(-22.83)"/>
  <ellipse class="cls-13" cx="1050.24" cy="68.39" rx="18.94" ry="8.14" transform="translate(770.47 1082.99) rotate(-78.31)"/>
  <path class="cls-16" d="m997.1,237.5c-4.71,4.57-7.72,4.08-8.41,3.93-6.29-1.34-8.36-14.51-9.17-19.65-1.1-7.02-1.79-18.83,3.06-33.81,3.2-21.28-4.36-39.11-16.48-43.89-2.44-.96-7.45-2.34-14.86-.14-.12-.03-.23-.06-.35-.08-4.63-.88-9.35,4.3-12.14,8.02,1.15,8.44,1.8,18.04,1.8,28.22,0,33.87-7.18,61.32-16.05,61.32s-16.05-27.45-16.05-61.32,7.18-61.32,16.05-61.32c3.52,0,6.79,4.34,9.44,11.71.92-.98,1.9-1.96,2.94-2.91,8.12-7.4,17.17-11.01,22.13-9.26,4.44-.32,12.44-.27,21.28,3.61,14.22,6.24,20.93,18.11,22.93,22.01.9,2.42,2.07,5.91,3.06,10.22,2.65,11.59,2.07,20.77,1.53,28.3-2.98,41.72-4.52,49.05-10.7,55.03Z"/>
  <path class="cls-16" d="m1275.34,166.97c6.37-3.74,9.43-2.47,10.15-2.11,6.38,3.23,4.87,18.59,4.28,24.59-.81,8.19-3.42,21.64-12.88,37.12-9.53,21.59-7.01,43.37,5.25,53.8,2.61,2.22,7.65,5.62,16.14,6.68,1.97-.21,5.12-.79,8.57-2.58,3.34-1.73,5.59-3.89,6.9-5.35,4.92-13.84,7.76-25.21,9.38-32.53,6.54-29.5,4.91-45.64,17.99-57.68,3.07-2.83,8.79-8.09,13.36-6.44,11.85,4.28,4.52,51.99-.16,73.26-2.05,9.33-6.91,21.54-16.63,45.95-4.94,12.41-8.23,19.72-12.85,19.8-5.96.11-10.65-11.83-11.99-15.5-2,1.72-4.84,3.71-8.57,5.17-9.75,3.8-18.7,1.18-21.83.09-4.86-.85-13.44-3.11-21.84-9.89-13.51-10.9-17.35-26.08-18.39-31.01-.28-2.96-.55-7.21-.38-12.32.45-14.01,3.77-24.19,6.39-32.2,14.39-43.99,17.23-53.06,27.12-58.86Z"/>
  <path class="cls-12" d="m1443.94,354.92c-6.89,3.15-10.05,1.48-10.75,1.07-6.49-3.82-4-18.81-3.03-24.67,1.33-8,4.86-20.99,15.69-35.32,11.29-21.75,9.39-43.83-2.32-53.56-2.36-1.96-7.42-5.34-16.43-5.76-.12-.08-.24-.15-.36-.22-4.81-2.69-11.94,1.11-16.39,4.07-1.8,9.54-4.57,20.14-8.27,31.13-12.32,36.54-30.27,63.44-40.1,60.09s-7.82-35.68,4.5-72.21c12.32-36.54,30.27-63.44,40.1-60.09,3.91,1.33,5.95,7.24,6.21,16.19,1.37-.71,2.82-1.39,4.32-2.03,11.69-4.92,23.05-5.4,27.92-1.64,5.04,1.33,13.89,4.41,22.29,11.93,13.51,12.1,16.63,27.44,17.43,32.4.12,2.95.15,7.16-.33,12.18-1.27,13.5-5.26,23.19-8.6,31.11-18.48,43.88-22.85,51.2-31.88,55.33Z"/>
  <path class="cls-16" d="m1620.75,226.74c2.26,4.05-.97,10.82-4.34,14.39-13.56,14.38-49.39-1.8-51.01-2.55-.52,2.81-1.54,7.11-3.68,12.01-3.06,7.01-6.28,10.35-11.45,18.25-2.22,3.39-5.34,8.44-8.67,14.97-4.51,8.05-9.03,16.1-13.54,24.15-3.31,5.47-6.91,12.47-9.91,20.93-3.7,10.46-5.31,19.89-6.01,27.22-.45,6.37,1.92,9.54,2.77,10.53,5.12,6,17.59,6.39,29.29-1.58,3.19-8.07,10.39-12.74,17.06-11.85,5.31.71,10.43,4.97,11.42,9.97,2.1,10.58-14.56,22.56-25.67,27.04-8.95,3.61-17.71,5.15-24.52,4.7-4.52.14-15.36-.18-25.9-7.26-3.6-2.41-12.44-8.34-15.29-18.84-1.78-6.54-.94-13.82-.73-15.57.32-2.83.85-5.17,1.29-6.82.55-3.65,1.4-8.59,2.76-14.36,3.59-15.31,8.34-26.42,11.19-33.02,4.21-9.76,8.86-18.71,13.61-26.44v-.02c3.85-6.61,7.7-13.26,11.54-19.97,5.01-8.74,9.95-17.44,14.82-26.11-4.82-1.52-42.78-13.76-41.6-26.75.42-4.59,5.56-7.49,6.89-8.24,10.79-6.08,28.32-.2,43.7,14.86.75-4.19,1.59-8.45,2.52-12.78,3.41-15.87,7.61-30.58,12.22-44.08.59-1.41,4.37-10.1,12.78-12.12,4.64-1.12,10.47-.06,14.51,3.29,15.98,13.28-3.8,60.71-8.42,71.41-.27.62-.53,1.23-.81,1.85,4.62,2.42,11.9,5.68,21.3,7.52,11.91,2.34,19.41.87,21.87,5.28Z"/>
  <ellipse class="cls-10" cx="385" cy="239.5" rx="9" ry="26.5"/>
  <ellipse class="cls-10" cx="745.65" cy="84.33" rx="21.64" ry="8.76" transform="translate(25.7 295.94) rotate(-22.83)"/>
  <ellipse class="cls-10" cx="1113" cy="68.5" rx="26.5" ry="9" transform="translate(497.18 998.14) rotate(-60)"/>
  <ellipse class="cls-10" cx="1582.31" cy="156.08" rx="4.47" ry="13.21" transform="translate(-7.22 194.4) rotate(-7.01)"/>
  <path class="cls-10" d="m1723.84,87.64c1.7,1.49,18.89,16.54,25.98,15.91,3.39-.3,3.73-4.12,2.73-7.06-2.76-8.14-17.94-15.78-23.5-18.72-14.1-7.45-28.45-10.41-28.71-8.85-.16.95,4.95,2.98,13.01,9.34,5.15,4.06,5.96,5.41,10.49,9.38Z"/>
  <path class="cls-10" d="m189.53,54.91c.16-.04.27-.06.35-.08,2.99-.65,18.68-4.26,20.6-9.58.97-2.67-1.75-5.2-4.29-6.21-7.02-2.81-18.04,3.82-22.17,6.16-8.06,4.57-14.87,8.52-16.67,15.87-.58,2.39-.87,6.12.64,6.93,2.43,1.3,9.4-4.91,14-9,.87-.78,3.5-3.17,7.53-4.09Z"/>
  <path class="cls-10" d="m1643.28,942.3c-1.27,1.19-14.1,13.28-12.93,19.11.56,2.78,4.18,3.54,6.89,3.1,7.46-1.23,13.46-12.6,15.78-16.75,5.9-10.52,7.54-21.79,6.05-22.2-.91-.25-2.42,3.65-7.77,9.4-3.42,3.68-4.63,4.17-8.01,7.35Z"/>
  <path class="cls-10" d="m41.04,725.64c.06-.15.1-.25.14-.34,1.15-2.83,7.06-17.81,3.77-22.4-1.65-2.31-5.27-1.5-7.55.02-6.29,4.2-7.07,17.03-7.48,21.76-.8,9.23-1.41,17.08,3.64,22.72,1.64,1.83,4.55,4.18,6.08,3.39,2.45-1.26,1.28-10.53.51-16.64-.15-1.16-.63-4.68.89-8.52Z"/>
  <path class="cls-8" d="m724.93,783.51c11.65,10.92,23.53,12.82,42.84,15.87,11.16,1.78,28.7,4.38,50.87,0,.48-.1,1.04-.22,1.61-.32,18.05-3.62,76.68-16.63,86.74-63.16,3.61-16.7.67-36.34-8.03-50.79-8.73-14.47-21.9-21.55-37.46-24.73.46,3.43.43,6.95-.03,10.44-1.77,13.39-10.84,30.15-25.43,30.15-13.95,0-25.43-13.62-25.43-30.15,5.46-4.19,10.98-8.35,16.44-12.54-8.03.25-16.25.83-24.47,1.43-19.17,1.36-38.5,2.92-56.14,12.12,1.77,1.24,3.51,2.51,5.27,3.75,8.92,4.22,17.86,8.47,26.77,12.7-.05,1.21-1.2,21.33-13.57,28.63-13.15,7.71-28.78-4.89-35.88-16.28-2.3-3.71-3.88-7.59-4.93-11.43-3.59,3.81-8.7,9.52-12.93,17.17-3.96,7.11-7.15,15.9-7.66,26.34-1.37,28.79,18.74,48.28,21.42,50.79Z"/>
  <path class="cls-4" d="m788.91,846.03c5.26,3.26,13.51,9.46,21.42,20.74,8.58,12.23,12.88,24.93,15,32.6"/>
  <path class="cls-4" d="m675.4,886.67c2.86,2.17,7.35,6.3,11.65,13.82,4.66,8.15,7.01,16.61,8.15,21.72"/>
  <path class="cls-4" d="m795.88,667.66c-1.16-6.82-3.51-25.35,4.02-46.02,6.56-18.02,17.18-28.19,22.06-32.31"/>
  <path class="cls-4" d="m775.8,672.42c-2.74-8.89-7.04-26.56-4.57-48.71,1.97-17.66,7.44-30.9,11.26-38.58"/>
  <path class="cls-4" d="m574.09,726.6c.19.1.27.16.29.16,0,0-.11-.06-.29-.16Z"/>
  <path class="cls-4" d="m569.76,724.76c2.09.95,3.56,1.52,4.23,1.81-.75-.38-2.41-1.27-3.94-2.03-.11.03-.19.1-.29.22Z"/>
  <ellipse class="cls-7" cx="833.36" cy="899.37" rx="9.4" ry="4.75" transform="translate(-119.02 127.15) rotate(-8.15)"/>
  <ellipse class="cls-7" cx="736.87" cy="916.78" rx="7.45" ry="4.7" transform="translate(-406.59 641.17) rotate(-37.66)"/>
  <ellipse class="cls-7" cx="699.69" cy="923.8" rx="7.09" ry="4.94"/>
  <ellipse class="cls-7" cx="626.34" cy="926.33" rx="4.9" ry="8" transform="translate(-431.58 1288.53) rotate(-74.83)"/>
  <ellipse class="cls-7" cx="820.73" cy="594.34" rx="7.82" ry="4.93" transform="translate(-174.54 403.89) rotate(-25.08)"/>
  <ellipse class="cls-7" cx="784.28" cy="587.11" rx="9.04" ry="4.33" transform="translate(-83.59 1041.63) rotate(-64.46)"/>
  <path class="cls-15" d="m810.61,670.83c0,16.54,11.49,30.15,25.43,30.15,14.59,0,23.67-16.76,25.43-30.15.46-3.49.48-7.01.03-10.44-1.18-10.06-5.97-19.52-13.41-26.06-6.24,7.4-12.5,14.82-18.74,22.22-.78.57-1.53,1.17-2.3,1.75-5.46,4.19-10.98,8.35-16.44,12.54Z"/>
  <path class="cls-15" d="m724.1,689.21c1.04,3.84,2.62,7.71,4.93,11.43,7.09,11.39,22.73,24,35.88,16.28,12.37-7.3,13.52-27.42,13.57-28.63-8.92-4.22-17.86-8.47-26.77-12.7-1.77-1.24-3.51-2.51-5.27-3.75-7.18-5.11-14.35-10.19-21.5-15.3-.51,1.62-5.17,16.89-.83,32.66Z"/>
  <path class="cls-11" d="m483.98,647.03c4.66,14.7,12.5,22.98,24.1,34.91,22.44,23.11,47.63,36.34,59.46,41.83-.37-.32-.56-.51-.56-.57.08-.13,1.53.54,3.08,1.33,1.34.67,2.81,1.46,3.64,1.9-.75-.32-2.12-.86-3.94-1.68-.16.06-.29.16-.46.32,7.84,5.62,34.19,22.66,59.6,38.95.16-.13.29-.29.46-.41l31.59-19.62c-3.11-7.27-6.16-14.06-9.16-20.38-2.38-5.08-4.71-9.84-6.96-14.28-1.5-3.02-2.97-5.84-4.36-8.54-2.2-4.16-4.26-7.94-6.13-11.33-5.01-9.01-9.88-17.24-14.59-24.66-4.34-5.97-7.52-10-9.91-14.82-.16-.32-.32-.67-.48-1.02-14.16-20.47-25.62-33.26-32.26-40.25-14.91-15.74-23.19-21.27-29.99-24.82-.62-.35-1.74-.92-3.19-1.65-6.75-3.36-32.58-15.78-48.59-4.57-16.68,11.65-18.66,46.25-11.35,69.35Z"/>
  <path class="cls-1" d="m566.97,723.21c0,.06.19.25.56.57.4.32.99.76,1.77,1.3.16-.16.29-.25.46-.32,2.09.95,3.56,1.52,4.23,1.81-.75-.38-2.41-1.27-3.94-2.03-1.55-.79-3-1.46-3.08-1.33Z"/>
  <path class="cls-2" d="m438.46,729.55c3.56,6.73,9.48,16.44,18.74,25.39,2.61,2.52,4.88,4.41,7.06,5.97,12.13,8.67,20.56,12.43,27.75,16.25,19.42,10.34,31.69,27.04,37.48,34.91,6.33,8.62,10.66,16.62,13.39,22.22,6.76,8.92,18.12,21.78,34.8,31.74,13.95,8.33,25.36,10.84,48.19,15.87,21.32,4.7,33.86,7.63,50.87,6.35,13.9-1.05,25.51-4.95,48.19-12.7,35.29-12.06,52.93-18.09,64.26-28.57,4.26-3.94,25.89-23.93,31.06-47.93-.56.1-1.12.22-1.61.32-22.17,4.38-39.7,1.78-50.87,0-19.3-3.05-31.19-4.95-42.84-15.87-2.68-2.51-22.78-22-21.42-50.79.51-10.44,3.69-19.23,7.66-26.34-6.45-1.49-12.82-2.7-19.06-3.62-5.25-.79-10.39-1.4-15.37-1.78-6.4-.51-19.81-1.56-36.28-.19,1.39,2.7,2.86,5.52,4.36,8.54,2.25,4.44,4.58,9.2,6.96,14.28,3,6.32,6.05,13.11,9.16,20.38l-31.59,19.62c-.16.13-.29.29-.46.41-25.41-16.28-51.75-33.33-59.6-38.95-7.63,5.49-14.86,12.22-21.31,20.35-23.16-.89-34.72,6.03-58.66,3.17-22.3-2.63-39.78-11.87-50.87-19.04Z"/>
  <path class="cls-11" d="m615.16,599.42c-2.29,15.42-2.56,33.26-2.68,41.26-.08,5.23-.05,9.6,0,12.7,2.99,4.61,5.45,8.52,7.26,11.43,3.24,5.21,8.45,13.53,14.59,24.66,1.87,3.4,3.94,7.17,6.13,11.33,9.52-1.97,22.08-3.02,36.28.19,3.84.87,7.41,1.96,10.71,3.17,10.3-17.25,24.27-45.1,32.13-82.53,6.4-30.49,17.41-82.49-5.35-104.74-14.03-13.71-35.35-11.64-48.19-6.35-19.93,8.21-29.56,28.09-37.48,44.44-1.68,3.47-9.87,20.75-13.39,44.44Z"/>
  <path class="cls-10" d="m869.51,735.9c-14.05,6.31-32.16,12.8-53.66,16.61-23.01,4.08-43.12,3.89-58.78,2.44,9.78,2.36,16.07,5.95,20.11,8.95,1.92,1.43,6.89,4.91,14.1,8.65,1.14.59,2.42,1.15,4.03,1.7,10.5,3.6,20.31,1.97,24.71,1.2,3.49-.62,11.58-2.13,20.01-7.59,1.99-1.29,3.22-2.27,4.05-3,5.48-4.81,7.98-10.43,9.38-13.08,2.4-4.56,6.88-10.51,16.06-15.87Z"/>
  <path class="cls-4" d="m737.64,756.7c.45-1.4,1.31-3.59,2.87-5.7,1.69-2.28,3.45-3.43,4.51-3.99"/>
  <path class="cls-21" d="m672.73,889.85c9.82-2.12,19.63-4.23,29.45-6.35-6.73-21-14.58-52.66-16.06-92.05-1.4-37.1,3.34-67.8,8.03-88.87-8.03-1.06-16.06-2.12-24.1-3.17-5.49,22.56-11.24,55.36-10.71,95.22.54,40.09,7.24,72.83,13.39,95.22Z"/>
  <path class="cls-21" d="m742.34,870.8c8.03-3.3,16.06-6.59,24.1-9.89-2.7-2.88-7.35-8.41-11.43-16.81-.73-1.5-2.61-5.5-4.51-11.64-4.21-13.64-5.33-27.57-5.48-37.83-6.25-3.17-12.49-6.35-18.74-9.52-2.04,6.13-7.65,25.29-2.55,48.65,4.41,20.21,14.41,32.44,18.62,37.05Z"/>
  <path class="cls-21" d="m600.44,877.15c9.82,2.12,19.63,4.23,29.45,6.35-4.44-13.77-9.62-34.49-10.71-60.31-1.07-25.32,2.19-46.2,5.35-60.31-7.14-5.29-14.28-10.58-21.42-15.87-4.66,14.64-10.34,37.72-10.71,66.66-.34,27.06,4.1,49.04,8.03,63.48Z"/>
  <path class="cls-21" d="m536.18,823.19c2.22,4.46,5.63,10.22,10.71,15.87,3.81,4.25,7.57,7.32,10.71,9.52-2.25-12.92-4.12-31.04-2.29-52.44,2.65-31.04,11.85-54.53,18.35-68.18-2.24-2.61-4.1-3.15-5.35-3.17-6.45-.14-8.67,12.82-18.74,19.04-4.03,2.49-7.98,3.08-10.71,3.17-3.17,7.86-7.95,22.36-8.03,41.26-.07,15.22,2.93,27.36,5.35,34.91Z"/>
  <path class="cls-21" d="m496.02,778.75c4.46,3.17,8.92,6.35,13.39,9.52-1.03-2.83-2.3-7.19-2.68-12.7-.05-.72-.2-3.27,0-6.35.53-8.03,3.19-14.72,5.35-19.04-4.46,0-8.92,0-13.39,0-1.41,2.47-4.27,8.25-4.5,16.27-.15,5.41.96,9.72,1.82,12.29Z"/>
  <path class="cls-4" d="m858.8,742.25c-5.89,6.08-18.59,17.49-37.48,22.22-24.34,6.09-43.86-2.71-50.87-6.35"/>
  <path class="cls-4" d="m805.25,767.64c.04-1,.04-2.06,0-3.17-.15-3.75-.8-6.98-1.54-9.56"/>
  <path class="cls-4" d="m830.37,762.11c.18-1.59.3-3.78,0-6.35-.31-2.7-.97-4.87-1.54-6.38"/>
  <path class="cls-4" d="m819.46,776.47c.25-.94.45-1.93.58-2.95.42-3.45-.17-6.29-1.03-8.49"/>
  <ellipse class="cls-10" cx="837.38" cy="685.12" rx="2.68" ry="3.17"/>
  <ellipse class="cls-17" cx="830.87" cy="671.02" rx="1.34" ry="1.59"/>
  <ellipse class="cls-17" cx="849.43" cy="670.83" rx="1.34" ry="1.59"/>
  <ellipse class="cls-17" cx="758.4" cy="689.88" rx="1.34" ry="1.59"/>
  <ellipse class="cls-17" cx="747.69" cy="696.23" rx="1.34" ry="1.59"/>
  <ellipse class="cls-10" cx="759.74" cy="707.34" rx="2.68" ry="3.17"/>
  <path class="cls-4" d="m664.69,699.4c2.53-7.21,7.68-18.75,18.4-31.09,11.63-13.38,24.56-21.64,32.46-26.04"/>
  <path class="cls-4" d="m683.44,667.66c1.54-12.75,5.1-32.97,14.09-53.59,9.75-22.35,21.48-35.07,28.75-41.64"/>
  <path class="cls-4" d="m704.85,601c-3.06-7.72-7.17-21.1-7.72-40.25-.6-20.76,3.25-38.92,6.06-49.54"/>
  <path class="cls-4" d="m696.35,545.79c-4.29,8.88-12.89,23.24-30.3,39.24-18.87,17.35-39.59,28.8-52.23,35.02"/>
  <path class="cls-4" d="m670.05,686.7c-3.4-9.95-7.79-26.92-7.47-49.98.35-25,6.1-45.87,10.15-57.94"/>
  <path class="cls-4" d="m645.95,601c-1.35,10.62-3.79,27.23-7.77,43.09-4.31,17.19-8.48,25.74-10.97,29.91"/>
  <path class="cls-4" d="m635.24,689.88c1.31-4.03,3.99-10.48,9.64-17.34,6.12-7.43,12.95-11.99,17.14-14.4"/>
  <path class="cls-4" d="m638.35,759.28c-3.36-6.59-8.1-17.98-10.09-34.14-2.15-17.52-.08-32.73,1.62-41.61"/>
  <path class="cls-4" d="m627.21,721.62c-7.12-9.77-17.76-25.95-25.46-45.71-8.35-21.42-9.47-37.37-9.34-46.34"/>
  <path class="cls-4" d="m600.44,674.01c-9.14-10.41-23.1-27.36-34.65-46.7-12.53-20.97-16.58-35.29-18.07-43.16"/>
  <path class="cls-4" d="m577.22,645c-12.21-5.13-31.22-14.26-48.89-28.34-19.15-15.27-28.08-29.47-32.3-37.87"/>
  <path class="cls-4" d="m605.79,750.19c-1.68-5.22-3.81-14.25-3.37-27.11.48-13.94,3.76-26.1,6.04-33.19"/>
  <path class="cls-4" d="m603.12,721.62c-8.48-9.83-21.39-25.87-31.96-44.31-11.46-19.99-14.99-33.79-16.23-41.39"/>
  <path class="cls-4" d="m579.02,731.14c-3.67-6.25-8.99-16.75-12.01-30.34-3.28-14.73-2.38-26.44-1.37-33.14"/>
  <path class="cls-4" d="m565.63,699.4c-8.27-4.92-27.83-18.23-41.5-46.02-10.8-21.96-12.89-42.76-13.33-53.63"/>
  <path class="cls-4" d="m518.37,691.49c-1.82-8.31-4.35-21.48-5.22-34.88-.94-14.53.49-22.78,1.62-27.04"/>
  <path class="cls-4" d="m621.86,921.59c1.04-7.53,3.38-19.48,9.12-31.7,6.22-13.25,13.63-20.85,18.22-24.78"/>
  <path class="cls-4" d="m739.66,915.24c-1.52-2.62-15.35-27.23-6.69-52.37,2.95-8.58,7.59-14.48,11.18-18.17"/>
</svg>