<?xml version="1.0" encoding="UTF-8"?><svg id="green_tomat" xmlns="http://www.w3.org/2000/svg" width="1920" height="1080" viewBox="0 0 1920 1080"><defs><style>.cls-1{fill:#fff;}.cls-2{fill:#666;}.cls-3{fill:#333a2c;}.cls-4{fill:#d9ecfb;}.cls-5{fill:#564c4f;}.cls-6{fill:#5c7346;}.cls-7{fill:#616b55;}.cls-8{fill:#7b8466;}.cls-9{fill:#828e75;opacity:.81;}</style></defs><path class="cls-2" d="m371.22,1080c77.19-93.96,380.44-348,471.28-425.98,100.42-86.21,242.8-78.32,312.82-77.5,88.99,1.04,169.22-5.96,181.37-4.55,12.15,1.4,88.39-1.44,12.12-.2-76.27,1.24,95.53,15.79,114.88,15.48-112.48,13.46-201.79,5.25-272.14,18.65-70.35,13.4-122.34,32.34-137.6,68.24-15.26,35.9,236.16,225.49,363.32,265.75,124.01,39.27,389.85,105.06,359.7,119.03-3.65,1.69,8.59-37.49,5.31,13.68l-1411.07,7.4Z"/><polygon class="cls-1" points="648.58 822.44 554.61 975.58 525.15 961.88 612.92 818.79 648.58 822.44"/><polygon class="cls-1" points="919.47 833.4 933.82 1000.14 856.55 1000.87 882.76 833.93 919.47 833.4"/><polygon class="cls-1" points="816.06 837.73 826.85 994.07 743.66 995.82 779.35 838.26 816.06 837.73"/><polygon class="cls-1" points="1009.89 830.96 1080.01 981.88 980.63 989.37 968.29 833.4 1009.89 830.96"/><polygon class="cls-1" points="1132.3 828.53 1222.03 981.93 1134.68 975.8 1080.01 834.61 1132.3 828.53"/><polygon class="cls-1" points="718.7 828.53 684.23 984.32 590.21 986.89 694.71 829.55 718.7 828.53"/><polygon class="cls-1" points="1233.33 810.27 1372.38 967.28 1267.79 981.88 1186.98 822.44 1233.33 810.27"/><rect class="cls-4" x="-48.63" width="1995.78" height="426.2"/><path class="cls-8" d="m1.76,650.14c486.07-19.77,974.46-6.95,1461.31-15.48,1.03-.02,2.05.1,3.05.33,23.77,5.43,32.12-43.64,14.19-53.98-3.52-2.03-7.72-2.05-11.39-.36-33.49,15.43-72.05,11.87-106.73,1.93-.98-.28-2.48.48-3.01-.48-37.16-67.58-86.88-55.56-138.51-33.92-20.59,8.63-41.79,10.36-63.57,7.14-.58-.09-1.43.17-1.71-.39-24.93-50.51-48.76-97.5-119.92-32.72-25.52,23.24-67.33,13.43-94.45-9.04-.28-.23-.55-.48-.82-.73-12.92-12.37-40.8-14.08-41.2-32.3-.72-33.34-149.39-95.98-168.77-73.34-1.88,2.2-4.38-3.64-5.66-6.3-13.57-28.14-59.99-52.72-59.99-52.72,10.64,1-207.27-70.59-233.49-64.07-1.18.29-2.45.79-3.59.34-101.25-39.61-120.78-11.96-156.21,2.05-.38.15-.82.04-1.23.1-36.91,4.71-31.58-18.54-14.59-32.34,10.5-8.53,5.73-26.69-7.29-27.63-.14-.01-.28-.02-.42-.03-.8-.07-1.59-.07-2.38.03-15.11,1.9-28.14,13.06-43.91,7.55-.53-.19-1.06-.43-1.57-.69-63.6-32.75-53,7.08-108.62,11.8-1.25.11-2.51.01-3.75-.23-10.91-2.16-19.34,8.16-29.3,13.28-1.05.54-2.17.92-3.31,1.16-29.97,6.31-55.03,28.32-82.39,43.68-.54.3-1.1.56-1.67.79-36.68,14.76-11.23,60.21-6.86,92.96.07.51.16,1.01.27,1.51,15.65,66.92,15.1,137.12,14.42,206.41,0,.45.01.9.05,1.35,1.9,25.38-6.25,49.48,21.19,44.56.6-.11,1.2-.18,1.8-.21Z"/><path class="cls-9" d="m8.96,458.96c32.33-19.66,107.88-30.37,174.53-25.54,27.03,17.46-14.33,11.81,102.39,11.81,43.42,0,122.54-10.36,156.11-5.02,60.17-6.32,145.02-65.61,211.01-68.98,28.02-7.45,50.49-20.07,93.66-20.07,32.01,0,113.15,11.95,137.81,16.3,3.67,0,68.45,11.29,72.13,11.29,3.02,0,70.19-23.21,73.21-23.2,41.01-15.6,127.1,84.65,213.17,84.65,65.52,0,112.38-24.82,155.03-15.05,12.02-.33,151.29-1.88,163.64-1.88,78.98,0,181.73-71.78,240.08-60.2,0,0,100.29-53,127.04-34.49,13.76,9.52,13.63,37.66,10.77,51.42,19.38,25.08,24.76,62.42,24.76,84,0,17.6-26.25,33.46-68.23,44.65,20.52,18.19,31.48,37.27,31.48,56.96h-964.39s-965.36,0-965.36,0c0-21.17-12.22-41.41,11.39-60.82-33.37-21.95-27.69-29.15-.24-45.85Z"/><path class="cls-3" d="m1570.41,618.04c-31.12,66.75-67.78,186.84-262.55,172.06-174.51-13.24-254.08-65.85-276.42-143.39-20.24-70.25,192.01-79.15,387.42-81.09,278.34-2.76,188.54-26.91,151.55,52.41Z"/><polygon class="cls-7" points="1855.37 790.11 1202.5 799.6 1358.32 933.1 1855.37 790.11"/><path class="cls-7" d="m-14.3,794.11c199.65-125.47,536.02-60.53,751.07-27.64-51.55,44.1-180.78,140.97-201.35,164.59-168.09,25.93-293.32-122.48-524.22-81.32-22.4,3.99-16.79-44-25.5-55.64Z"/><path class="cls-6" d="m806.52,689.12c-51.18,133.77-146.28,92.44-348.43,53.24-21.16-4.1-97.11-3.92-254.94,21.88-238.37,38.96-243.7,77.99-231.9-203.29,2.29-54.7,5.42-172.66-.88-221.89-6.76-52.8-15.48-83.57-22.1-101.47-4.11-11.11,8.22-21.22,19.76-16.2,98.04,42.61,355.72,241.6,468.2,264.52,123.36,25.14,431.16,83.56,555.97,84.01,19.37.07-176.25,94.55-185.68,119.2Z"/><path class="cls-5" d="m1140.58,792.04c114.66,61.99,113.14,11.78,333.78,18.04,22.74.65,131.39-23.77,132.3-23.9,254.69-38.9,328.19,167.97,323.47-116.38-.92-55.29-.98-174.59,7.04-224.57,8.6-53.6,18.66-84.95,26.15-103.23,4.65-11.35-8.1-21.27-20.44-15.9-104.81,45.55-382.68,253.32-502.21,279.31-131.09,28.5-313.62,10.27-365.17,119.82-2.78,5.91,59.16,63.64,65.07,66.83Z"/><path class="cls-3" d="m973.22,564.66c-3.54-4.55-11.8-7.04-19.1-5.92-2.07-1.39-4.27-2.73-6.6-4.01.51-.96.78-1.97.78-3,0-6.44-10.35-11.66-23.12-11.66-4.75,0-9.16.72-12.84,1.96-6.58-1.46-13.53-2.6-20.75-3.38-3.07-1.73-7.33-2.8-12.06-2.8-3.5,0-6.76.59-9.45,1.6-.4,0-.8,0-1.2,0-.33,0-.66,0-.99,0-4.49-3.61-12.72-6.04-22.14-6.04-7.17,0-13.65,1.4-18.32,3.67-1.32-.08-2.65-.12-4-.12-8.64,0-16.61,1.59-22.99,4.28-12.9.29-25.39,2.08-28.32,6.37-1.51,2.21-2.33,5.11-2.01,8.3-6.51,2.53-10.82,6.93-10.82,11.92,0,4.08,2.87,7.75,7.47,10.34-2.25,4.21-3.44,8.63-3.44,13.19h211.13c0-4.9-1.38-9.65-3.97-14.15,4.44-2.49,5.75-6.7,2.75-10.56Z"/><path class="cls-3" d="m693.82,709.19c-4.98-10.67-17.26-16.74-28.36-14.43-3.01-3.3-6.23-6.48-9.65-9.53.84-2.2,1.33-4.51,1.41-6.92.5-14.89-14.71-27.37-33.99-27.87-7.17-.19-13.89,1.31-19.53,4.03-9.82-3.65-20.22-6.55-31.05-8.64-4.49-4.11-10.85-6.76-17.98-6.95-5.29-.14-10.24,1.09-14.39,3.32-.61-.02-1.21-.05-1.82-.07-.5-.01-1-.02-1.49-.03-6.49-8.53-18.72-14.46-32.94-14.83-10.82-.28-20.71,2.71-27.93,7.76-1.98-.23-3.99-.37-6.03-.43-13.04-.34-25.19,3.03-35.04,8.98-19.49.16-38.49,3.81-43.24,13.61-2.44,5.04-3.91,11.73-3.69,19.11-10.03,5.6-16.88,15.59-17.27,27.14-.32,9.43,3.73,18.04,10.46,24.21-3.72,9.65-5.87,19.83-6.23,30.37l159.26,4.17,159.42,4.17c.38-11.34-1.33-22.37-4.88-32.87,6.9-5.59,9.2-15.25,4.97-24.32Z"/><path class="cls-3" d="m759.29,681.2c-4.51-8.85-15.54-13.88-25.47-11.97-2.71-2.73-5.61-5.37-8.69-7.9.74-1.82,1.17-3.74,1.24-5.74.39-12.35-13.3-22.69-30.57-23.11-6.43-.16-12.44,1.09-17.48,3.34-8.82-3.02-18.14-5.44-27.86-7.17-4.04-3.41-9.75-5.61-16.14-5.76-4.74-.11-9.17.91-12.88,2.75-.54-.02-1.08-.04-1.63-.05-.45-.01-.89-.01-1.34-.02-5.85-7.08-16.84-11.99-29.58-12.3-9.7-.23-18.55,2.25-25,6.44-1.77-.19-3.58-.31-5.41-.35-11.69-.28-22.56,2.51-31.36,7.45-17.46.13-34.47,3.16-38.69,11.29-2.17,4.18-3.45,9.73-3.22,15.85-8.96,4.65-15.06,12.93-15.36,22.51-.25,7.82,3.42,14.96,9.47,20.08-3.29,8.01-5.18,16.45-5.46,25.19l142.72,3.45,142.87,3.46c.3-9.4-1.29-18.55-4.51-27.26,6.16-4.64,8.18-12.65,4.35-20.17Z"/><path class="cls-3" d="m824.76,653.21c-4.04-7.03-13.82-11.02-22.58-9.5-2.41-2.17-4.99-4.27-7.73-6.28.65-1.45,1.02-2.97,1.06-4.56.28-9.81-11.88-18.02-27.16-18.35-5.68-.12-10.99.86-15.44,2.65-7.81-2.4-16.07-4.32-24.67-5.69-3.59-2.71-8.65-4.45-14.3-4.57-4.19-.09-8.1.72-11.37,2.19-.48-.01-.96-.03-1.44-.04-.4,0-.79-.01-1.18-.02-5.21-5.62-14.95-9.52-26.21-9.77-8.57-.19-16.38,1.78-22.06,5.11-1.57-.15-3.17-.25-4.78-.28-10.33-.22-19.93,2-27.68,5.92-15.44.11-30.46,2.51-34.14,8.96-1.89,3.32-3,7.73-2.76,12.59-7.9,3.69-13.24,10.27-13.45,17.88-.17,6.21,3.1,11.88,8.49,15.95-2.86,6.36-4.49,13.06-4.68,20l126.19,2.74,126.32,2.74c.21-7.47-1.24-14.73-4.14-21.65,5.42-3.68,7.16-10.05,3.74-16.02Z"/><path class="cls-3" d="m718.27.99c-21.57,35.73-33.69,75.87-33.69,118.29,0,149.22,149.74,270.18,334.46,270.18,19.88,0,39.36-1.4,58.29-4.09,20.24,9.63,41.46,18.08,63.56,25.25,48.13,41.77,111.65,71.81,183.27,84.24v523.67h34.37V499.39c13.07,1.19,26.35,1.81,39.82,1.81,193.95,0,351.21-126.84,351.64-283.43,17.51-28.76,31-59.62,39.75-92.14,35.83-36.27,60.98-78.65,72.07-124.63H718.27Z"/></svg>