<?xml version="1.0" encoding="UTF-8"?>
<svg id="startscreen" xmlns="http://www.w3.org/2000/svg" viewBox="0 0 483 343">
  <defs>
    <style>
      .cls-1 {
        fill: #237532;
      }

      .cls-1, .cls-2, .cls-3 {
        stroke: #001300;
        stroke-miterlimit: 10;
      }

      .cls-2 {
        fill: #fff;
      }

      .cls-3 {
        fill: #ac3d8f;
      }
    </style>
  </defs>
  <path class="cls-1" d="m364.91,149.32c39.4,9.89,78.8,19.77,118.2,29.66.54,19.59-1.88,47.11-19.31,67.16-13.74,15.8-26.61,15.23-53.63,30.86-37.6,21.75-41.16,39.33-64.92,54.18-10.48,6.55-39.59,21.76-116.33,3.68C211.84,330.84-.32,280.86-.1,178.83,0,139.61,31.44,100.2,40.95,88.28c18.54-23.23,37.27-35.73,56.67-48.68C132.18,16.55,156.83.09,189.18.2c18.08.06,25.69,5.25,60.68,6.07,17.96.42,29.94-.62,36.43-.94,43.33-2.17,115.73,13.82,163.67,68.49,8.37,9.54,20.17,25.03,30.46,47.75-38.5,9.25-77.01,18.5-115.51,27.75Z"/>
  <path class="cls-2" d="m128.13,67.8c1.08-.38,12-4.22,13.2-8.07.57-1.84-1.2-3.3-2.84-3.76-4.52-1.29-11.43,3.98-14.03,5.86-6.59,4.78-11.06,11.18-10.36,11.84.42.4,2.49-1.56,7.27-3.59,3.06-1.3,3.88-1.26,6.76-2.28Z"/>
  <path class="cls-3" d="m112.97,225.55c-.21-2.73-.92-7.57-2.82-12.97-1.4-3.98-3.05-7.14-4.39-9.39-.96-1.22-2.37-3.16-3.8-5.74-2.15-3.87-2.73-6.32-4.93-11.46-.8-1.88-2.02-4.6-3.71-7.84,2.04,1.02,14.67,7.1,27,.99,6.3-3.12,10.42-8.39,11.58-9.9,3.36-4.37,5.11-8.67,6.04-11.53.97-3.03,2.45-9,1.43-16.35-.89-6.38-3.27-11.01-4.83-13.56-2.9-4.13-5.89-6.34-8.18-7.61-2.82-1.56-7.74-3.43-7.74-3.43h0c-7.05-3.42-13.23-3.76-21.25-4.19-5.13-.27-12.27-.19-20.76,1.44-9.95-.62-14.14,2.85-15.87,4.83-2.96,3.37-4.44,8.84,0,34.12,1.99,11.31,4.16,20.91,6.03,28.37.82,4.4,2.15,7.54,3.23,9.62,1.06,2.04,2.23,3.72,2.99,6.66.57,2.19.65,4.11.63,5.39-.84,5.45-1.48,14.53,1.82,24.43,4.95,14.87,18.37,30.4,27.36,27.31,8.02-2.76,10.88-19.76,10.17-29.2Zm-17.91-78.12c2.28-6.01,9.49-8.46,14.99-6.59,5.13,1.75,9.35,7.44,8.15,13.38-1.33,6.64-8.84,10.7-15.1,8.87-6.23-1.83-10.46-9.29-8.04-15.66Z"/>
  <ellipse class="cls-2" cx="80.87" cy="125.69" rx="13.35" ry="5.6" transform="translate(-22.96 18.18) rotate(-11.25)"/>
  <path class="cls-3" d="m192.64,247.22c-6.9.53-21.34,1.45-33.48-7.44-1.5-1.1-2.66-2.12-3.44-2.86-3.76-14.27-8.14-35.52-8.81-61.52-.72-27.67,2.63-65.76,9.2-66.19,7.43-.48,15.38,28.35,17.74,64.42,1.48,22.51.42,42.53-2.39,54.5,5.65-1.63,12.79-2.7,20.57-2.91,18.49-.51,33.62,4,33.79,10.07.15,5.56-19.52,10.87-33.19,11.93Z"/>
  <path class="cls-3" d="m294.31,169.39c-8.23-27.12-18.33-49.21-25.18-56.18-1.28-1.3-2.45-2.08-3.47-2.26-.94.29-1.97,1.09-3.07,2.35v.02c-6.39,7.33-15.06,30.09-21.52,57.76-8.09,34.69-9.63,63.98-3.45,65.43,4.8,1.12,12.86-14.88,20-38.32,3.41.65,7.17,1.08,11.13,1.24,4.04.16,7.89.01,11.39-.38,8.5,22.08,17.28,36.79,21.88,35.39,6.08-1.85,2.62-30.97-7.72-65.06Zm-24.78,10.06c-2.34-.09-4.62-.08-6.8.03.26-1.05.5-2.1.75-3.16,1.5-6.42,2.77-12.66,3.81-18.57,1.42,5.84,3.11,12,5.02,18.32.37,1.23.74,2.44,1.12,3.64-1.27-.11-2.57-.2-3.89-.25Z"/>
  <path class="cls-3" d="m357.08,235.69c-2.24.58-4.58-1.18-6.21-2.4-8.9-6.67-8.31-18.9-9.5-41.27-.39-7.21-1.08-17.75-2.41-30.69-2.67-2.49-6.75-6.21-11.88-10.58-12.29-10.46-16.23-12.09-20.85-18.25-5.29-7.05-11.21-18.57-8.28-20.9,3.57-2.84,19.16,8.8,26.83,15.43,8.05,6.95,13.59,13.74,17.06,18.5,1.51-5.56,4.33-12.5,8.18-19.74,6.31-11.85,18.27-26.51,22.35-24.67,3.93,1.77.34,18.77-5.1,31.12-4.48,10.15-10.37,17.53-14.75,22.23,4.87,15.4,7.08,28.37,8.17,37.64.97,8.2,4.9,41.4-3.62,43.6Z"/>
  <path class="cls-2" d="m364.37,115.97c.08-.65.88-7.22,3.21-8.1,1.11-.42,2.34.55,2.9,1.48,1.55,2.59-.82,6.88-1.64,8.49-2.09,4.08-5.57,7-6.11,6.62-.33-.23.63-1.53,1.21-4.42.37-1.85.22-2.33.43-4.06Z"/>
  <path class="cls-2" d="m204.12,234.21c.67.33,7.44,3.63,9.78,2.5,1.12-.54.98-1.97.45-2.92-1.47-2.61-7.07-3.47-9.13-3.84-5.23-.92-10.24-.19-10.23.41,0,.36,1.86.46,4.99,1.75,2,.83,2.36,1.22,4.14,2.09Z"/>
  <path class="cls-2" d="m262.73,134.52c.47-.58,5.21-6.43,4.64-8.96-.27-1.21-1.7-1.4-2.74-1.1-2.88.84-4.98,6.11-5.8,8.03-2.08,4.89-2.49,9.94-1.9,10.06.36.07.87-1.71,2.83-4.46,1.26-1.76,1.72-2.03,2.97-3.57Z"/>
</svg>