<?xml version="1.0" encoding="UTF-8"?>
<svg id="startscreen" xmlns="http://www.w3.org/2000/svg" viewBox="0 0 1920 1080">
  <defs>
    <style>
      .cls-1 {
        fill: #dfff8b;
      }

      .cls-1, .cls-2, .cls-3, .cls-4, .cls-5, .cls-6, .cls-7 {
        stroke-width: 0px;
      }

      .cls-8 {
        fill: #40b4e8;
      }

      .cls-8, .cls-9, .cls-10, .cls-11, .cls-12, .cls-13, .cls-14, .cls-15, .cls-16, .cls-17, .cls-18, .cls-19, .cls-20, .cls-21, .cls-22 {
        stroke-miterlimit: 10;
      }

      .cls-8, .cls-10, .cls-11, .cls-13, .cls-14, .cls-15, .cls-16, .cls-17, .cls-18, .cls-21 {
        stroke: #001300;
      }

      .cls-9 {
        fill: none;
      }

      .cls-9, .cls-12, .cls-19, .cls-20 {
        stroke: #000;
      }

      .cls-10 {
        fill: #ca77af;
      }

      .cls-11 {
        fill: #237532;
      }

      .cls-2 {
        fill: #d02900;
      }

      .cls-12 {
        fill: #ff8bed;
      }

      .cls-13 {
        fill: #2c5d29;
      }

      .cls-14 {
        fill: #fff;
      }

      .cls-15 {
        fill: #ac3d8f;
      }

      .cls-16 {
        fill: #e5348b;
      }

      .cls-17 {
        fill: #4eae33;
      }

      .cls-4 {
        fill: #231f20;
      }

      .cls-18 {
        fill: #cb77af;
      }

      .cls-19 {
        fill: #c6e0ba;
      }

      .cls-5 {
        fill: #28316f;
      }

      .cls-20 {
        fill: #c45098;
      }

      .cls-6 {
        fill: #46c1ee;
      }

      .cls-21 {
        fill: #e6398d;
      }

      .cls-22 {
        fill: #1d1d1b;
        stroke: #06a23f;
      }

      .cls-7 {
        fill: #001300;
      }
    </style>
  </defs>
  <g>
    <rect class="cls-6" x="-23" y="-27" width="1964" height="1123"/>
    <path class="cls-3" d="m1940.5-26.5v1122H-22.5V-26.5h1963m1-1H-23.5v1124h1965V-27.5h0Z"/>
  </g>
  <path class="cls-17" d="m185.61,857.65c-26.46,15.39-37.13,31.48-42.01,42.99-10.37,24.42-6.95,56.93-12.28,57.17-.4.01-.7-.14-1.04-.4,1.23,3.26,1.51,5.51.43,6.23-2.23,1.45-8.68-4.8-14.57-2.29-2.75,1.17-2.82,3.16-4.15,3.31-5.38.6-8.61-33.19-22.91-54.51-19.08-28.49-42.17-43.18-51.58-48.58,13.93,1.62,23.93,7.32,29.22,10.89,8.85,5.97,14.39,12.65,25.3,25.69,1.33,1.58,4.29,5.17,8.31,10.49-1.34-5.98-2.91-12.18-4.72-18.57-4.51-15.9-9.78-30.18-15.16-42.71-3.52-8.21-7.08-15.66-10.49-22.32,4.84,3.62,11.75,9.43,18.78,18.07,1.33,1.64,2.56,3.25,3.71,4.86,6.8,9.39,11.03,18.48,15.85,28.8.98,2.07,3.14,6.78,5.86,13.71,1.76-10.2,3.51-17.14,4.19-19.85,2.8-10.9,5.25-20.49,10.18-30.77.32-.67,1.5-3.13,2.74-5.34,3.84-6.91,12.01-18.55,30.32-31.02-12.71,13.49-18.48,25.85-21.34,33.96-4.18,11.84-5,23-6.87,44.37-.58,6.57-.96,12.91-1.15,19.01,2.96-5.84,5.2-9.82,6.21-11.59,14.04-24.41,17.37-27.54,20.08-29.11,3.46-2,11.69-5.61,27.09-2.49Z"/>
  <path class="cls-11" d="m839.39,822.56c81.91-7.51,163.81-15.02,245.72-22.53,7.74,26.59,13.81,64.96-5.51,97.9-15.23,25.96-34.92,29.28-70.34,59.24-49.28,41.69-48.46,66.84-79.2,94.7-13.56,12.29-52.29,42.34-174.94,42.08-27.3-.06-366.39-.78-402.12-140.25-13.73-53.6,19.98-117.46,30.17-136.77,19.87-37.64,43.84-60.69,68.65-84.55,44.21-42.51,75.75-72.85,124.79-83,27.41-5.67,40.78-1.01,94.07-11.02,27.36-5.14,45.14-10.38,54.85-12.89,64.88-16.76,180.21-17.96,272.17,41.46,16.05,10.37,39.41,27.77,63.03,55.54-73.78,33.37-147.57,66.74-221.35,100.11Z"/>
  <path class="cls-11" d="m349.47,665.78c-15.84,11.79-21.8,23.46-24.35,31.71-5.42,17.5-1.9,40.14-5.21,40.51-.25.03-.45-.07-.67-.24.91,2.24,1.17,3.81.54,4.35-1.33,1.1-5.62-3.03-9.18-1.05-1.67.92-1.62,2.32-2.44,2.47-3.33.62-6.79-22.92-16.62-37.31-13.12-19.23-28.14-28.64-34.24-32.06,8.75.61,15.24,4.22,18.68,6.51,5.78,3.84,9.51,8.32,16.87,17.03.9,1.06,2.9,3.46,5.63,7.03-1.09-4.14-2.34-8.42-3.74-12.83-3.5-10.97-7.39-20.77-11.28-29.34-2.55-5.62-5.08-10.7-7.49-15.23,3.17,2.35,7.73,6.16,12.48,11.94.9,1.1,1.74,2.18,2.52,3.26,4.64,6.32,7.67,12.53,11.11,19.57.7,1.41,2.25,4.63,4.24,9.38.66-7.21,1.45-12.14,1.77-14.06,1.28-7.74,2.4-14.55,5.03-21.94.17-.48.8-2.25,1.48-3.85,2.1-4.99,6.69-13.45,17.58-22.88-7.35,9.94-10.41,18.81-11.85,24.6-2.1,8.45-2.13,16.3-2.38,31.34-.08,4.62-.05,9.08.09,13.36,1.6-4.21,2.82-7.08,3.38-8.35,7.71-17.63,9.65-19.96,11.27-21.16,2.07-1.53,7.05-4.38,16.78-2.78Z"/>
  <path class="cls-11" d="m990.47,279.78c-15.84,11.79-21.8,23.46-24.35,31.71-5.42,17.5-1.9,40.14-5.21,40.51-.25.03-.45-.07-.67-.24.91,2.24,1.17,3.81.54,4.35-1.33,1.1-5.62-3.03-9.18-1.05-1.67.92-1.62,2.32-2.44,2.47-3.33.62-6.79-22.92-16.62-37.31-13.12-19.23-28.14-28.64-34.24-32.06,8.75.61,15.24,4.22,18.68,6.51,5.78,3.84,9.51,8.32,16.87,17.03.9,1.06,2.9,3.46,5.63,7.03-1.09-4.14-2.34-8.42-3.74-12.83-3.5-10.97-7.39-20.77-11.28-29.34-2.55-5.62-5.08-10.7-7.49-15.23,3.17,2.35,7.73,6.16,12.48,11.94.9,1.1,1.74,2.18,2.52,3.26,4.64,6.32,7.67,12.53,11.11,19.57.7,1.41,2.25,4.63,4.24,9.38.66-7.21,1.45-12.14,1.77-14.06,1.28-7.74,2.4-14.55,5.03-21.94.17-.48.8-2.25,1.48-3.85,2.1-4.99,6.69-13.45,17.58-22.88-7.35,9.94-10.41,18.81-11.85,24.6-2.1,8.45-2.13,16.3-2.38,31.34-.08,4.62-.05,9.08.09,13.36,1.6-4.21,2.82-7.08,3.38-8.35,7.71-17.63,9.65-19.96,11.27-21.16,2.07-1.53,7.05-4.38,16.78-2.78Z"/>
  <path class="cls-17" d="m1719.45,594.56c-26.46,15.39-37.13,31.48-42.01,42.99-10.37,24.42-6.95,56.93-12.28,57.17-.4.01-.7-.14-1.04-.4,1.23,3.26,1.51,5.51.43,6.23-2.23,1.45-8.68-4.8-14.57-2.29-2.75,1.17-2.82,3.16-4.15,3.31-5.38.6-8.61-33.19-22.91-54.51-19.08-28.49-42.17-43.18-51.58-48.58,13.93,1.62,23.93,7.32,29.22,10.89,8.85,5.97,14.39,12.65,25.3,25.69,1.33,1.58,4.29,5.17,8.31,10.49-1.34-5.98-2.91-12.18-4.72-18.57-4.51-15.9-9.78-30.18-15.16-42.71-3.52-8.21-7.08-15.66-10.49-22.32,4.84,3.62,11.75,9.43,18.78,18.07,1.33,1.64,2.56,3.25,3.71,4.86,6.8,9.39,11.03,18.48,15.85,28.8.98,2.07,3.14,6.78,5.86,13.71,1.76-10.2,3.51-17.14,4.19-19.85,2.8-10.9,5.25-20.49,10.18-30.77.32-.67,1.5-3.13,2.74-5.34,3.84-6.91,12.01-18.55,30.32-31.02-12.71,13.49-18.48,25.85-21.34,33.96-4.18,11.84-5,23-6.87,44.37-.58,6.57-.96,12.91-1.15,19.01,2.96-5.84,5.2-9.82,6.21-11.59,14.04-24.41,17.37-27.54,20.08-29.11,3.46-2,11.69-5.61,27.09-2.49Z"/>
  <path class="cls-17" d="m1240.45,494.56c-26.46,15.39-37.13,31.48-42.01,42.99-10.37,24.42-6.95,56.93-12.28,57.17-.4.01-.7-.14-1.04-.4,1.23,3.26,1.51,5.51.43,6.23-2.23,1.45-8.68-4.8-14.57-2.29-2.75,1.17-2.82,3.16-4.15,3.31-5.38.6-8.61-33.19-22.91-54.51-19.08-28.49-42.17-43.18-51.58-48.58,13.93,1.62,23.93,7.32,29.22,10.89,8.85,5.97,14.39,12.65,25.3,25.69,1.33,1.58,4.29,5.17,8.31,10.49-1.34-5.98-2.91-12.18-4.72-18.57-4.51-15.9-9.78-30.18-15.16-42.71-3.52-8.21-7.08-15.66-10.49-22.32,4.84,3.62,11.75,9.43,18.78,18.07,1.33,1.64,2.56,3.25,3.71,4.86,6.8,9.39,11.03,18.48,15.85,28.8.98,2.07,3.14,6.78,5.86,13.71,1.76-10.2,3.51-17.14,4.19-19.85,2.8-10.9,5.25-20.49,10.18-30.77.32-.67,1.5-3.13,2.74-5.34,3.84-6.91,12.01-18.55,30.32-31.02-12.71,13.49-18.48,25.85-21.34,33.96-4.18,11.84-5,23-6.87,44.37-.58,6.57-.96,12.91-1.15,19.01,2.96-5.84,5.2-9.82,6.21-11.59,14.04-24.41,17.37-27.54,20.08-29.11,3.46-2,11.69-5.61,27.09-2.49Z"/>
  <path class="cls-17" d="m500.45,392.56c-26.46,15.39-37.13,31.48-42.01,42.99-10.37,24.42-6.95,56.93-12.28,57.17-.4.01-.7-.14-1.04-.4,1.23,3.26,1.51,5.51.43,6.23-2.23,1.45-8.68-4.8-14.57-2.29-2.75,1.17-2.82,3.16-4.15,3.31-5.38.6-8.61-33.19-22.91-54.51-19.08-28.49-42.17-43.18-51.58-48.58,13.93,1.62,23.93,7.32,29.22,10.89,8.85,5.97,14.39,12.65,25.3,25.69,1.33,1.58,4.29,5.17,8.31,10.49-1.34-5.98-2.91-12.18-4.72-18.57-4.51-15.9-9.78-30.18-15.16-42.71-3.52-8.21-7.08-15.66-10.49-22.32,4.84,3.62,11.75,9.43,18.78,18.07,1.33,1.64,2.56,3.25,3.71,4.86,6.8,9.39,11.03,18.48,15.85,28.8.98,2.07,3.14,6.78,5.86,13.71,1.76-10.2,3.51-17.14,4.19-19.85,2.8-10.9,5.25-20.49,10.18-30.77.32-.67,1.5-3.13,2.74-5.34,3.84-6.91,12.01-18.55,30.32-31.02-12.71,13.49-18.48,25.85-21.34,33.96-4.18,11.84-5,23-6.87,44.37-.58,6.57-.96,12.91-1.15,19.01,2.96-5.84,5.2-9.82,6.21-11.59,14.04-24.41,17.37-27.54,20.08-29.11,3.46-2,11.69-5.61,27.09-2.49Z"/>
  <path class="cls-13" d="m225.46,299.36c-9.71,7.51-13.62,15.35-15.41,20.97-3.81,11.91-2.55,27.77-4.5,27.89-.15,0-.26-.07-.38-.19.45,1.59.55,2.69.16,3.04-.82.71-3.18-2.34-5.34-1.12-1.01.57-1.03,1.54-1.52,1.61-1.97.29-3.16-16.19-8.4-26.59-7-13.9-15.47-21.06-18.92-23.7,5.11.79,8.78,3.57,10.72,5.31,3.25,2.91,5.28,6.17,9.28,12.53.49.77,1.57,2.52,3.05,5.12-.49-2.92-1.07-5.94-1.73-9.06-1.66-7.76-3.59-14.72-5.56-20.83-1.29-4-2.6-7.64-3.85-10.89,1.77,1.77,4.31,4.6,6.89,8.81.49.8.94,1.58,1.36,2.37,2.5,4.58,4.05,9.02,5.81,14.05.36,1.01,1.15,3.31,2.15,6.69.65-4.98,1.29-8.36,1.54-9.68,1.03-5.32,1.93-10,3.73-15.01.12-.33.55-1.53,1-2.61,1.41-3.37,4.4-9.05,11.12-15.13-4.66,6.58-6.78,12.61-7.83,16.56-1.53,5.78-1.83,11.22-2.52,21.65-.21,3.2-.35,6.3-.42,9.27,1.09-2.85,1.91-4.79,2.28-5.65,5.15-11.91,6.37-13.44,7.36-14.2,1.27-.97,4.29-2.74,9.94-1.22Z"/>
  <path class="cls-13" d="m1719.46,173.61c-21.26,15.09-29.82,30.87-33.74,42.17-8.33,23.95-5.58,55.83-9.86,56.07-.32.01-.57-.14-.84-.39.99,3.2,1.21,5.41.35,6.11-1.79,1.43-6.97-4.71-11.7-2.25-2.21,1.15-2.26,3.1-3.33,3.24-4.32.59-6.92-32.55-18.4-53.46-15.33-27.94-33.87-42.35-41.43-47.64,11.19,1.59,19.22,7.18,23.47,10.68,7.11,5.86,11.56,12.41,20.32,25.2,1.07,1.55,3.45,5.07,6.67,10.29-1.08-5.87-2.34-11.95-3.79-18.21-3.63-15.6-7.86-29.6-12.18-41.89-2.83-8.05-5.68-15.36-8.42-21.89,3.88,3.55,9.44,9.25,15.08,17.72,1.07,1.61,2.06,3.19,2.98,4.77,5.46,9.21,8.86,18.13,12.73,28.25.78,2.03,2.52,6.65,4.71,13.44,1.41-10.01,2.82-16.81,3.37-19.47,2.25-10.69,4.22-20.1,8.18-30.17.26-.66,1.21-3.07,2.2-5.24,3.09-6.78,9.64-18.2,24.35-30.43-10.21,13.24-14.84,25.35-17.14,33.3-3.36,11.61-4.01,22.56-5.52,43.52-.46,6.44-.77,12.66-.93,18.64,2.38-5.73,4.18-9.63,4.99-11.36,11.28-23.94,13.95-27.02,16.12-28.55,2.78-1.96,9.39-5.51,21.76-2.45Z"/>
  <path class="cls-17" d="m93.45,461.56c-26.46,15.39-37.13,31.48-42.01,42.99-10.37,24.42-6.95,56.93-12.28,57.17-.4.01-.7-.14-1.04-.4,1.23,3.26,1.51,5.51.43,6.23-2.23,1.45-8.68-4.8-14.57-2.29-2.75,1.17-2.82,3.16-4.15,3.31-5.38.6-8.61-33.19-22.91-54.51-19.08-28.49-42.17-43.18-51.58-48.58,13.93,1.62,23.93,7.32,29.22,10.89,8.85,5.97,14.39,12.65,25.3,25.69,1.33,1.58,4.29,5.17,8.31,10.49-1.34-5.98-2.91-12.18-4.72-18.57-4.51-15.9-9.78-30.18-15.16-42.71-3.52-8.21-7.08-15.66-10.49-22.32,4.84,3.62,11.75,9.43,18.78,18.07,1.33,1.64,2.56,3.25,3.71,4.86,6.8,9.39,11.03,18.48,15.85,28.8.98,2.07,3.14,6.78,5.86,13.71,1.76-10.2,3.51-17.14,4.19-19.85,2.8-10.9,5.25-20.49,10.18-30.77.32-.67,1.5-3.13,2.74-5.34,3.84-6.91,12.01-18.55,30.32-31.02-12.71,13.49-18.48,25.85-21.34,33.96-4.18,11.84-5,23-6.87,44.37-.58,6.57-.96,12.91-1.15,19.01,2.96-5.84,5.2-9.82,6.21-11.59,14.04-24.41,17.37-27.54,20.08-29.11,3.46-2,11.69-5.61,27.09-2.49Z"/>
  <path class="cls-13" d="m1865.8,914.22c-21.26,15.09-29.82,30.87-33.74,42.17-8.33,23.95-5.58,55.83-9.86,56.07-.32.01-.57-.14-.84-.39.99,3.2,1.21,5.41.35,6.11-1.79,1.43-6.97-4.71-11.7-2.25-2.21,1.15-2.26,3.1-3.33,3.24-4.32.59-6.92-32.55-18.4-53.46-15.33-27.94-33.87-42.35-41.43-47.64,11.19,1.59,19.22,7.18,23.47,10.68,7.11,5.86,11.56,12.41,20.32,25.2,1.07,1.55,3.45,5.07,6.67,10.29-1.08-5.87-2.34-11.95-3.79-18.21-3.63-15.6-7.86-29.6-12.18-41.89-2.83-8.05-5.68-15.36-8.42-21.89,3.88,3.55,9.44,9.25,15.08,17.72,1.07,1.61,2.06,3.19,2.98,4.77,5.46,9.21,8.86,18.13,12.73,28.25.78,2.03,2.52,6.65,4.71,13.44,1.41-10.01,2.82-16.81,3.37-19.47,2.25-10.69,4.22-20.1,8.18-30.17.26-.66,1.21-3.07,2.2-5.24,3.09-6.78,9.64-18.2,24.35-30.43-10.21,13.24-14.84,25.35-17.14,33.3-3.36,11.61-4.01,22.56-5.52,43.52-.46,6.44-.77,12.66-.93,18.64,2.38-5.73,4.18-9.63,4.99-11.36,11.28-23.94,13.95-27.02,16.12-28.55,2.78-1.96,9.39-5.51,21.76-2.45Z"/>
  <path class="cls-17" d="m1360.5,1020.8c-15.04,10.03-21.1,20.52-23.87,28.03-5.89,15.92-3.95,37.12-6.98,37.27-.23,0-.4-.09-.59-.26.7,2.13.86,3.6.25,4.06-1.26.95-4.93-3.13-8.28-1.5-1.56.76-1.6,2.06-2.36,2.16-3.06.39-4.89-21.64-13.02-35.54-10.84-18.57-23.96-28.15-29.31-31.67,7.91,1.06,13.6,4.78,16.6,7.1,5.03,3.89,8.18,8.25,14.37,16.75.75,1.03,2.44,3.37,4.72,6.84-.76-3.9-1.66-7.94-2.68-12.11-2.57-10.37-5.56-19.68-8.61-27.84-2-5.35-4.02-10.21-5.96-14.55,2.75,2.36,6.68,6.15,10.67,11.78.76,1.07,1.46,2.12,2.11,3.17,3.87,6.12,6.27,12.05,9.01,18.78.55,1.35,1.78,4.42,3.33,8.94,1-6.65,1.99-11.18,2.38-12.94,1.59-7.11,2.98-13.36,5.79-20.06.18-.44.86-2.04,1.56-3.48,2.18-4.51,6.82-12.1,17.23-20.23-7.22,8.8-10.5,16.85-12.13,22.14-2.37,7.72-2.84,14.99-3.9,28.93-.33,4.28-.55,8.42-.65,12.39,1.68-3.81,2.96-6.4,3.53-7.55,7.98-15.91,9.87-17.96,11.41-18.98,1.96-1.3,6.64-3.66,15.39-1.63Z"/>
  <path class="cls-17" d="m1926.42,352.9c-15.04,10.03-21.1,20.52-23.87,28.03-5.89,15.92-3.95,37.12-6.98,37.27-.23,0-.4-.09-.59-.26.7,2.13.86,3.6.25,4.06-1.26.95-4.93-3.13-8.28-1.5-1.56.76-1.6,2.06-2.36,2.16-3.06.39-4.89-21.64-13.02-35.54-10.84-18.57-23.96-28.15-29.31-31.67,7.91,1.06,13.6,4.78,16.6,7.1,5.03,3.89,8.18,8.25,14.37,16.75.75,1.03,2.44,3.37,4.72,6.84-.76-3.9-1.66-7.94-2.68-12.11-2.57-10.37-5.56-19.68-8.61-27.84-2-5.35-4.02-10.21-5.96-14.55,2.75,2.36,6.68,6.15,10.67,11.78.76,1.07,1.46,2.12,2.11,3.17,3.87,6.12,6.27,12.05,9.01,18.78.55,1.35,1.78,4.42,3.33,8.94,1-6.65,1.99-11.18,2.38-12.94,1.59-7.11,2.98-13.36,5.79-20.06.18-.44.86-2.04,1.56-3.48,2.18-4.51,6.82-12.1,17.23-20.23-7.22,8.8-10.5,16.85-12.13,22.14-2.37,7.72-2.84,14.99-3.9,28.93-.33,4.28-.55,8.42-.65,12.39,1.68-3.81,2.96-6.4,3.53-7.55,7.98-15.91,9.87-17.96,11.41-18.98,1.96-1.3,6.64-3.66,15.39-1.63Z"/>
  <path class="cls-13" d="m1177.46,588.36c-9.71,7.51-13.62,15.35-15.41,20.97-3.81,11.91-2.55,27.77-4.5,27.89-.15,0-.26-.07-.38-.19.45,1.59.55,2.69.16,3.04-.82.71-3.18-2.34-5.34-1.12-1.01.57-1.03,1.54-1.52,1.61-1.97.29-3.16-16.19-8.4-26.59-7-13.9-15.47-21.06-18.92-23.7,5.11.79,8.78,3.57,10.72,5.31,3.25,2.91,5.28,6.17,9.28,12.53.49.77,1.57,2.52,3.05,5.12-.49-2.92-1.07-5.94-1.73-9.06-1.66-7.76-3.59-14.72-5.56-20.83-1.29-4-2.6-7.64-3.85-10.89,1.77,1.77,4.31,4.6,6.89,8.81.49.8.94,1.58,1.36,2.37,2.5,4.58,4.05,9.02,5.81,14.05.36,1.01,1.15,3.31,2.15,6.69.65-4.98,1.29-8.36,1.54-9.68,1.03-5.32,1.93-10,3.73-15.01.12-.33.55-1.53,1-2.61,1.41-3.37,4.4-9.05,11.12-15.13-4.66,6.58-6.78,12.61-7.83,16.56-1.53,5.78-1.83,11.22-2.52,21.65-.21,3.2-.35,6.3-.42,9.27,1.09-2.85,1.91-4.79,2.28-5.65,5.15-11.91,6.37-13.44,7.36-14.2,1.27-.97,4.29-2.74,9.94-1.22Z"/>
  <path class="cls-13" d="m1884.46,409.36c-9.71,7.51-13.62,15.35-15.41,20.97-3.81,11.91-2.55,27.77-4.5,27.89-.15,0-.26-.07-.38-.19.45,1.59.55,2.69.16,3.04-.82.71-3.18-2.34-5.34-1.12-1.01.57-1.03,1.54-1.52,1.61-1.97.29-3.16-16.19-8.4-26.59-7-13.9-15.47-21.06-18.92-23.7,5.11.79,8.78,3.57,10.72,5.31,3.25,2.91,5.28,6.17,9.28,12.53.49.77,1.57,2.52,3.05,5.12-.49-2.92-1.07-5.94-1.73-9.06-1.66-7.76-3.59-14.72-5.56-20.83-1.29-4-2.6-7.64-3.85-10.89,1.77,1.77,4.31,4.6,6.89,8.81.49.8.94,1.58,1.36,2.37,2.5,4.58,4.05,9.02,5.81,14.05.36,1.01,1.15,3.31,2.15,6.69.65-4.98,1.29-8.36,1.54-9.68,1.03-5.32,1.93-10,3.73-15.01.12-.33.55-1.53,1-2.61,1.41-3.37,4.4-9.05,11.12-15.13-4.66,6.58-6.78,12.61-7.83,16.56-1.53,5.78-1.83,11.22-2.52,21.65-.21,3.2-.35,6.3-.42,9.27,1.09-2.85,1.91-4.79,2.28-5.65,5.15-11.91,6.37-13.44,7.36-14.2,1.27-.97,4.29-2.74,9.94-1.22Z"/>
  <path class="cls-17" d="m730.45,3.56c-26.46,15.39-37.13,31.48-42.01,42.99-10.37,24.42-6.95,56.93-12.28,57.17-.4.01-.7-.14-1.04-.4,1.23,3.26,1.51,5.51.43,6.23-2.23,1.45-8.68-4.8-14.57-2.29-2.75,1.17-2.82,3.16-4.15,3.31-5.38.6-8.61-33.19-22.91-54.51-19.08-28.49-42.17-43.18-51.58-48.58,13.93,1.62,23.93,7.32,29.22,10.89,8.85,5.97,14.39,12.65,25.3,25.69,1.33,1.58,4.29,5.17,8.31,10.49-1.34-5.98-2.91-12.18-4.72-18.57-4.51-15.9-9.78-30.18-15.16-42.71-3.52-8.21-7.08-15.66-10.49-22.32,4.84,3.62,11.75,9.43,18.78,18.07,1.33,1.64,2.56,3.25,3.71,4.86,6.8,9.39,11.03,18.48,15.85,28.8.98,2.07,3.14,6.78,5.86,13.71,1.76-10.2,3.51-17.14,4.19-19.85,2.8-10.9,5.25-20.49,10.18-30.77.32-.67,1.5-3.13,2.74-5.34,3.84-6.91,12.01-18.55,30.32-31.02-12.71,13.49-18.48,25.85-21.34,33.96-4.18,11.84-5,23-6.87,44.37-.58,6.57-.96,12.91-1.15,19.01,2.96-5.84,5.2-9.82,6.21-11.59,14.04-24.41,17.37-27.54,20.08-29.11,3.46-2,11.69-5.61,27.09-2.49Z"/>
  <path class="cls-13" d="m171.46,934.36c-9.71,7.51-13.62,15.35-15.41,20.97-3.81,11.91-2.55,27.77-4.5,27.89-.15,0-.26-.07-.38-.19.45,1.59.55,2.69.16,3.04-.82.71-3.18-2.34-5.34-1.12-1.01.57-1.03,1.54-1.52,1.61-1.97.29-3.16-16.19-8.4-26.59-7-13.9-15.47-21.06-18.92-23.7,5.11.79,8.78,3.57,10.72,5.31,3.25,2.91,5.28,6.17,9.28,12.53.49.77,1.57,2.52,3.05,5.12-.49-2.92-1.07-5.94-1.73-9.06-1.66-7.76-3.59-14.72-5.56-20.83-1.29-4-2.6-7.64-3.85-10.89,1.77,1.77,4.31,4.6,6.89,8.81.49.8.94,1.58,1.36,2.37,2.5,4.58,4.05,9.02,5.81,14.05.36,1.01,1.15,3.31,2.15,6.69.65-4.98,1.29-8.36,1.54-9.68,1.03-5.32,1.93-10,3.73-15.01.12-.33.55-1.53,1-2.61,1.41-3.37,4.4-9.05,11.12-15.13-4.66,6.58-6.78,12.61-7.83,16.56-1.53,5.78-1.83,11.22-2.52,21.65-.21,3.2-.35,6.3-.42,9.27,1.09-2.85,1.91-4.79,2.28-5.65,5.15-11.91,6.37-13.44,7.36-14.2,1.27-.97,4.29-2.74,9.94-1.22Z"/>
  <path class="cls-17" d="m423.45,992.56c-26.46,15.39-37.13,31.48-42.01,42.99-10.37,24.42-6.95,56.93-12.28,57.17-.4.01-.7-.14-1.04-.4,1.23,3.26,1.51,5.51.43,6.23-2.23,1.45-8.68-4.8-14.57-2.29-2.75,1.17-2.82,3.16-4.15,3.31-5.38.6-8.61-33.19-22.91-54.51-19.08-28.49-42.17-43.18-51.58-48.58,13.93,1.62,23.93,7.32,29.22,10.89,8.85,5.97,14.39,12.65,25.3,25.69,1.33,1.58,4.29,5.17,8.31,10.49-1.34-5.98-2.91-12.18-4.72-18.57-4.51-15.9-9.78-30.18-15.16-42.71-3.52-8.21-7.08-15.66-10.49-22.32,4.84,3.62,11.75,9.43,18.78,18.07,1.33,1.64,2.56,3.25,3.71,4.86,6.8,9.39,11.03,18.48,15.85,28.8.98,2.07,3.14,6.78,5.86,13.71,1.76-10.2,3.51-17.14,4.19-19.85,2.8-10.9,5.25-20.49,10.18-30.77.32-.67,1.5-3.13,2.74-5.34,3.84-6.91,12.01-18.55,30.32-31.02-12.71,13.49-18.48,25.85-21.34,33.96-4.18,11.84-5,23-6.87,44.37-.58,6.57-.96,12.91-1.15,19.01,2.96-5.84,5.2-9.82,6.21-11.59,14.04-24.41,17.37-27.54,20.08-29.11,3.46-2,11.69-5.61,27.09-2.49Z"/>
  <path class="cls-9" d="m732.11,859.01c7.8-19.21,22.46-48.24,49.69-76.13,40.51-41.48,86.09-57.13,108.22-63.13"/>
  <path class="cls-9" d="m741.21,879.83c22.69-4.97,60.93-10.36,107.1-2.25,43.69,7.67,76.37,24.26,95.82,36.07"/>
  <path class="cls-9" d="m692.38,882.31c-25.02,10.72-55.32,26.52-86.7,50.01-34.06,25.49-59.2,52.39-77.1,74.85"/>
  <path class="cls-9" d="m683.64,850.36c-11.47-14.74-33.26-39.35-67.86-61.2-41-25.89-78.84-34.57-97.97-37.8"/>
  <path class="cls-9" d="m719.8,879.83c10.36,9.51,33.07,32.95,43.97,71.02,9.6,33.53,5.28,61.84,2.25,75.53"/>
  <path class="cls-9" d="m680.62,866.21c-27.04-1.72-60.3-1.99-98.15,1.71-56.94,5.57-103.73,18.15-137.12,29.43"/>
  <path class="cls-9" d="m691.43,738.25c7.38,7.64,20.91,23.71,28,48.24,8.53,29.52,2.84,54.31-.14,64.57"/>
  <path class="cls-9" d="m768.39,503.8c-4.63-1.66-11.09-3.55-18.99-4.57"/>
  <path class="cls-9" d="m736.78,498.49c.18,0,.36,0,.55,0,4.3-.02,8.33.26,12.05.74"/>
  <line class="cls-9" x1="851.05" y1="576.41" x2="841.71" y2="561.21"/>
  <path class="cls-9" d="m573.09,594.16c-.16.41-.32.82-.48,1.24"/>
  <path class="cls-9" d="m574.45,590.95c-.46,1.02-.91,2.08-1.35,3.19"/>
  <path class="cls-20" d="m912.46,887.74c-3.81-2.77-6.2-2.75-13.43-7.81-2.53-1.77-4.44-3.3-5.91-4.53.92-1.58,1.59-2.96,1.94-3.69,1.87-3.87,2.58-7.07,2.7-7.64,3.29-14.71,21.52-58.04,25.94-80.96,8.35-43.4-13.77-96.64-38.88-100.67-6.81-1.09-12.13,1.71-20.7,6.23-13.31,7.01-25.48,18.76-33.04,31.82,3.09,16.6,5.91,42.49.91,73.49-5.07,31.39-16.1,55.34-24.36,70.17l4.19,13.06c20.23-9.25,34.15-23,43.06-38.14.81,8.99,3.12,18.28,9.61,28.38.48.73,2.53,3.89,5.36,7.25-3.89,3.49-8.24,9.31-11.96,16.39-6.86,13.04-8.97,25.44-4.71,27.68,4.26,2.24,13.27-6.53,20.13-19.58,1.46-2.78,2.7-5.53,3.72-8.16.26,2.84.69,5.87,1.29,8.99,2.91,15.2,8.74,26.84,13.01,26.02,4.27-.81,5.37-13.79,2.46-28.98-1.18-6.14-2.83-11.71-4.67-16.11.1-.11.21-.21.3-.32,1.82,5.19,5.28,11.95,10.31,17.9,9.72,11.51,20.46,18.41,23.98,15.44,3.42-2.89-.98-18.77-11.24-26.22Z"/>
  <path class="cls-20" d="m815.6,668.12c6.92,9.89,12.49,28.74,15.47,52.35,3.09,16.6,5.91,42.49.91,73.49-5.07,31.39-16.1,55.34-24.36,70.17l4.19,13.06c-.07.03-.15.07-.21.1.41.98.81,1.97,1.2,2.98,1.2,3.04,2.31,6.11,3.25,8.69,1.84,5.09,10.94,30.2,6.56,32.46-3.46,1.77-15.66-10.43-20.36-25.47-.21-.67-.41-1.36-.59-2.04.14,2.27.2,4.63.2,7.06,0,17.07-3.52,30.9-7.86,30.9-4.11,0-7.99-17.97-8.34-33.76-1.04,1.69-1.09,7.42-7.48,15.96-5.32,7.12-7.11,11.72-9.3,11.33-1.86-.32-2.67-3.87-3.06-5.53-1.21-5.31-.16-9.57,4.2-22.76,1.45-4.42,2.45-7.3,3.26-9.34-12.81,1.64-27.16,1.94-43.16.58-17.97-1.53-35.16-4.24-50.89-8.09,1.15,1.31,2.14,2.7,3.1,4.94,2.57,5.93,2.56,11.16,2.54,16.87,0,7.12-.03,18.45-3.9,19.63-5,1.53-15.96-13.95-20.54-30.2-.61-2.15-1.09-4.31-1.47-6.44.17,2.96.25,6.06.25,9.25,0,20.74-3.75,37.55-8.37,37.55s-8.14-15.87-8.35-35.79c-4.79,17.37-12.69,30.18-17.83,28.82-5.17-1.37-9.04-21.21-.93-35.04,2.84-4.85,5.53-6.16,10.36-14.61,2.08-3.64,3.48-6.72,4.5-9.13-14.29-6.94-25.78-15.34-33.42-25.13-1.94,5.14-3.7,10.88-5.19,17.43-.96,4.22-1.64,8.02-2.14,11.41,2.14,5.76,4.06,13.52,5.33,22.14,2.71,18.58,1.33,34.16-3.1,34.8-4.41.65-10.17-13.79-12.9-32.28-.32,1.95-.67,3.95-1.07,5.97-4.52,23.05-12.53,40.9-17.89,39.85-4.59-.9-5.74-15.34-3.14-33.93-11.62,10.86-21.76,16.84-24.88,14.05-4.08-3.64,5.3-20.8,20.95-38.33,3.95-4.43,7.93-8.46,11.72-11.95-11.73-20.12-23.55-52.64-23.55-87.03,0-59.41,19.53-107.57,43.63-107.57,12.09,0,27,16.37,36.73,38.43.26-.8,1.03-3.03,8.31-24.19.28-.82,6.85-19.94,7.13-20.75-43.68-16.79-73.73-45.9-73.73-66.65,0-2.91.59-5.65,1.71-8.22h0c.38-.89.83-1.75,1.34-2.59,0-.21,0-.41,0-.62,0-.33.02-.66.05-1,1.01-12.27,14.61-21.77,33.2-24.86,2.61-.91,5.21-2.22,7.83-4.44,1.22-1.04,2.28-2.14,3.21-3.27.06-.07.11-.13.16-.2,0-.02.03-.03.03-.05,2.68-3.33,4.23-6.86,5.14-9.57-.08-.04-.16-.08-.23-.13-16.69-8.67-27.92-24.97-27.92-43.64,0-27.78,24.88-50.3,55.58-50.3s54.11,21.21,55.53,47.86c.04.81.06,1.62.06,2.44,6.61-2.35,16.87-5.17,29.65-5.3h.05c4.31.06,8.51.31,12.59.73h.03c7.05.74,13.73,2,19.87,3.71,4.43-23.49,25.05-41.26,49.8-41.26,27.99,0,50.68,22.7,50.68,50.72,0,21.69-7.84,40.18-28.83,47.44-.02,0-.04,0-.06.02l.84,1.36c2.56,4.67,4.54,9.36,5.93,13.9,1.15.42,2.29.86,3.42,1.3,4.95,1.95,9.6,4.03,13.91,6.22.21,0,.41,0,.62,0,17.12.24,36.11,16.3,35.9,33.99.37.97.68,1.95.96,2.93,5.19,18.97-28.9,35.75-86.84,48.58Z"/>
  <path class="cls-9" d="m736.73,498.49c-12.78.14-23.04,2.95-29.65,5.3,0-.82-.02-1.63-.06-2.44,8.59-1.86,18-2.87,27.88-2.87.62,0,1.22,0,1.83,0Z"/>
  <path class="cls-9" d="m841.71,561.21l-.84-1.36s.04,0,.06-.02c.26.46.53.92.78,1.38Z"/>
  <path class="cls-9" d="m624.07,547.56c-.92,2.72-2.46,6.24-5.14,9.57,2.72-3.66,4.06-6.92,4.91-9.7.08.05.16.09.23.13Z"/>
  <line class="cls-9" x1="812.8" y1="880.26" x2="811.82" y2="877.19"/>
  <path class="cls-9" d="m799.3,746.58c-.36,18.75-1.66,39.47-4.47,61.77-2.64,20.93-6.21,40.16-10.19,57.5-2.24,4.5-4.48,9.01-6.72,13.51-1.95,3.93-3.91,7.85-5.86,11.78"/>
  <path class="cls-9" d="m879.49,771.16c-1.37,10.46-4.11,23.74-9.75,38.38-4.58,11.9-9.94,21.75-14.86,29.5"/>
  <path class="cls-9" d="m582.65,759.22c.48,11.85,2.23,27.15,7.19,44.33,4.4,15.23,10.11,27.78,15.34,37.42"/>
  <path class="cls-9" d="m600.03,599.64c5.76,5.58,15.26,13.2,28.77,17.99,5.17,1.83,10.01,2.93,14.27,3.57"/>
  <line class="cls-9" x1="822.02" y1="631.17" x2="867.18" y2="615.23"/>
  <path class="cls-9" d="m863.15,610.42c3.75-.2,7.07,2.1,8.02,5.37.74,2.56-.06,5.4-2.03,7.41"/>
  <path class="cls-9" d="m604.5,595.4c-1.05.54-3.09,1.8-4.46,4.24-2.78,4.94-.27,10.23,0,10.77"/>
  <path class="cls-9" d="m629.68,713.96c-3.98,16.46-7.6,39.16-6.35,66.12,1.67,35.91,11.28,64.33,19.05,82.36"/>
  <path class="cls-9" d="m663.18,733.82c-4.11,15.58-8.21,38.5-6.35,66.12,2.45,36.36,14.12,64.19,22.42,80.32"/>
  <path class="cls-9" d="m643.08,668.27c18.14,5.78,41.78,11.34,69.73,12.97,44.56,2.6,81-5.89,104.54-13.5"/>
  <path class="cls-9" d="m638.61,866.11c.17-.39.44-.92.89-1.48.08-.1.45-.55,1.06-1.04.56-.45,2.44-1.53,1.82-1.16h0"/>
  <ellipse class="cls-19" cx="656.46" cy="512.37" rx="37.54" ry="37.57"/>
  <ellipse class="cls-19" cx="818.51" cy="516.09" rx="38.44" ry="38.47"/>
  <path class="cls-12" d="m604.5,569.36c0-.16,0-.25,0-.38.19-3.34,5.16-4.21,11.02-8.33,4.39-3.08,4.41-4.56,6.19-4.48,3.8.16,7.69,7,7.46,13.2-.25,6.59-5.25,14.8-12.34,14.8s-12.34-6.63-12.34-14.8Z"/>
  <path class="cls-12" d="m866.52,589.24c-.2,5.29-4.86,12.83-12.82,12.83-7.28,0-12.73-6.23-12.82-12.83-.1-6.69,5.53-12.81,10.18-12.83.62,0,2.28.77,5.58,2.31,6.73,3.15,7.89,4.07,8.73,5.46,1.27,2.11,1.19,4.3,1.16,5.07Z"/>
  <path class="cls-1" d="m766.98,834.64c-2.49,2.8-16.33,18.36-37.05,17.93-12.81-.27-21.95-6.54-25.01-8.68-25.12-17.66-25.55-53.95-25.67-64.81-.08-6.52-.31-26.04,7.95-44.34,0,0,0,0,0-.02.46-.91.89-1.8,1.28-2.68.03-.04.05-.08.06-.11,4.54-9.94,5.94-18.32,6.4-23.59.37-4.16.26-7.42.21-8.64-.34-7.92-2.09-14.47-3.75-19.13,0-.02,0-.03,0-.04-.24-.65-.48-1.27-.7-1.85,10.93,1.74,23.74,3.06,38.06,3.17,15.46.12,29.23-1.18,40.82-2.97,0,0,0,.03-.02.04,1.09-.12,1.94-.15,2.49-.17-7.52,12.01-7.95,21.72-7.73,26.39.17,3.57.83,6.82,1.32,9.24,1.77,8.67,4.51,15.52,6.7,20.15.02.04.03.07.05.1,8.08,16.28,8.41,33.13,8.64,44.42.36,18.05.77,38.92-14.05,55.57Z"/>
  <path class="cls-5" d="m688.49,732.04c-.39.88-.82,1.77-1.28,2.68.4-.9.83-1.79,1.28-2.68Z"/>
  <circle class="cls-22" cx="639.53" cy="521.47" r="5.37"/>
  <ellipse class="cls-22" cx="663.41" cy="535.18" rx="9.22" ry="8.33"/>
  <circle class="cls-22" cx="670.5" cy="507.74" r="4.63"/>
  <circle class="cls-22" cx="804.14" cy="514.24" r="4.77"/>
  <circle class="cls-22" cx="834.08" cy="527.6" r="4.69"/>
  <ellipse class="cls-22" cx="808.04" cy="540.14" rx="8.75" ry="8.75"/>
  <path class="cls-7" d="m643.08,621.2c24.43,6.64,55.8,12.85,92.57,14.58,33.55,1.59,62.85-.97,86.37-4.61-5.84,2.76-14.95,7.49-25.2,14.76-14.96,10.62-15.76,14.89-26.43,20.3-15.66,7.93-31,7.38-37.88,7.05-5.47-.26-18.13-1-31.89-7.97-11.23-5.69-13.78-10.77-28.89-23.38-6.35-5.29-15.92-12.75-28.64-20.74Z"/>
  <path class="cls-4" d="m691.4,680.54c-.25-.61-.49-1.22-.7-1.85.22.58.46,1.19.7,1.85Z"/>
  <path class="cls-2" d="m786.66,653.87c-.02.86-.5,1.75-6.47,5.76-6.85,4.61-10.28,6.92-14.57,8.77-11.2,4.82-22.06,4.96-27.88,4.65-.55.02-1.1.03-1.67.03-1.68,0-3.29-.08-4.79-.22-5.25-.07-11.5-.73-18.28-2.66-3.06-.87-9.04-2.62-15.56-6.61-1.7-1.04-4.06-2.84-8.78-6.44-3.55-2.71-3.84-3.06-3.93-3.59-.7-4.29,12.7-13.03,26.08-12.78,12.83.24,21.76,8.67,24.68,11.69,1.92-2.98,4.59-5.5,7.42-7.19,1.72-1.03,6.63-3.47,18.36-1.93,9.76,1.28,25.5,5.49,25.39,10.53Z"/>
  <ellipse class="cls-7" cx="712.17" cy="608.84" rx="2.35" ry="6.16"/>
  <ellipse class="cls-7" cx="747.63" cy="610" rx="2.35" ry="6.16"/>
  <path class="cls-15" d="m605.74,372.83c-18.13,11.66-45.6-3.53-61.35-33.92-4.55-8.77-7.62-17.85-9.25-26.6-5.81,4.93-12.88,9.52-20.82,13.31-7.81,3.72-15.54,6.22-22.63,7.53,6.52,6.15,12.54,14.12,17.43,23.56,15.76,30.39,13.83,64.48-4.3,76.14-18.13,11.66-45.6-3.53-61.35-33.92-7.95-15.34-11.39-31.62-10.54-45.48-3.56-4.12-6.93-9.07-9.85-14.69-3.97-7.66-6.56-15.5-7.75-22.69-15.1-2.67-31.54-16.41-42.41-37.37-15.76-30.4-13.83-64.49,4.3-76.14,18.13-11.66,45.6,3.53,61.35,33.92,10.84,20.91,13.31,43.56,7.89,59.46,4.8,4.54,9.43,10.62,13.31,17.87,3.54-11.71,17.61-25.48,36.69-34.59,8.37-4,16.66-6.58,24.17-7.79-2.12-5.25-3.58-10.46-4.39-15.37-15.1-2.67-31.54-16.4-42.41-37.36-15.76-30.4-13.83-64.49,4.3-76.14,18.13-11.66,45.59,3.53,61.35,33.92,10.84,20.9,13.31,43.55,7.89,59.46,5.03,4.74,9.86,11.19,13.85,18.89.7,1.35,1.35,2.7,1.97,4.06,16.23.5,34.9,14.8,46.83,37.83,15.76,30.39,13.83,64.48-4.3,76.14Z"/>
  <ellipse class="cls-10" cx="682.74" cy="252.94" rx="74.6" ry="77.99" transform="translate(-35.91 369.77) rotate(-29.56)"/>
  <ellipse class="cls-8" cx="688.68" cy="265.39" rx="20.56" ry="20.66"/>
  <path class="cls-15" d="m835.44,223.87c-1.34-4.05-4.27-11.11-9.3-18.6-3.71-5.53-7.5-9.71-10.48-12.63-1.97-1.51-4.95-3.94-8.19-7.34-4.85-5.1-6.7-8.59-12.09-15.58-1.97-2.56-4.93-6.24-8.81-10.54,3.63.83,25.98,5.56,43.33-8.02,8.86-6.94,13.47-16.35,14.75-19.04,3.72-7.79,4.92-14.89,5.34-19.54.42-4.92.56-14.45-3.79-25.21-3.78-9.32-9.29-15.49-12.72-18.79-6.15-5.22-11.72-7.5-15.84-8.61-5.06-1.36-13.59-2.45-13.6-2.45h0c-12.49-2.69-22.44-1.02-35.38,1.16-8.26,1.39-19.6,4.04-32.5,9.5-16.06,2.57-21.44,9.28-23.47,12.89-3.45,6.13-3.78,14.92,12.68,51.55,7.36,16.39,14.38,30.13,20.12,40.74,2.93,6.35,6.21,10.63,8.72,13.4,2.45,2.7,4.94,4.83,7.24,9.01,1.71,3.11,2.56,5.98,3.01,7.92.69,8.53,3.04,22.47,11.96,36.27,13.4,20.73,40.52,39.46,53.69,31.62,11.74-6.99,9.98-33.68,5.34-47.7Zm-57.5-111.71c1.39-9.88,11.96-16.12,21.41-15.23,8.81.83,17.64,7.95,17.95,17.34.35,10.5-10.1,19.29-20.74,18.72-10.6-.57-20.09-10.36-18.62-20.83Z"/>
  <path class="cls-15" d="m1181.84,287.18c-19.39-3.14-28.14-30.46-19.55-61,2.48-8.82,6.13-16.94,10.54-23.95-6.96-.19-14.55-1.38-22.22-3.66-7.53-2.25-14.25-5.28-19.8-8.74.48,8.23-.52,17.4-3.18,26.89-8.59,30.55-31.27,52.77-50.66,49.63-19.39-3.14-28.14-30.46-19.55-61,4.34-15.42,12.26-28.71,21.53-37.7.21-5.02,1.08-10.49,2.67-16.14,2.17-7.7,5.37-14.67,9.08-20.35-8.38-11.12-10.7-30.66-4.78-51.72,8.59-30.55,31.27-52.77,50.66-49.63s28.15,30.45,19.55,61c-5.91,21.02-18.48,38.09-32.07,45.67.34,6.07-.39,13.09-2.36,20.45,9.71-5.86,27.72-6.67,46.15-1.19,8.08,2.4,15.23,5.73,20.99,9.51,1.89-4.91,4.19-9.38,6.73-13.25-8.38-11.12-10.7-30.65-4.78-51.72,8.59-30.55,31.27-52.77,50.66-49.63,19.39,3.14,28.15,30.45,19.55,61-5.9,21.01-18.48,38.08-32.07,45.67.37,6.35-.47,13.74-2.64,21.48-.38,1.35-.79,2.68-1.24,4,10.5,10.32,13.95,31.61,7.43,54.76-8.59,30.55-31.27,52.77-50.66,49.63Z"/>
  <ellipse class="cls-21" cx="880.6" cy="72.69" rx="8.15" ry="18.93" transform="translate(40.79 347.39) rotate(-22.83)"/>
  <ellipse class="cls-16" cx="1050.24" cy="68.39" rx="18.94" ry="8.14" transform="translate(770.47 1082.99) rotate(-78.31)"/>
  <path class="cls-18" d="m997.1,237.5c-4.71,4.57-7.72,4.08-8.41,3.93-6.29-1.34-8.36-14.51-9.17-19.65-1.1-7.02-1.79-18.83,3.06-33.81,3.2-21.28-4.36-39.11-16.48-43.89-2.44-.96-7.45-2.34-14.86-.14-.12-.03-.23-.06-.35-.08-4.63-.88-9.35,4.3-12.14,8.02,1.15,8.44,1.8,18.04,1.8,28.22,0,33.87-7.18,61.32-16.05,61.32s-16.05-27.45-16.05-61.32,7.18-61.32,16.05-61.32c3.52,0,6.79,4.34,9.44,11.71.92-.98,1.9-1.96,2.94-2.91,8.12-7.4,17.17-11.01,22.13-9.26,4.44-.32,12.44-.27,21.28,3.61,14.22,6.24,20.93,18.11,22.93,22.01.9,2.42,2.07,5.91,3.06,10.22,2.65,11.59,2.07,20.77,1.53,28.3-2.98,41.72-4.52,49.05-10.7,55.03Z"/>
  <path class="cls-18" d="m1275.34,166.97c6.37-3.74,9.43-2.47,10.15-2.11,6.38,3.23,4.87,18.59,4.28,24.59-.81,8.19-3.42,21.64-12.88,37.12-9.53,21.59-7.01,43.37,5.25,53.8,2.61,2.22,7.65,5.62,16.14,6.68,1.97-.21,5.12-.79,8.57-2.58,3.34-1.73,5.59-3.89,6.9-5.35,4.92-13.84,7.76-25.21,9.38-32.53,6.54-29.5,4.91-45.64,17.99-57.68,3.07-2.83,8.79-8.09,13.36-6.44,11.85,4.28,4.52,51.99-.16,73.26-2.05,9.33-6.91,21.54-16.63,45.95-4.94,12.41-8.23,19.72-12.85,19.8-5.96.11-10.65-11.83-11.99-15.5-2,1.72-4.84,3.71-8.57,5.17-9.75,3.8-18.7,1.18-21.83.09-4.86-.85-13.44-3.11-21.84-9.89-13.51-10.9-17.35-26.08-18.39-31.01-.28-2.96-.55-7.21-.38-12.32.45-14.01,3.77-24.19,6.39-32.2,14.39-43.99,17.23-53.06,27.12-58.86Z"/>
  <path class="cls-15" d="m1443.94,354.92c-6.89,3.15-10.05,1.48-10.75,1.07-6.49-3.82-4-18.81-3.03-24.67,1.33-8,4.86-20.99,15.69-35.32,11.29-21.75,9.39-43.83-2.32-53.56-2.36-1.96-7.42-5.34-16.43-5.76-.12-.08-.24-.15-.36-.22-4.81-2.69-11.94,1.11-16.39,4.07-1.8,9.54-4.57,20.14-8.27,31.13-12.32,36.54-30.27,63.44-40.1,60.09s-7.82-35.68,4.5-72.21c12.32-36.54,30.27-63.44,40.1-60.09,3.91,1.33,5.95,7.24,6.21,16.19,1.37-.71,2.82-1.39,4.32-2.03,11.69-4.92,23.05-5.4,27.92-1.64,5.04,1.33,13.89,4.41,22.29,11.93,13.51,12.1,16.63,27.44,17.43,32.4.12,2.95.15,7.16-.33,12.18-1.27,13.5-5.26,23.19-8.6,31.11-18.48,43.88-22.85,51.2-31.88,55.33Z"/>
  <path class="cls-18" d="m1620.75,226.74c2.26,4.05-.97,10.82-4.34,14.39-13.56,14.38-49.39-1.8-51.01-2.55-.52,2.81-1.54,7.11-3.68,12.01-3.06,7.01-6.28,10.35-11.45,18.25-2.22,3.39-5.34,8.44-8.67,14.97-4.51,8.05-9.03,16.1-13.54,24.15-3.31,5.47-6.91,12.47-9.91,20.93-3.7,10.46-5.31,19.89-6.01,27.22-.45,6.37,1.92,9.54,2.77,10.53,5.12,6,17.59,6.39,29.29-1.58,3.19-8.07,10.39-12.74,17.06-11.85,5.31.71,10.43,4.97,11.42,9.97,2.1,10.58-14.56,22.56-25.67,27.04-8.95,3.61-17.71,5.15-24.52,4.7-4.52.14-15.36-.18-25.9-7.26-3.6-2.41-12.44-8.34-15.29-18.84-1.78-6.54-.94-13.82-.73-15.57.32-2.83.85-5.17,1.29-6.82.55-3.65,1.4-8.59,2.76-14.36,3.59-15.31,8.34-26.42,11.19-33.02,4.21-9.76,8.86-18.71,13.61-26.44v-.02c3.85-6.61,7.7-13.26,11.54-19.97,5.01-8.74,9.95-17.44,14.82-26.11-4.82-1.52-42.78-13.76-41.6-26.75.42-4.59,5.56-7.49,6.89-8.24,10.79-6.08,28.32-.2,43.7,14.86.75-4.19,1.59-8.45,2.52-12.78,3.41-15.87,7.61-30.58,12.22-44.08.59-1.41,4.37-10.1,12.78-12.12,4.64-1.12,10.47-.06,14.51,3.29,15.98,13.28-3.8,60.71-8.42,71.41-.27.62-.53,1.23-.81,1.85,4.62,2.42,11.9,5.68,21.3,7.52,11.91,2.34,19.41.87,21.87,5.28Z"/>
  <ellipse class="cls-14" cx="385" cy="239.5" rx="9" ry="26.5"/>
  <ellipse class="cls-14" cx="745.65" cy="84.33" rx="21.64" ry="8.76" transform="translate(25.7 295.94) rotate(-22.83)"/>
  <ellipse class="cls-14" cx="1113" cy="68.5" rx="26.5" ry="9" transform="translate(497.18 998.14) rotate(-60)"/>
  <ellipse class="cls-14" cx="1582.31" cy="156.08" rx="4.47" ry="13.21" transform="translate(-7.22 194.4) rotate(-7.01)"/>
  <path class="cls-14" d="m1723.84,87.64c1.7,1.49,18.89,16.54,25.98,15.91,3.39-.3,3.73-4.12,2.73-7.06-2.76-8.14-17.94-15.78-23.5-18.72-14.1-7.45-28.45-10.41-28.71-8.85-.16.95,4.95,2.98,13.01,9.34,5.15,4.06,5.96,5.41,10.49,9.38Z"/>
  <path class="cls-14" d="m189.53,54.91c.16-.04.27-.06.35-.08,2.99-.65,18.68-4.26,20.6-9.58.97-2.67-1.75-5.2-4.29-6.21-7.02-2.81-18.04,3.82-22.17,6.16-8.06,4.57-14.87,8.52-16.67,15.87-.58,2.39-.87,6.12.64,6.93,2.43,1.3,9.4-4.91,14-9,.87-.78,3.5-3.17,7.53-4.09Z"/>
  <path class="cls-14" d="m1643.28,942.3c-1.27,1.19-14.1,13.28-12.93,19.11.56,2.78,4.18,3.54,6.89,3.1,7.46-1.23,13.46-12.6,15.78-16.75,5.9-10.52,7.54-21.79,6.05-22.2-.91-.25-2.42,3.65-7.77,9.4-3.42,3.68-4.63,4.17-8.01,7.35Z"/>
  <path class="cls-14" d="m419.66,837.89c1.14-1.31,12.72-14.6,10.99-20.29-.83-2.72-4.51-3.11-7.16-2.4-7.31,1.96-12.15,13.86-14.06,18.22-4.83,11.05-5.36,22.43-3.83,22.69.93.16,2.05-3.87,6.81-10.11,3.04-4,4.2-4.6,7.25-8.1Z"/>
  <path class="cls-14" d="m41.04,725.64c.06-.15.1-.25.14-.34,1.15-2.83,7.06-17.81,3.77-22.4-1.65-2.31-5.27-1.5-7.55.02-6.29,4.2-7.07,17.03-7.48,21.76-.8,9.23-1.41,17.08,3.64,22.72,1.64,1.83,4.55,4.18,6.08,3.39,2.45-1.26,1.28-10.53.51-16.64-.15-1.16-.63-4.68.89-8.52Z"/>
</svg>